<svg width="32" height="32" viewBox="0 0 32 32" fill="none" xmlns="http://www.w3.org/2000/svg">
<path d="M16.0012 18.4752C19.2416 18.4752 21.868 15.9061 21.868 12.7374C21.868 9.56866 19.2411 7 16.0012 7C12.7613 7 10.1335 9.56915 10.1335 12.7379C10.1335 15.9066 12.7613 18.4752 16.0012 18.4752ZM18.4898 18.8663H13.5117C9.36969 18.8663 6 22.1625 6 26.2135V32.1676L6.01548 32.2609L6.43481 32.3893C10.3876 33.5972 13.8217 34 16.6482 34C22.169 34 25.369 32.4606 25.5662 32.3624L25.9581 32.1686H26V26.2135C26.0015 22.1625 22.6318 18.8663 18.4898 18.8663Z" fill="url(#paint0_linear)"/>
<circle cx="16" cy="16" r="16" stroke="#E4EBF1"/>
<defs>
<linearGradient id="paint0_linear" x1="16" y1="7" x2="16" y2="34" gradientUnits="userSpaceOnUse">
<stop stop-color="#009DFF"/>
<stop offset="1" stop-color="#008DF2"/>
</linearGradient>
</defs>
</svg>
