<svg width="36" height="36" viewBox="0 0 36 36" fill="none" xmlns="http://www.w3.org/2000/svg">
<rect x="0.5" y="0.5" width="35" height="35" fill="white" stroke="#D5D6DD"/>
<path d="M14.2691 18.74C14.446 18.738 14.6149 18.6661 14.7391 18.54L22.1891 10.91C22.2495 10.8496 22.2975 10.7779 22.3302 10.699C22.363 10.6201 22.3798 10.5354 22.3798 10.45C22.3798 10.3645 22.363 10.2799 22.3302 10.201C22.2975 10.1221 22.2495 10.0504 22.1891 9.99C22.0659 9.87027 21.9008 9.80328 21.7291 9.80328C21.5573 9.80328 21.3922 9.87027 21.2691 9.99L13.8091 17.64C13.7489 17.6995 13.7011 17.7704 13.6685 17.8485C13.6359 17.9266 13.6191 18.0104 13.6191 18.095C13.6191 18.1796 13.6359 18.2634 13.6685 18.3415C13.7011 18.4196 13.7489 18.4905 13.8091 18.55C13.8688 18.6112 13.9404 18.6597 14.0195 18.6923C14.0986 18.725 14.1835 18.7412 14.2691 18.74Z" fill="#07122B"/>
<path d="M21.7297 26.19C21.8151 26.1901 21.8997 26.1734 21.9786 26.1408C22.0575 26.1082 22.1292 26.0603 22.1897 26C22.3094 25.8768 22.3764 25.7118 22.3764 25.54C22.3764 25.3682 22.3094 25.2032 22.1897 25.08L14.7297 17.63C14.6693 17.5696 14.5976 17.5217 14.5186 17.489C14.4397 17.4563 14.3551 17.4395 14.2697 17.4395C14.1842 17.4395 14.0997 17.4563 14.0207 17.489C13.9418 17.5217 13.8701 17.5696 13.8097 17.63C13.7493 17.6904 13.7014 17.7621 13.6687 17.841C13.636 17.92 13.6191 18.0046 13.6191 18.09C13.6191 18.1754 13.636 18.26 13.6687 18.3389C13.7014 18.4179 13.7493 18.4896 13.8097 18.55L21.2697 26C21.3291 26.0617 21.4006 26.1105 21.4798 26.1432C21.5589 26.1759 21.644 26.1918 21.7297 26.19Z" fill="#07122B"/>
</svg>
