<svg width="34" height="34" viewBox="0 0 34 34" fill="none" xmlns="http://www.w3.org/2000/svg">
<path d="M17.0007 33.864C13.6653 33.864 10.4049 32.8749 7.63159 31.0219C4.85832 29.1689 2.69682 26.5351 1.42042 23.4536C0.144026 20.3721 -0.189938 16.9813 0.460763 13.71C1.11146 10.4387 2.7176 7.43382 5.07608 5.07535C7.43455 2.71687 10.4394 1.11073 13.7107 0.460031C16.982 -0.19067 20.3728 0.143293 23.4543 1.41969C26.5358 2.69609 29.1696 4.85759 31.0226 7.63086C32.8757 10.4041 33.8647 13.6646 33.8647 17C33.8602 21.4712 32.082 25.758 28.9204 28.9197C25.7588 32.0813 21.472 33.8595 17.0007 33.864ZM17.0007 2.34599C14.1024 2.34599 11.2692 3.20544 8.8594 4.81564C6.44956 6.42584 4.57132 8.71448 3.4622 11.3921C2.35307 14.0698 2.06287 17.0163 2.6283 19.8588C3.19373 22.7014 4.58938 25.3125 6.63878 27.3619C8.68818 29.4113 11.2993 30.807 14.1419 31.3724C16.9845 31.9378 19.9309 31.6476 22.6086 30.5385C25.2862 29.4294 27.5749 27.5512 29.1851 25.1413C30.7953 22.7315 31.6547 19.8983 31.6547 17C31.6502 13.1149 30.1049 9.3902 27.3577 6.64302C24.6105 3.89584 20.8858 2.35049 17.0007 2.34599Z" fill="#FC3030"/>
<path d="M20.3994 24.31C20.1942 24.3118 19.993 24.2526 19.8214 24.14C18.9994 23.5359 18.0102 23.2016 16.9901 23.1833C15.9701 23.1651 14.9696 23.4637 14.1264 24.038C14.0161 24.1346 13.8874 24.2079 13.748 24.2535C13.6087 24.2991 13.4615 24.3161 13.3154 24.3034C13.1694 24.2907 13.0273 24.2486 12.8979 24.1796C12.7685 24.1106 12.6544 24.0162 12.5624 23.902C12.3771 23.6781 12.2874 23.3902 12.3128 23.1006C12.3383 22.811 12.4768 22.5432 12.6984 22.355C13.8947 21.475 15.3366 20.992 16.8215 20.9737C18.3065 20.9554 19.7598 21.4028 20.9774 22.253C21.2236 22.4076 21.4002 22.6517 21.47 22.934C21.5398 23.2162 21.4973 23.5145 21.3514 23.766C21.2538 23.9317 21.1146 24.069 20.9477 24.1644C20.7807 24.2598 20.5917 24.31 20.3994 24.31Z" fill="#FC3030"/>
<path d="M10.2006 17.136C9.70153 17.1427 9.2061 17.05 8.74326 16.8632C8.28041 16.6763 7.85944 16.3991 7.50492 16.0478C7.1504 15.6964 6.86945 15.278 6.67847 14.8168C6.48749 14.3557 6.39031 13.8611 6.39262 13.362C6.39262 13.0689 6.50904 12.7878 6.71627 12.5806C6.92349 12.3734 7.20455 12.257 7.49762 12.257C7.79068 12.257 8.07174 12.3734 8.27897 12.5806C8.4862 12.7878 8.60262 13.0689 8.60262 13.362C8.60262 13.7768 8.7674 14.1746 9.0607 14.4679C9.35401 14.7612 9.75182 14.926 10.1666 14.926C10.5814 14.926 10.9792 14.7612 11.2725 14.4679C11.5658 14.1746 11.7306 13.7768 11.7306 13.362C11.7306 13.0689 11.847 12.7878 12.0543 12.5806C12.2615 12.3734 12.5426 12.257 12.8356 12.257C13.1287 12.257 13.4097 12.3734 13.617 12.5806C13.8242 12.7878 13.9406 13.0689 13.9406 13.362C13.9407 14.357 13.5477 15.3118 12.8473 16.0186C12.1469 16.7254 11.1956 17.127 10.2006 17.136Z" fill="#FC3030"/>
<path d="M23.0513 17.136C22.0504 17.136 21.0905 16.7383 20.3827 16.0306C19.675 15.3228 19.2773 14.3629 19.2773 13.362C19.2773 13.0689 19.3938 12.7878 19.601 12.5806C19.8082 12.3734 20.0893 12.257 20.3823 12.257C20.6754 12.257 20.9565 12.3734 21.1637 12.5806C21.3709 12.7878 21.4873 13.0689 21.4873 13.362C21.5278 13.7508 21.711 14.1109 22.0014 14.3726C22.2918 14.6344 22.6689 14.7792 23.0598 14.7792C23.4508 14.7792 23.8279 14.6344 24.1183 14.3726C24.4087 14.1109 24.5919 13.7508 24.6323 13.362C24.6323 13.0689 24.7488 12.7878 24.956 12.5806C25.1632 12.3734 25.4443 12.257 25.7373 12.257C26.0304 12.257 26.3115 12.3734 26.5187 12.5806C26.7259 12.7878 26.8423 13.0689 26.8423 13.362C26.8423 13.859 26.7442 14.3511 26.5534 14.8101C26.3627 15.2691 26.0832 15.6859 25.731 16.0366C25.3787 16.3873 24.9607 16.6649 24.5008 16.8536C24.041 17.0422 23.5484 17.1382 23.0513 17.136Z" fill="#FC3030"/>
</svg>
