<svg width="14" height="14" viewBox="0 0 14 14" fill="none" xmlns="http://www.w3.org/2000/svg">
<path d="M9.61098 7.51803C9.48713 7.51664 9.36885 7.46631 9.28198 7.37803L4.06698 2.03703C4.02465 1.99477 3.99106 1.94458 3.96815 1.88932C3.94524 1.83407 3.93344 1.77484 3.93344 1.71503C3.93344 1.65521 3.94524 1.59599 3.96815 1.54073C3.99106 1.48548 4.02465 1.43529 4.06698 1.39303C4.15321 1.30922 4.26872 1.26233 4.38898 1.26233C4.50923 1.26233 4.62474 1.30922 4.71098 1.39303L9.93298 6.74803C9.97509 6.78969 10.0085 6.83929 10.0313 6.89396C10.0542 6.94863 10.0659 7.00729 10.0659 7.06653C10.0659 7.12577 10.0542 7.18442 10.0313 7.23909C10.0085 7.29376 9.97509 7.34337 9.93298 7.38503C9.89115 7.4279 9.84103 7.46181 9.78567 7.48467C9.73031 7.50754 9.67087 7.51889 9.61098 7.51803Z" fill="#0099F6"/>
<path d="M4.38903 12.733C4.32925 12.7331 4.27005 12.7214 4.2148 12.6986C4.15954 12.6758 4.10933 12.6423 4.06703 12.6C3.98322 12.5138 3.93633 12.3983 3.93633 12.278C3.93633 12.1578 3.98322 12.0423 4.06703 11.956L9.28903 6.74104C9.33131 6.69876 9.38152 6.66521 9.43676 6.64233C9.49201 6.61944 9.55123 6.60767 9.61103 6.60767C9.67083 6.60767 9.73005 6.61944 9.78529 6.64233C9.84054 6.66521 9.89074 6.69876 9.93303 6.74104C9.97532 6.78333 10.0089 6.83353 10.0317 6.88878C10.0546 6.94403 10.0664 7.00324 10.0664 7.06304C10.0664 7.12284 10.0546 7.18206 10.0317 7.23731C10.0089 7.29256 9.97532 7.34276 9.93303 7.38504L4.71103 12.6C4.66946 12.6433 4.61938 12.6774 4.56396 12.7003C4.50854 12.7232 4.44898 12.7343 4.38903 12.733Z" fill="#0099F6"/>
</svg>
