<svg width="14" height="18" viewBox="0 0 14 18" fill="none" xmlns="http://www.w3.org/2000/svg">
<path d="M0.277344 0H8.17565C9.72612 0 10.9632 0.420519 11.8858 1.2612C12.8084 2.10204 13.2697 3.19175 13.2697 4.53075C13.2697 5.33859 13.0675 6.07574 12.6634 6.74103C12.2591 7.40632 11.657 7.92257 10.8569 8.28968C11.9799 8.7143 12.4005 9.27773 12.9289 9.97986C13.4572 10.6819 13.722 11.5839 13.722 12.6856C13.722 14.237 13.1618 15.5103 12.0428 16.5065C10.9234 17.5022 9.84922 18.0001 8.01095 18.0001H0.277344V0ZM3.08213 7.5H7.0979C8.38773 7.5 8.99581 7.26531 9.59578 6.79579C10.1954 6.32642 10.554 5.59795 10.4959 4.7142C10.4469 3.96837 10.2119 3.449 9.64463 3C9.0773 2.5513 8.46142 2.32645 7.12308 2.32645H3.08213V7.5ZM3.08213 15.5H7.86956C9.14257 15.5 9.78274 15.1929 10.4995 14.5C11.1155 13.9045 11.2048 13.4931 11.2172 12.6365C11.2308 11.7043 10.8626 11.002 10.1521 10.5C9.44182 9.99794 8.86521 9.74694 7.47716 9.74694H3.08182L3.08213 15.5Z" fill="#B8B8B8"/>
</svg>
