<svg width="14" height="18" viewBox="0 0 14 18" fill="none" xmlns="http://www.w3.org/2000/svg">
<path d="M0.277832 0H8.17614C9.72661 0 10.9637 0.420519 11.8863 1.2612C12.8088 2.10204 13.2702 3.19175 13.2702 4.53075C13.2702 5.33859 13.068 6.07574 12.6639 6.74103C12.2596 7.40632 11.6575 7.92257 10.8574 8.28968C11.9804 8.7143 12.4009 9.27773 12.9294 9.97986C13.4577 10.6819 13.7225 11.5839 13.7225 12.6856C13.7225 14.237 13.1623 15.5103 12.0433 16.5065C10.9239 17.5022 9.8497 18.0001 8.01144 18.0001H0.277832V0ZM3.08262 7.5H7.09838C8.38822 7.5 8.9963 7.26531 9.59627 6.79579C10.1959 6.32642 10.5545 5.59795 10.4964 4.7142C10.4474 3.96837 10.2124 3.449 9.64512 3C9.07779 2.5513 8.46191 2.32645 7.12357 2.32645H3.08262V7.5ZM3.08262 15.5H7.87005C9.14306 15.5 9.78323 15.1929 10.5 14.5C11.116 13.9045 11.2053 13.4931 11.2177 12.6365C11.2312 11.7043 10.863 11.002 10.1526 10.5C9.44231 9.99794 8.8657 9.74694 7.47765 9.74694H3.08231L3.08262 15.5Z" fill="#009DFF"/>
</svg>
