<svg width="16" height="16" viewBox="0 0 16 16" fill="none" xmlns="http://www.w3.org/2000/svg">
<path d="M11.5999 14.7435H4.39995C3.13995 14.7435 2.11328 13.7168 2.11328 12.4568V10.1501C2.11328 9.97013 2.22661 9.8168 2.39995 9.76347L5.59995 8.81013C5.68661 8.78347 5.77995 8.79013 5.86661 8.82347L9.21995 10.2101L13.3266 8.53013C13.4533 8.4768 13.5933 8.4968 13.6999 8.57013C13.8133 8.64347 13.8799 8.77013 13.8799 8.90347V12.4568C13.8799 13.7168 12.8533 14.7435 11.5933 14.7435H11.5999ZM2.91995 10.4501V12.4568C2.91995 13.2768 3.58661 13.9435 4.40661 13.9435H11.5999C12.4199 13.9435 13.0866 13.2768 13.0866 12.4568V9.4968L9.37995 11.0101C9.27995 11.0501 9.17328 11.0501 9.07328 11.0101L5.69995 9.6168L2.91995 10.4435V10.4501Z" fill="#07122B"/>
<path d="M9.21995 9.31781C9.16661 9.31781 9.11328 9.30448 9.06661 9.28448L5.69328 7.89115L2.62661 8.80448C2.50661 8.83781 2.37328 8.81781 2.27328 8.74448C2.17328 8.67115 2.11328 8.55115 2.11328 8.42448V3.54448C2.11328 2.28448 3.13995 1.25781 4.39995 1.25781H11.5933C12.8533 1.25781 13.8799 2.28448 13.8799 3.54448V7.17781C13.8799 7.33781 13.7799 7.48448 13.6333 7.55115L9.37328 9.29115C9.32661 9.31115 9.27328 9.31781 9.21995 9.31781ZM5.71995 7.07115C5.77328 7.07115 5.82661 7.08448 5.87328 7.10448L9.22661 8.49115L13.0866 6.91781V3.55115C13.0866 2.73115 12.4199 2.06448 11.5999 2.06448H4.39995C3.57995 2.06448 2.91328 2.73115 2.91328 3.55115V7.89781L5.59995 7.09781C5.63995 7.08448 5.67328 7.08448 5.71328 7.08448L5.71995 7.07115Z" fill="#07122B"/>
<path d="M10.2534 6.10552C9.53344 6.10552 8.94678 5.51885 8.94678 4.79885C8.94678 4.07885 9.53344 3.49219 10.2534 3.49219C10.9734 3.49219 11.5601 4.07885 11.5601 4.79885C11.5601 5.51885 10.9734 6.10552 10.2534 6.10552ZM10.2534 4.29885C9.97344 4.29885 9.74678 4.52552 9.74678 4.80552C9.74678 5.08552 9.97344 5.31219 10.2534 5.31219C10.5334 5.31219 10.7601 5.08552 10.7601 4.80552C10.7601 4.52552 10.5334 4.29885 10.2534 4.29885Z" fill="#07122B"/>
<path d="M8.14701 8.69749C8.02034 8.69749 7.89367 8.63749 7.82034 8.52415L5.32034 4.92415L2.96701 6.39082C2.78034 6.50415 2.53367 6.45082 2.41367 6.26415C2.30034 6.07749 2.35367 5.83082 2.54034 5.71082L5.22034 4.04415C5.40034 3.93082 5.64034 3.98415 5.76034 4.15749L8.47367 8.06415C8.60034 8.24415 8.55367 8.49749 8.37367 8.61749C8.30701 8.66415 8.22701 8.69082 8.14701 8.69082V8.69749Z" fill="#07122B"/>
<path d="M10.4264 12.8194C10.2998 12.8194 10.1731 12.7594 10.0931 12.646L8.89311 10.8727C8.76644 10.6927 8.81978 10.4394 8.99978 10.3194C9.17978 10.1927 9.43311 10.246 9.55311 10.426L10.5664 11.9194L13.0798 10.7594C13.2798 10.666 13.5198 10.7594 13.6131 10.9527C13.7064 11.1527 13.6131 11.3927 13.4198 11.486L10.5998 12.7927C10.5464 12.8194 10.4864 12.8327 10.4331 12.8327L10.4264 12.8194Z" fill="#07122B"/>
</svg>
