<svg width="20" height="20" viewBox="0 0 20 20" fill="none" xmlns="http://www.w3.org/2000/svg">
<path d="M18.1694 16.673H5.62881C5.07761 16.673 4.63086 16.2449 4.63086 15.7166C4.63086 15.1884 5.07761 14.7603 5.62881 14.7603H18.1691C18.7203 14.7603 19.167 15.1884 19.167 15.7166C19.167 16.2449 18.7206 16.673 18.1694 16.673Z" fill="#009DFF"/>
<path d="M18.1694 10.6701H5.62881C5.07761 10.6701 4.63086 10.2419 4.63086 9.7137C4.63086 9.18546 5.07761 8.75732 5.62881 8.75732H18.1691C18.7203 8.75732 19.167 9.18546 19.167 9.7137C19.1674 10.2419 18.7206 10.6701 18.1694 10.6701Z" fill="#009DFF"/>
<path d="M18.1694 4.66714H5.62881C5.07761 4.66714 4.63086 4.239 4.63086 3.71077C4.63086 3.18253 5.07761 2.75439 5.62881 2.75439H18.1691C18.7203 2.75439 19.167 3.18253 19.167 3.71077C19.167 4.239 18.7206 4.66714 18.1694 4.66714Z" fill="#009DFF"/>
<path d="M2.17375 5.06882C2.91395 5.06882 3.514 4.49377 3.514 3.78441C3.514 3.07505 2.91395 2.5 2.17375 2.5C1.43355 2.5 0.833496 3.07505 0.833496 3.78441C0.833496 4.49377 1.43355 5.06882 2.17375 5.06882Z" fill="#009DFF"/>
<path d="M2.17375 10.998C2.91395 10.998 3.514 10.423 3.514 9.71361C3.514 9.00425 2.91395 8.4292 2.17375 8.4292C1.43355 8.4292 0.833496 9.00425 0.833496 9.71361C0.833496 10.423 1.43355 10.998 2.17375 10.998Z" fill="#009DFF"/>
<path d="M2.17375 16.9267C2.91395 16.9267 3.514 16.3517 3.514 15.6423C3.514 14.933 2.91395 14.3579 2.17375 14.3579C1.43355 14.3579 0.833496 14.933 0.833496 15.6423C0.833496 16.3517 1.43355 16.9267 2.17375 16.9267Z" fill="#009DFF"/>
</svg>
