<svg width="20" height="20" viewBox="0 0 20 20" fill="none" xmlns="http://www.w3.org/2000/svg">
<path d="M18.1694 16.6725H5.62881C5.07761 16.6725 4.63086 16.2444 4.63086 15.7161C4.63086 15.1879 5.07761 14.7598 5.62881 14.7598H18.1691C18.7203 14.7598 19.167 15.1879 19.167 15.7161C19.167 16.2444 18.7206 16.6725 18.1694 16.6725Z" fill="#B8B8B8"/>
<path d="M18.1694 10.6706H5.62881C5.07761 10.6706 4.63086 10.2424 4.63086 9.71419C4.63086 9.18595 5.07761 8.75781 5.62881 8.75781H18.1691C18.7203 8.75781 19.167 9.18595 19.167 9.71419C19.1674 10.2424 18.7206 10.6706 18.1694 10.6706Z" fill="#B8B8B8"/>
<path d="M18.1694 4.66665H5.62881C5.07761 4.66665 4.63086 4.23852 4.63086 3.71028C4.63086 3.18204 5.07761 2.75391 5.62881 2.75391H18.1691C18.7203 2.75391 19.167 3.18204 19.167 3.71028C19.167 4.23852 18.7206 4.66665 18.1694 4.66665Z" fill="#B8B8B8"/>
<path d="M2.17375 5.06882C2.91395 5.06882 3.514 4.49377 3.514 3.78441C3.514 3.07505 2.91395 2.5 2.17375 2.5C1.43355 2.5 0.833496 3.07505 0.833496 3.78441C0.833496 4.49377 1.43355 5.06882 2.17375 5.06882Z" fill="#B8B8B8"/>
<path d="M2.17375 10.9985C2.91395 10.9985 3.514 10.4235 3.514 9.7141C3.514 9.00474 2.91395 8.42969 2.17375 8.42969C1.43355 8.42969 0.833496 9.00474 0.833496 9.7141C0.833496 10.4235 1.43355 10.9985 2.17375 10.9985Z" fill="#B8B8B8"/>
<path d="M2.17375 16.9262C2.91395 16.9262 3.514 16.3512 3.514 15.6418C3.514 14.9325 2.91395 14.3574 2.17375 14.3574C1.43355 14.3574 0.833496 14.9325 0.833496 15.6418C0.833496 16.3512 1.43355 16.9262 2.17375 16.9262Z" fill="#B8B8B8"/>
</svg>
