<svg width="20" height="20" viewBox="0 0 20 20" fill="none" xmlns="http://www.w3.org/2000/svg">
<path fill-rule="evenodd" clip-rule="evenodd" d="M9.17135 2.5421L9.99998 1.71347C11.0999 0.616211 12.5901 0 14.1437 0C15.6974 0 17.1876 0.616211 18.2875 1.71347C19.3842 2.81368 20 4.30378 20 5.85723C20 7.41067 19.3842 8.90077 18.2875 10.001L15.8004 12.4869C14.6952 13.5933 13.2231 14.2039 11.6573 14.2039C10.0914 14.2039 8.61932 13.5933 7.51408 12.4869L6.68545 11.6582L8.34272 10.001L9.17135 10.8296C10.4993 12.1575 12.8152 12.1575 14.1432 10.8296L16.6302 8.34371C17.2883 7.68354 17.6579 6.78939 17.6579 5.85723C17.6579 4.92506 17.2883 4.03092 16.6302 3.37074C15.9697 2.71321 15.0757 2.34406 14.1437 2.34406C13.2118 2.34406 12.3177 2.71321 11.6573 3.37074L10.8286 4.19937L9.17135 2.5421ZM10.8286 9.17249C9.50072 7.84456 7.18477 7.84456 5.85685 9.17249L3.36977 11.6584C2.71167 12.3186 2.34213 13.2127 2.34213 14.1449C2.34213 15.077 2.71167 15.9712 3.36977 16.6314C4.03025 17.2889 4.92428 17.658 5.85626 17.658C6.78823 17.658 7.68227 17.2889 8.34275 16.6314L9.17138 15.8027L10.8286 17.46L10 18.2886C9.45623 18.8333 8.81015 19.2651 8.09891 19.5591C7.38767 19.8532 6.62531 20.0038 5.85567 20.0022C5.08624 20.0035 4.32413 19.8529 3.61311 19.5588C2.90209 19.2648 2.25618 18.8331 1.7125 18.2886C0.615816 17.1884 0 15.6983 0 14.1449C0 12.5914 0.615816 11.1013 1.7125 10.0011L4.19958 7.51522C5.30481 6.40881 6.7769 5.79818 8.34275 5.79818C9.9086 5.79818 11.3807 6.40881 12.4859 7.51522L13.3146 8.34385L11.6573 10.0011L10.8286 9.17249Z" fill="#07122B"/>
</svg>
