<svg width="20" height="20" viewBox="0 0 20 20" fill="none" xmlns="http://www.w3.org/2000/svg">
<g clip-path="url(#clip0)">
<path d="M19.35 16.6199H0.65C0.482683 16.6201 0.321742 16.5558 0.20067 16.4403C0.0795985 16.3248 0.00772222 16.1671 4.76942e-09 15.9999V13.3999C0.00169064 13.2558 0.050503 13.1162 0.138982 13.0025C0.227461 12.8887 0.350743 12.8071 0.49 12.7699C1.10473 12.6149 1.64927 12.2572 2.03573 11.7546C2.42218 11.252 2.62802 10.6339 2.62 9.99994C2.6285 9.36474 2.42304 8.74515 2.03668 8.24088C1.65032 7.73662 1.10553 7.37702 0.49 7.21994C0.350711 7.18636 0.22672 7.10701 0.137879 6.9946C0.0490378 6.88219 0.000486818 6.74322 4.76942e-09 6.59994V3.99994C-1.03589e-05 3.91505 0.0168692 3.831 0.0496557 3.75269C0.0824423 3.67438 0.130481 3.60338 0.190973 3.54382C0.251466 3.48426 0.323204 3.43733 0.402011 3.40576C0.480817 3.37419 0.565116 3.35861 0.65 3.35994H19.35C19.4349 3.35861 19.5192 3.37419 19.598 3.40576C19.6768 3.43733 19.7485 3.48426 19.809 3.54382C19.8695 3.60338 19.9176 3.67438 19.9503 3.75269C19.9831 3.831 20 3.91505 20 3.99994V6.59994C20.0013 6.74368 19.9534 6.88355 19.8643 6.99632C19.7752 7.1091 19.6502 7.188 19.51 7.21994C18.8973 7.38162 18.3554 7.74151 17.9687 8.24349C17.582 8.74546 17.3723 9.3613 17.3723 9.99494C17.3723 10.6286 17.582 11.2444 17.9687 11.7464C18.3554 12.2484 18.8973 12.6083 19.51 12.7699C19.6501 12.8055 19.7743 12.8868 19.8631 13.0009C19.9518 13.115 20 13.2554 20 13.3999V15.9999C19.9923 16.1671 19.9204 16.3248 19.7993 16.4403C19.6783 16.5558 19.5173 16.6201 19.35 16.6199ZM1.29 15.3399H18.71V13.8699C17.9373 13.5598 17.2751 13.0255 16.8087 12.3358C16.3423 11.6461 16.0931 10.8326 16.0931 9.99994C16.0931 9.16733 16.3423 8.35379 16.8087 7.66407C17.2751 6.97435 17.9373 6.44004 18.71 6.12994V4.65994H1.29V6.12994C2.06647 6.43493 2.73237 6.96791 3.20005 7.65871C3.66772 8.34951 3.91523 9.16574 3.91 9.99994C3.91523 10.8341 3.66772 11.6504 3.20005 12.3412C2.73237 13.032 2.06647 13.565 1.29 13.8699V15.3399Z" fill="#B8B8B8"/>
<path d="M7.00047 15.05C6.83073 15.05 6.66794 14.9826 6.54792 14.8625C6.4279 14.7425 6.36047 14.5797 6.36047 14.41V13.41C6.38008 13.2528 6.45646 13.1081 6.57524 13.0032C6.69402 12.8983 6.84701 12.8405 7.00547 12.8405C7.16392 12.8405 7.31692 12.8983 7.4357 13.0032C7.55448 13.1081 7.63085 13.2528 7.65047 13.41V14.41C7.65048 14.4949 7.6336 14.5789 7.60081 14.6572C7.56803 14.7356 7.51999 14.8066 7.4595 14.8661C7.399 14.9257 7.32726 14.9726 7.24846 15.0042C7.16965 15.0358 7.08535 15.0513 7.00047 15.05ZM7.00047 11.05C6.83073 11.05 6.66794 10.9826 6.54792 10.8625C6.4279 10.7425 6.36047 10.5797 6.36047 10.41V9.41C6.34906 9.31855 6.35723 9.22573 6.38443 9.13768C6.41162 9.04964 6.45723 8.96838 6.51823 8.8993C6.57922 8.83022 6.65421 8.7749 6.73821 8.73702C6.82222 8.69913 6.91332 8.67953 7.00547 8.67953C7.09762 8.67953 7.18872 8.69913 7.27272 8.73702C7.35673 8.7749 7.43171 8.83022 7.49271 8.8993C7.5537 8.96838 7.59931 9.04964 7.62651 9.13768C7.65371 9.22573 7.66188 9.31855 7.65047 9.41V10.41C7.65594 10.4987 7.64317 10.5875 7.61296 10.671C7.58275 10.7546 7.53574 10.831 7.47483 10.8957C7.41392 10.9604 7.3404 11.0118 7.25881 11.047C7.17722 11.0821 7.0893 11.1002 7.00047 11.1V11.05ZM7.00047 7.15C6.82982 7.14737 6.66704 7.07773 6.5473 6.95612C6.42756 6.8345 6.36045 6.67067 6.36047 6.5V5.5C6.34906 5.40855 6.35723 5.31573 6.38443 5.22768C6.41162 5.13964 6.45723 5.05838 6.51823 4.9893C6.57922 4.92022 6.65421 4.8649 6.73821 4.82702C6.82222 4.78913 6.91332 4.76953 7.00547 4.76953C7.09762 4.76953 7.18872 4.78913 7.27272 4.82702C7.35673 4.8649 7.43171 4.92022 7.49271 4.9893C7.5537 5.05838 7.59931 5.13964 7.62651 5.22768C7.65371 5.31573 7.66188 5.40855 7.65047 5.5V6.5C7.65047 6.67239 7.58199 6.83772 7.46009 6.95962C7.33819 7.08152 7.17286 7.15 7.00047 7.15Z" fill="#B8B8B8"/>
</g>
<defs>
<clipPath id="clip0">
<rect width="20" height="20" fill="white"/>
</clipPath>
</defs>
</svg>
