<svg width="251" height="208" viewBox="0 0 251 208" fill="none" xmlns="http://www.w3.org/2000/svg">
    <path fill-rule="evenodd" clip-rule="evenodd" d="M80.3648 193.588H76.6001L83.1884 187L89.7766 193.588L86.0119 193.588L86.0119 199.235L80.3648 199.235L80.3648 193.588ZM76.6001 203V201.117H89.7766V203H76.6001Z" fill="white"/>
    <path d="M103.774 200.182C106.154 200.182 107.554 198.614 107.554 196.388V190.2H106.014V196.374C106.014 197.816 105.216 198.74 103.774 198.74C102.318 198.74 101.534 197.83 101.534 196.388V190.2H99.98V196.402C99.98 198.67 101.324 200.182 103.774 200.182ZM109.663 202.618H111.189V199.034C111.385 199.342 112.169 200.182 113.555 200.182C115.641 200.182 117.027 198.6 117.027 196.332C117.027 194.106 115.543 192.51 113.457 192.51C112.043 192.51 111.301 193.392 111.105 193.658V192.692H109.663V202.618ZM111.133 196.332C111.133 194.988 111.959 193.868 113.303 193.868C114.549 193.868 115.487 194.834 115.487 196.332C115.487 197.802 114.591 198.824 113.317 198.824C112.099 198.824 111.133 197.914 111.133 196.332ZM118.584 200H120.11V189.878H118.584V200ZM123.196 196.36C123.196 194.932 124.148 193.868 125.52 193.868C126.878 193.868 127.872 194.918 127.872 196.346C127.872 197.774 126.878 198.824 125.52 198.824C124.162 198.824 123.196 197.802 123.196 196.36ZM121.656 196.36C121.656 198.572 123.28 200.182 125.52 200.182C127.746 200.182 129.398 198.544 129.398 196.346C129.398 194.148 127.774 192.51 125.52 192.51C123.322 192.51 121.656 194.148 121.656 196.36ZM130.495 197.746C130.495 199.216 131.713 200.182 133.253 200.182C134.163 200.182 134.751 199.874 135.129 199.454L135.255 200H136.585V195.282C136.585 193.686 135.843 192.51 133.673 192.51C132.455 192.51 131.475 192.972 130.887 193.35L131.475 194.414C132.007 194.12 132.707 193.84 133.519 193.84C134.485 193.84 135.073 194.344 135.073 195.184V195.87C134.793 195.618 134.163 195.338 133.323 195.338C131.643 195.338 130.495 196.332 130.495 197.746ZM132.021 197.704C132.021 196.976 132.637 196.444 133.561 196.444C134.485 196.444 135.115 196.934 135.115 197.704C135.115 198.46 134.471 198.964 133.575 198.964C132.651 198.964 132.021 198.432 132.021 197.704ZM145.385 189.878H143.859V193.672C143.663 193.35 142.879 192.51 141.493 192.51C139.407 192.51 138.021 194.106 138.021 196.36C138.021 198.6 139.505 200.182 141.591 200.182C143.005 200.182 143.747 199.3 143.943 199.048V200H145.385V189.878ZM143.915 196.374C143.915 197.718 143.089 198.838 141.745 198.838C140.499 198.838 139.561 197.872 139.561 196.374C139.561 194.904 140.457 193.868 141.731 193.868C142.949 193.868 143.915 194.778 143.915 196.374ZM151.449 200H152.975V193.952H154.389V192.692H152.975V192.398C152.975 191.572 153.381 191.194 154.123 191.194C154.291 191.194 154.487 191.222 154.487 191.222V189.92C154.487 189.92 154.235 189.892 153.941 189.892C152.639 189.892 151.449 190.508 151.449 192.37V192.692H150.651V193.952H151.449V200ZM155.783 200H157.309V192.692H155.783V200ZM155.587 190.886C155.587 191.418 156.007 191.838 156.539 191.838C157.071 191.838 157.491 191.418 157.491 190.886C157.491 190.354 157.071 189.934 156.539 189.934C156.007 189.934 155.587 190.354 155.587 190.886ZM159.304 200H160.83V189.878H159.304V200ZM162.39 196.374C162.39 198.586 163.902 200.182 166.184 200.182C167.92 200.182 168.886 199.188 169.236 198.586L168.228 197.83C167.948 198.236 167.318 198.852 166.212 198.852C164.91 198.852 163.972 198.012 163.944 196.71H169.446C169.46 196.584 169.46 196.458 169.46 196.332C169.46 194.036 168.158 192.51 165.946 192.51C163.944 192.51 162.39 194.106 162.39 196.374ZM164 195.66C164.098 194.512 164.91 193.784 165.96 193.784C167.01 193.784 167.85 194.456 167.906 195.66H164Z" fill="white"/>
    <mask id="path-3-inside-1" fill="white">
        <path fill-rule="evenodd" clip-rule="evenodd" d="M240.2 75.156C240.376 74.6715 240.358 74.1375 240.15 73.6656L224.825 38.8801C224.605 38.3812 224.191 37.9936 223.679 37.8071L178.905 21.5109C174.268 19.8232 169.276 21.8445 167.754 26.0256L132.622 122.55C131.1 126.731 133.626 131.489 138.262 133.177L201.232 156.096C205.869 157.783 210.861 155.762 212.383 151.581L240.2 75.156Z"/>
    </mask>
    <path fill-rule="evenodd" clip-rule="evenodd" d="M240.2 75.156C240.376 74.6715 240.358 74.1375 240.15 73.6656L224.825 38.8801C224.605 38.3812 224.191 37.9936 223.679 37.8071L178.905 21.5109C174.268 19.8232 169.276 21.8445 167.754 26.0256L132.622 122.55C131.1 126.731 133.626 131.489 138.262 133.177L201.232 156.096C205.869 157.783 210.861 155.762 212.383 151.581L240.2 75.156Z" fill="#F86F7F" fill-opacity="0.1"/>
    <path d="M178.905 21.5109L178.563 22.4506L178.905 21.5109ZM167.754 26.0256L166.814 25.6836L167.754 26.0256ZM132.622 122.55L131.682 122.208L132.622 122.55ZM212.383 151.581L213.323 151.923L212.383 151.581ZM224.825 38.8801L225.74 38.477L224.825 38.8801ZM240.15 73.6656L241.066 73.2625L240.15 73.6656ZM240.2 75.156L239.26 74.814L240.2 75.156ZM241.066 73.2625L225.74 38.477L223.91 39.2833L239.235 74.0688L241.066 73.2625ZM178.563 22.4506L223.337 38.7468L224.021 36.8674L179.247 20.5712L178.563 22.4506ZM168.694 26.3677C169.994 22.7946 174.352 20.9177 178.563 22.4506L179.247 20.5712C174.185 18.7288 168.557 20.8944 166.814 25.6836L168.694 26.3677ZM133.562 122.892L168.694 26.3677L166.814 25.6836L131.682 122.208L133.562 122.892ZM138.604 132.237C134.393 130.704 132.261 126.465 133.562 122.892L131.682 122.208C129.939 126.997 132.858 132.274 137.92 134.116L138.604 132.237ZM201.574 155.156L138.604 132.237L137.92 134.116L200.89 157.035L201.574 155.156ZM211.443 151.239C210.143 154.812 205.786 156.689 201.574 155.156L200.89 157.035C205.952 158.878 211.58 156.712 213.323 151.923L211.443 151.239ZM239.26 74.814L211.443 151.239L213.323 151.923L241.139 75.4981L239.26 74.814ZM225.74 38.477C225.41 37.7285 224.789 37.1471 224.021 36.8674L223.337 38.7468C223.593 38.84 223.8 39.0338 223.91 39.2833L225.74 38.477ZM239.235 74.0688C239.339 74.3048 239.348 74.5717 239.26 74.814L241.139 75.4981C241.404 74.7712 241.377 73.9703 241.066 73.2625L239.235 74.0688Z" fill="url(#paint0_linear)" mask="url(#path-3-inside-1)"/>
    <path fill-rule="evenodd" clip-rule="evenodd" d="M239.675 74.6007L224.115 38.1382C223.43 38.5944 222.88 39.2651 222.577 40.0976L214.567 62.1031C213.812 64.179 214.882 66.4743 216.958 67.2299L237.078 74.553C237.948 74.8698 238.857 74.8656 239.675 74.6007Z" fill="url(#paint1_linear)"/>
    <path opacity="0.2" d="M155.987 83.1732C158.392 76.5655 165.835 73.2086 172.613 75.6752L211.88 89.9673C218.657 92.4339 222.201 99.7901 219.796 106.398C217.391 113.005 209.947 116.362 203.17 113.896L163.903 99.6036C157.126 97.1369 153.582 89.7808 155.987 83.1732Z" fill="#F86F7F"/>
    <path d="M176.021 94.2086C175.856 94.6632 176.099 95.1854 176.566 95.3553C177.032 95.5251 177.554 95.2816 177.72 94.8269C177.89 94.3603 177.646 93.8381 177.18 93.6683C176.713 93.4985 176.191 93.742 176.021 94.2086Z" fill="#EA494F"/>
    <path d="M178.866 96.0163L180.194 96.4996L181.4 93.1856L182.513 93.5905C184.032 94.1436 185.568 93.4968 186.108 92.0132C186.657 90.5058 185.922 89.1002 184.343 88.5253L181.914 87.6414L178.866 96.0163ZM181.822 92.025L182.82 89.2852L183.777 89.6336C184.638 89.9471 185.045 90.6913 184.744 91.5168C184.439 92.3543 183.641 92.6869 182.768 92.3691L181.822 92.025Z" fill="#EA494F"/>
    <path d="M185.152 98.3041L187.126 99.0227C189.889 100.029 192.12 99.1873 193.112 96.4595C194.066 93.8393 192.974 91.6667 190.174 90.6477L188.2 89.9292L185.152 98.3041ZM186.902 97.627L189.101 91.5851L189.879 91.8681C191.673 92.5213 192.438 94.0325 191.737 95.9587C191.009 97.9567 189.474 98.5632 187.68 97.91L186.902 97.627Z" fill="#EA494F"/>
    <path d="M192.886 101.119L194.214 101.603L195.512 98.0374L197.965 98.9301L198.396 97.7456L195.943 96.8529L196.827 94.4242L199.627 95.4432L200.062 94.2467L195.934 92.7444L192.886 101.119Z" fill="#EA494F"/>
    <path fill-rule="evenodd" clip-rule="evenodd" d="M90.1408 47.821C89.7665 46.7928 89.0096 45.9489 88.028 45.4654L55.5959 29.4905C54.558 28.9792 53.3563 28.9139 52.2691 29.3096L8.39591 45.2781C3.75898 46.9658 1.23366 51.7234 2.75546 55.9045L37.8875 152.429C39.4093 156.61 44.4019 158.631 49.0389 156.944L112.008 134.025C116.645 132.337 119.17 127.579 117.649 123.398L90.1408 47.821Z" fill="#FF9417" fill-opacity="0.1"/>
    <path fill-rule="evenodd" clip-rule="evenodd" d="M87.0904 47.369L54.6582 31.3941C54.1393 31.1384 53.5384 31.1058 52.9948 31.3036L9.12168 47.2722C5.3869 48.6315 3.69734 52.288 4.74949 55.1788L39.8815 151.703C40.9337 154.594 44.5783 156.309 48.3131 154.95L111.282 132.031C115.017 130.671 116.707 127.015 115.655 124.124L88.1468 48.5468C87.9596 48.0327 87.5812 47.6107 87.0904 47.369ZM88.028 45.4654C89.0096 45.9489 89.7665 46.7928 90.1408 47.821L117.649 123.398C119.17 127.579 116.645 132.337 112.008 134.025L49.0389 156.944C44.4019 158.631 39.4093 156.61 37.8875 152.429L2.75546 55.9045C1.23366 51.7234 3.75898 46.9658 8.39591 45.2781L52.2691 29.3096C53.3563 28.9139 54.558 28.9792 55.5959 29.4905L88.028 45.4654Z" fill="#FF9417"/>
    <path fill-rule="evenodd" clip-rule="evenodd" d="M89.8331 47.2235L53.7783 28.9403C53.1131 30.7543 53.0604 32.804 53.7729 34.7618L59.8284 51.399C61.4317 55.804 66.3025 58.0753 70.7076 56.472L85.2633 51.1741C87.3001 50.4328 88.8807 48.9929 89.8331 47.2235Z" fill="#FF9417"/>
    <path d="M30.475 107.245C28.07 100.638 31.6143 93.2816 38.3913 90.815L77.6583 76.523C84.4354 74.0563 91.8789 77.4132 94.2839 84.0209C96.6889 90.6285 93.1446 97.9847 86.3675 100.451L47.1005 114.743C40.3235 117.21 32.8799 113.853 30.475 107.245Z" fill="#FBAC50" fill-opacity="0.2"/>
    <path d="M41.1574 107.101C41.3229 107.556 41.8451 107.8 42.3117 107.63C42.7783 107.46 43.0218 106.938 42.8563 106.483C42.6865 106.016 42.1643 105.773 41.6977 105.943C41.2311 106.113 40.9876 106.635 41.1574 107.101Z" fill="#FF8900"/>
    <path d="M43.3287 105.119C43.85 105.769 45.0098 106.648 46.7207 106.025C48.3717 105.424 49.0055 104.001 48.496 102.601C47.538 99.9692 43.8542 101.649 43.2533 99.9976C43.0442 99.4233 43.2975 98.8163 44.0393 98.5463C44.8648 98.2458 45.4567 98.6808 45.7962 99.0179L46.7183 98.1267C46.3016 97.6145 45.2103 96.7381 43.619 97.3172C42.0757 97.879 41.4549 99.1888 41.9296 100.493C42.9094 103.185 46.5344 101.418 47.1789 103.189C47.4358 103.895 47.0857 104.497 46.332 104.771C45.4107 105.106 44.7068 104.699 44.2618 104.183L43.3287 105.119Z" fill="#FF8900"/>
    <path d="M50.6442 104.421L51.9722 103.937L50.4655 99.7979L55.1427 102.783L56.6741 102.226L51.7119 99.1274L53.5063 93.8947L52.0108 94.439L50.3305 99.427L48.924 95.5625L47.596 96.0459L50.6442 104.421Z" fill="#FF8900"/>
    <path d="M57.7012 101.852L61.9604 100.302L61.525 99.1056L58.5938 100.173L57.6967 97.7079L60.1374 96.8195L59.7063 95.6351L57.2656 96.5234L56.4165 94.1904L59.228 93.1671L58.7926 91.9707L54.653 93.4774L57.7012 101.852Z" fill="#FF8900"/>
    <path d="M64.8861 99.2372L66.2142 98.7538L63.6014 91.5753L65.7071 90.8089L65.2716 89.6125L59.7322 91.6287L60.1677 92.8251L62.2734 92.0587L64.8861 99.2372Z" fill="#FF8900"/>
    <path d="M74.9313 93.4538C74.6877 93.827 74.106 94.6485 73.0173 95.0447C71.2226 95.6979 69.5537 94.7607 68.9223 93.0259C68.2909 91.2911 69.0028 89.4874 70.7496 88.8516C71.7307 88.4946 72.6662 88.6825 73.1253 88.827L73.0933 87.5108C72.4678 87.3185 71.4453 87.1893 70.2608 87.6204C67.8082 88.5131 66.6494 91.0621 67.5464 93.5267C68.4435 95.9913 70.8978 97.2252 73.4342 96.3021C74.7264 95.8318 75.4473 94.9461 75.7485 94.4707L74.9313 93.4538Z" fill="#FF8900"/>
    <path d="M77.2715 94.7293L78.5995 94.2459L77.2757 90.6088L81.2478 89.1631L82.5716 92.8002L83.8997 92.3168L80.8514 83.9419L79.5234 84.4253L80.808 87.9547L76.8359 89.4004L75.5513 85.871L74.2233 86.3543L77.2715 94.7293Z" fill="#FF8900"/>
    <mask id="path-13-inside-2" fill="white">
        <path fill-rule="evenodd" clip-rule="evenodd" d="M178.049 33.5372C178.049 33.022 177.85 32.5266 177.494 32.1544L147.314 0.617218C146.936 0.222969 146.414 -2.43174e-08 145.869 0L91.3646 2.42886e-06C85.7324 2.67985e-06 81.1665 4.12226 81.1665 9.20733L81.1665 126.601C81.1665 131.686 85.7324 135.808 91.3646 135.808H167.851C173.483 135.808 178.049 131.686 178.049 126.601L178.049 33.5372Z"/>
    </mask>
    <path fill-rule="evenodd" clip-rule="evenodd" d="M178.049 33.5372C178.049 33.022 177.85 32.5266 177.494 32.1544L147.314 0.617218C146.936 0.222969 146.414 -2.43174e-08 145.869 0L91.3646 2.42886e-06C85.7324 2.67985e-06 81.1665 4.12226 81.1665 9.20733L81.1665 126.601C81.1665 131.686 85.7324 135.808 91.3646 135.808H167.851C173.483 135.808 178.049 131.686 178.049 126.601L178.049 33.5372Z" fill="#7FC7F3" fill-opacity="0.95"/>
    <path d="M91.3646 2.42886e-06V-0.999998V2.42886e-06ZM81.1665 9.20733H80.1665H81.1665ZM81.1665 126.601H82.1665H81.1665ZM178.049 126.601H179.049H178.049ZM147.314 0.617218L146.591 1.30861L147.314 0.617218ZM177.494 32.1544L178.216 31.463L177.494 32.1544ZM178.049 33.5372H179.049H178.049ZM178.216 31.463L148.036 -0.0741732L146.591 1.30861L176.771 32.8458L178.216 31.463ZM91.3646 1L145.869 1V-1L91.3646 -0.999998V1ZM82.1665 9.20733C82.1665 4.76825 86.186 1 91.3646 1V-0.999998C85.2787 -0.999997 80.1665 3.47628 80.1665 9.20733H82.1665ZM82.1665 126.601L82.1665 9.20733H80.1665L80.1665 126.601H82.1665ZM91.3646 134.808C86.186 134.808 82.1665 131.04 82.1665 126.601H80.1665C80.1665 132.332 85.2787 136.808 91.3646 136.808V134.808ZM167.851 134.808H91.3646V136.808H167.851V134.808ZM177.049 126.601C177.049 131.04 173.029 134.808 167.851 134.808V136.808C173.937 136.808 179.049 132.332 179.049 126.601H177.049ZM177.049 33.5372L177.049 126.601H179.049L179.049 33.5372H177.049ZM148.036 -0.0741732C147.47 -0.665547 146.687 -1 145.869 -1V1C146.141 1 146.402 1.11149 146.591 1.30861L148.036 -0.0741732ZM176.771 32.8458C176.949 33.0319 177.049 33.2796 177.049 33.5372H179.049C179.049 32.7643 178.75 32.0213 178.216 31.463L176.771 32.8458Z" fill="white" mask="url(#path-13-inside-2)"/>
    <path fill-rule="evenodd" clip-rule="evenodd" d="M177.253 33.1501L146.489 0.245117C146.027 0.897505 145.755 1.69441 145.755 2.55475V29.9523C145.755 32.1614 147.546 33.9523 149.755 33.9523H174.849C175.751 33.9523 176.584 33.6538 177.253 33.1501Z" fill="white"/>
    <path fill-rule="evenodd" clip-rule="evenodd" d="M129.608 60.1436C119.977 60.1436 112.169 67.9611 112.169 77.6046C112.169 87.2481 119.977 95.0656 129.608 95.0656C139.239 95.0656 147.047 87.2481 147.047 77.6046C147.047 67.9611 139.239 60.1436 129.608 60.1436ZM128.155 76.1495V69.8441H131.061V76.1495H137.358V79.0597H131.061V85.3651H128.155V79.0597H121.857V76.1495H128.155Z" fill="white"/>
    <defs>
        <linearGradient id="paint0_linear" x1="210.39" y1="32.9704" x2="169.747" y2="144.636" gradientUnits="userSpaceOnUse">
            <stop stop-color="#F86F7F"/>
            <stop offset="1" stop-color="#E03131"/>
        </linearGradient>
        <linearGradient id="paint1_linear" x1="236.48" y1="42.6388" x2="226.293" y2="70.6276" gradientUnits="userSpaceOnUse">
            <stop stop-color="#FF7988"/>
            <stop offset="1" stop-color="#F04141"/>
        </linearGradient>
    </defs>
</svg>
