<svg width="194" height="200" viewBox="0 0 194 200" fill="none" xmlns="http://www.w3.org/2000/svg">
<path d="M168.505 80.7798V177.283H26.5918V81.3747L97.8995 138.578L168.505 80.7798Z" fill="white" stroke="#091229" stroke-width="0.5" stroke-miterlimit="10"/>
<path d="M168.505 80.7798L97.8992 138.578L26.5915 81.3747L26.1113 80.9843L95.646 18.6316L168.505 80.7798Z" fill="#EF457E"/>
<path d="M124.089 69.6626C126.293 72.847 127.512 76.6159 127.595 80.4957C127.677 84.3756 126.618 88.1933 124.551 91.4693C132.003 90.1786 139.18 87.6132 145.772 83.8844C146.196 86.0676 146.002 88.3271 145.212 90.4047C144.422 92.4823 143.067 94.2942 141.302 95.6336C139.268 97.0071 136.993 97.9787 134.598 98.4966C133.697 98.6502 132.843 99.013 132.105 99.5562C131.278 100.486 130.75 101.646 130.59 102.884C129.992 105.389 129.138 107.825 128.042 110.153C127.828 110.655 127.535 111.12 127.174 111.529C126.712 112.03 119.288 116.808 118.66 117.106C114.098 119.281 116.333 116.976 111.771 119.132L110.496 100.318C109.868 94.0445 109.868 87.7229 110.496 81.449C110.539 80.15 110.839 78.8726 111.378 77.6916C111.917 76.5105 112.685 75.4495 113.636 74.5705C115.797 73.0089 119.177 72.8974 120.248 70.4434" fill="#091229"/>
<path d="M79.2832 90.4842C73.9252 83.6135 66.4235 78.7606 57.9888 76.7086C57.1762 76.5041 56.1419 76.3926 55.6248 77.0432C55.1077 77.6939 55.6248 78.9023 56.1235 79.7389C57.0822 81.0669 58.151 82.3107 59.3186 83.457C62.8018 86.6384 66.7124 89.3106 70.9354 91.3951C72.7195 92.5119 74.7357 93.199 76.8269 93.4029C77.6642 93.4792 78.4982 93.226 79.154 92.6965C79.466 92.4204 79.6582 92.0322 79.6892 91.6152C79.7203 91.1981 79.5878 90.7855 79.3202 90.4656" fill="white"/>
<path d="M79.2832 90.4842C73.9252 83.6135 66.4235 78.7606 57.9888 76.7086C57.1762 76.5041 56.1419 76.3926 55.6248 77.0432C55.1077 77.6939 55.6248 78.9023 56.1235 79.7389C57.0822 81.0669 58.151 82.3107 59.3186 83.457C62.8018 86.6384 66.7124 89.3106 70.9354 91.3951C72.7195 92.5119 74.7357 93.199 76.8269 93.4029C77.6642 93.4792 78.4982 93.226 79.154 92.6965C79.466 92.4204 79.6582 92.0322 79.6892 91.6152C79.7203 91.1981 79.5878 90.7855 79.3202 90.4656" stroke="#091229" stroke-width="0.4" stroke-miterlimit="10"/>
<path d="M79.7447 88.9596C79.1135 89.093 78.5182 89.3612 77.9988 89.746C77.4795 90.1309 77.0483 90.6235 76.7343 91.1905C75.9927 92.1238 75.3721 93.1483 74.8874 94.2394C74.34 95.3043 74.1956 96.5331 74.4811 97.6972C74.729 98.3228 75.0717 98.906 75.4969 99.4261C76.1433 100.318 77.0852 101.285 78.1564 101.043C78.5346 100.906 78.8805 100.69 79.1721 100.411C80.7991 99.0561 81.9885 97.2441 82.5888 95.2061C82.8719 94.1861 82.9056 93.1122 82.6869 92.0763C82.4682 91.0404 82.0037 90.0731 81.333 89.2571C80.9492 88.7698 80.3935 88.4502 79.7816 88.3647" fill="white"/>
<path d="M79.7447 88.9596C79.1135 89.093 78.5182 89.3612 77.9988 89.746C77.4795 90.1309 77.0483 90.6235 76.7343 91.1905C75.9927 92.1238 75.3721 93.1483 74.8874 94.2394C74.34 95.3043 74.1956 96.5331 74.4811 97.6972C74.729 98.3228 75.0717 98.906 75.4969 99.4261C76.1433 100.318 77.0852 101.285 78.1564 101.043C78.5346 100.906 78.8805 100.69 79.1721 100.411C80.7991 99.0561 81.9885 97.2441 82.5888 95.2061C82.8719 94.1861 82.9056 93.1122 82.6869 92.0763C82.4682 91.0404 82.0037 90.0731 81.333 89.2571C80.9492 88.7698 80.3935 88.4502 79.7816 88.3647" stroke="#091229" stroke-width="0.4" stroke-miterlimit="10"/>
<path d="M81.87 89.8519C81.87 89.8519 69.5514 103.014 79.7461 122.925C89.9408 142.835 104.587 143.04 112.14 131.96C119.694 120.88 127.635 101.992 120.1 91.525C112.565 81.0585 81.87 89.8519 81.87 89.8519Z" fill="white" stroke="#091229" stroke-width="0.4" stroke-miterlimit="10"/>
<path d="M57.6934 79.8132C59.7109 80.3774 61.6859 81.0857 63.6033 81.9325C66.8639 83.5621 69.957 85.5111 72.8377 87.7514" fill="white"/>
<path d="M57.6934 79.8132C59.7109 80.3774 61.6859 81.0857 63.6033 81.9325C66.8639 83.5621 69.957 85.5111 72.8377 87.7514" stroke="#091229" stroke-width="0.4" stroke-linecap="round" stroke-linejoin="round"/>
<path d="M127.376 89.9265C125.655 89.4816 123.843 89.5332 122.15 90.0752C120.444 90.63 119.024 91.8389 118.197 93.4401C117.68 94.5862 117.51 95.86 117.707 97.103C117.904 98.3459 118.46 99.5031 119.305 100.43C120.177 101.345 121.272 102.013 122.481 102.369C123.69 102.724 124.97 102.754 126.194 102.457C126.855 102.302 127.482 102.025 128.041 101.639C128.747 101.052 129.308 100.308 129.68 99.4664C130.052 98.6244 130.224 97.707 130.183 96.7864C130.192 94.4813 129.35 92.2551 127.819 90.54" fill="white"/>
<path d="M127.376 89.9265C125.655 89.4816 123.843 89.5332 122.15 90.0752C120.444 90.63 119.024 91.8389 118.197 93.4401C117.68 94.5862 117.51 95.86 117.707 97.103C117.904 98.3459 118.46 99.5031 119.305 100.43C120.177 101.345 121.272 102.013 122.481 102.369C123.69 102.724 124.97 102.754 126.194 102.457C126.855 102.302 127.482 102.025 128.041 101.639C128.747 101.052 129.308 100.308 129.68 99.4664C130.052 98.6244 130.224 97.707 130.183 96.7864C130.192 94.4813 129.35 92.2551 127.819 90.54" stroke="#091229" stroke-width="0.4" stroke-linecap="round" stroke-linejoin="round"/>
<path d="M124.846 92.2131C124.477 92.7709 124.329 94.0722 124.846 94.4626C125.096 94.6813 125.393 94.8388 125.713 94.9227C126.034 95.0066 126.369 95.0145 126.693 94.946C143.315 90.0009 145.162 82.9178 147.655 79.8504C147.817 79.5678 147.903 79.2472 147.903 78.9209C147.903 78.5945 147.817 78.274 147.655 77.9913C147.498 77.8335 147.304 77.7183 147.091 77.6565C146.878 77.5947 146.653 77.5884 146.436 77.6381C143.052 78.1542 139.809 79.3627 136.906 81.1889C134.445 82.4293 132.097 83.885 129.888 85.5391C127.64 87.2606 125.903 89.5687 124.865 92.2131" fill="white"/>
<path d="M124.846 92.2131C124.477 92.7709 124.329 94.0722 124.846 94.4626C125.096 94.6813 125.393 94.8388 125.713 94.9227C126.034 95.0066 126.369 95.0145 126.693 94.946C143.315 90.0009 145.162 82.9178 147.655 79.8504C147.817 79.5678 147.903 79.2472 147.903 78.9209C147.903 78.5945 147.817 78.274 147.655 77.9913C147.498 77.8335 147.304 77.7183 147.091 77.6565C146.878 77.5947 146.653 77.5884 146.436 77.6381C143.052 78.1542 139.809 79.3627 136.906 81.1889C134.445 82.4293 132.097 83.885 129.888 85.5391C127.64 87.2606 125.903 89.5687 124.865 92.2131" stroke="#091229" stroke-width="0.4" stroke-linecap="round" stroke-linejoin="round"/>
<path d="M129.758 91.8784C134.797 89.8167 139.274 86.5723 142.815 82.4158L129.758 91.8784Z" fill="white"/>
<path d="M129.758 91.8784C134.797 89.8167 139.274 86.5723 142.815 82.4158" stroke="#091229" stroke-width="0.4" stroke-linecap="round" stroke-linejoin="round"/>
<path d="M99.5626 97.3256C113.567 97.3256 124.92 86.8632 124.92 73.9572C124.92 61.0512 113.567 50.5889 99.5626 50.5889C85.558 50.5889 74.2051 61.0512 74.2051 73.9572C74.2051 86.8632 85.558 97.3256 99.5626 97.3256Z" fill="white" stroke="#091229" stroke-width="0.4" stroke-miterlimit="10"/>
<path d="M101.868 93.0259C112.905 91.3715 120.742 82.5222 119.372 73.2606C118.001 63.999 107.943 57.8321 96.9063 59.4866C85.8692 61.141 78.0326 69.9902 79.4028 79.2519C80.7729 88.5135 90.831 94.6803 101.868 93.0259Z" fill="#0099F6"/>
<path d="M90.7534 76.3738C90.4948 76.7456 97.2174 82.0811 97.2174 82.0811C100.191 78.363 110.33 66.5208 109.868 67.2087" stroke="#091229" stroke-width="0.5" stroke-miterlimit="10"/>
<path d="M88.9434 113.165C88.9434 111.882 88.9434 110.636 88.9434 109.447C88.9434 108.815 88.9434 108.182 88.9434 107.588C88.9434 107.234 89.0542 107.123 89.3497 107.141C89.6452 107.16 90.1069 107.141 90.4947 107.141C90.8826 107.141 90.7902 107.271 91.0488 107.383C91.507 107.163 92.0251 107.104 92.5206 107.215C93.016 107.327 93.4601 107.602 93.7822 107.997C94.1743 107.561 94.6998 107.269 95.2753 107.168C95.8507 107.067 96.4432 107.162 96.9588 107.439C97.4066 107.609 97.7857 107.924 98.0364 108.335C98.2871 108.745 98.3953 109.228 98.3439 109.707C98.3439 110.729 98.3439 111.752 98.3439 112.793C98.3439 113.165 98.3439 113.332 97.9192 113.313C97.4944 113.295 97.0327 113.313 96.5155 113.313V111.919C96.5155 111.306 96.5155 110.674 96.5155 110.06C96.5155 109.447 96.0723 108.87 95.5552 108.852C95.038 108.833 94.6317 109.354 94.6317 110.06C94.6317 111.12 94.6317 112.179 94.6317 113.276H92.7849C92.7849 112.719 92.7849 112.142 92.7849 111.585C92.7849 111.027 92.7849 110.488 92.7849 109.949C92.7975 109.815 92.7828 109.68 92.7417 109.552C92.7005 109.424 92.6338 109.305 92.5455 109.204C92.4573 109.103 92.3494 109.022 92.2286 108.964C92.1078 108.907 91.9765 108.875 91.843 108.87C91.7118 108.875 91.583 108.906 91.4644 108.963C91.3458 109.019 91.2399 109.1 91.1534 109.199C91.0669 109.298 91.0015 109.414 90.9613 109.54C90.921 109.666 90.9068 109.798 90.9195 109.93C90.9195 110.952 90.9195 111.956 90.9195 112.979C90.9253 113.078 90.9253 113.177 90.9195 113.276L88.9434 113.165Z" fill="#EF457E"/>
<path d="M101.28 107.271C101.516 107.094 101.786 106.969 102.074 106.904C102.361 106.838 102.659 106.834 102.948 106.892C103.237 106.95 103.511 107.068 103.751 107.239C103.992 107.41 104.194 107.63 104.345 107.885C104.767 108.558 104.991 109.338 104.991 110.134C104.991 110.93 104.767 111.71 104.345 112.384C104.181 112.651 103.961 112.88 103.7 113.054C103.439 113.227 103.144 113.342 102.835 113.39C102.526 113.437 102.211 113.417 101.91 113.33C101.61 113.243 101.332 113.091 101.095 112.886V115.302C100.504 115.302 99.9868 115.302 99.4512 115.302C99.4512 115.302 99.248 114.986 99.248 114.819C99.248 112.774 99.248 110.711 99.248 108.647C99.2665 108.294 99.2665 107.94 99.248 107.587C99.248 107.123 99.3773 106.992 99.7467 107.03C100.116 107.067 100.356 107.03 100.652 107.03C100.869 107.088 101.079 107.169 101.28 107.271ZM100.984 110.134C100.984 111.008 101.501 111.64 102.203 111.64C102.905 111.64 103.348 110.989 103.33 110.097C103.311 109.205 102.813 108.628 102.148 108.628C101.971 108.647 101.801 108.701 101.646 108.787C101.491 108.873 101.355 108.99 101.246 109.131C101.138 109.272 101.058 109.433 101.013 109.606C100.968 109.778 100.958 109.958 100.984 110.134Z" fill="#EF457E"/>
<path d="M103.865 106.23C103.535 106.221 103.21 106.152 102.904 106.026C102.914 105.877 102.914 105.728 102.904 105.58C102.904 105.45 102.904 105.338 102.904 105.189C102.876 104.886 102.876 104.581 102.904 104.278C102.995 104.251 103.091 104.251 103.181 104.278H103.717C104.013 104.278 104.382 104.278 104.807 104.278C104.807 104.446 104.807 104.743 104.807 104.91C104.807 105.078 104.807 105.338 104.807 105.543C104.807 105.747 104.807 105.747 104.807 105.84C104.807 105.933 104.807 106.082 104.807 106.212C104.494 106.252 104.179 106.259 103.865 106.23Z" fill="#091229"/>
<path d="M106.6 111.231C107.56 111.231 107.412 111.064 107.449 112.347C107.449 113.127 107.449 113.146 106.747 113.146C105.455 113.146 105.399 113.146 105.565 111.566C105.588 111.492 105.626 111.424 105.677 111.366C105.728 111.308 105.791 111.262 105.861 111.231C106.107 111.214 106.354 111.214 106.6 111.231Z" fill="#091229"/>
<path d="M57.7497 28.1128C58.8387 29.6054 59.3803 31.4317 59.2826 33.281C58.8212 34.4282 58.1367 35.471 57.2695 36.3484C58.2817 35.7002 59.4716 35.3907 60.6691 35.4641C61.8665 35.5376 63.0103 35.9902 63.9367 36.7574C63.1057 34.8983 65.1926 31.4405 66.9471 30.2693C65.7836 30.92 62.6255 32.1284 61.5358 31.4405C60.4462 30.7527 59.6889 30.1949 58.6732 29.3398" fill="white"/>
<path d="M57.7497 28.1128C58.8387 29.6054 59.3803 31.4317 59.2826 33.281C58.8212 34.4282 58.1367 35.471 57.2695 36.3484C58.2817 35.7002 59.4716 35.3907 60.6691 35.4641C61.8665 35.5376 63.0103 35.9902 63.9367 36.7574C63.1057 34.8983 65.1926 31.4405 66.9471 30.2693C65.7836 30.92 62.6255 32.1284 61.5358 31.4405C60.4462 30.7527 59.6889 30.1949 58.6732 29.3398" stroke="#091229" stroke-width="0.4" stroke-linecap="round" stroke-linejoin="round"/>
<path d="M124.108 20.3232C124.758 21.2294 125.083 22.3303 125.031 23.4465C124.747 24.1389 124.333 24.77 123.812 25.3055C124.422 24.9204 125.136 24.7366 125.855 24.7799C126.573 24.8233 127.261 25.0915 127.82 25.5472C127.322 24.376 128.596 22.3496 129.667 21.6432C128.965 22.0336 127.063 22.8144 126.398 22.3496C125.803 21.96 125.23 21.538 124.681 21.0855" fill="white"/>
<path d="M124.108 20.3232C124.758 21.2294 125.083 22.3303 125.031 23.4465C124.747 24.1389 124.333 24.77 123.812 25.3055C124.422 24.9204 125.136 24.7366 125.855 24.7799C126.573 24.8233 127.261 25.0915 127.82 25.5472C127.322 24.376 128.596 22.3496 129.667 21.6432C128.965 22.0336 127.063 22.8144 126.398 22.3496C125.803 21.96 125.23 21.538 124.681 21.0855" stroke="#091229" stroke-width="0.4" stroke-linecap="round" stroke-linejoin="round"/>
<path d="M144.128 36.3484C145.224 37.8375 145.766 39.6664 145.661 41.5166C145.198 42.6423 144.521 43.6656 143.666 44.5282C144.675 43.8815 145.862 43.5728 147.056 43.6463C148.251 43.7198 149.391 44.1716 150.315 44.9372C149.502 43.0782 151.589 39.6203 153.344 38.4491C152.18 39.1184 149.022 40.3082 147.914 39.6203C146.806 38.9325 146.067 38.3748 145.051 37.5196" fill="white"/>
<path d="M144.128 36.3484C145.224 37.8375 145.766 39.6664 145.661 41.5166C145.198 42.6423 144.521 43.6656 143.666 44.5282C144.675 43.8815 145.862 43.5728 147.056 43.6463C148.251 43.7198 149.391 44.1716 150.315 44.9372C149.502 43.0782 151.589 39.6203 153.344 38.4491C152.18 39.1184 149.022 40.3082 147.914 39.6203C146.806 38.9325 146.067 38.3748 145.051 37.5196" stroke="#091229" stroke-width="0.4" stroke-linecap="round" stroke-linejoin="round"/>
<path d="M26.1113 80.9843L95.8307 133.689L168.505 80.7798L110.033 170.293L51.8567 117.515L26.1113 80.9843Z" fill="white"/>
<path d="M113.266 125.769L168.506 177.284" stroke="#091229" stroke-width="0.5" stroke-miterlimit="10"/>
<path d="M26.5918 177.283L82.9768 126.197" stroke="#091229" stroke-width="0.5" stroke-miterlimit="10"/>
<path d="M168.505 80.7798L95.831 133.689L52.3926 100.114" stroke="#091229" stroke-width="0.5" stroke-miterlimit="10"/>
<path d="M155.449 57.021C157.865 54.7989 160.878 53.3438 164.111 52.8381" stroke="#091229" stroke-width="0.4" stroke-miterlimit="10"/>
<path d="M46.6124 52.9682L38.6523 48.4321" stroke="#091229" stroke-width="0.4" stroke-miterlimit="10"/>
</svg>
