<svg width="201" height="201" viewBox="0 0 201 201" fill="none" xmlns="http://www.w3.org/2000/svg">
<path d="M94.3346 162.815C83.3787 159.251 71.5427 159.474 60.7289 163.449C59.6722 163.872 58.4745 164.506 58.3336 165.633C58.1927 166.76 59.6722 167.746 60.8699 168.169C62.8993 168.937 64.9996 169.504 67.1401 169.86C73.3086 170.741 79.5709 170.741 85.7395 169.86C88.5428 169.777 91.29 169.054 93.771 167.746C94.7273 167.166 95.4502 166.268 95.8141 165.21C95.9442 164.678 95.8627 164.116 95.5867 163.643C95.3107 163.17 94.8618 162.823 94.3346 162.674" fill="white"/>
<path d="M75.5946 171.481C72.7147 171.491 69.8391 171.256 66.9994 170.776C64.8184 170.395 62.6737 169.829 60.5883 169.085C58.4747 168.31 57.3474 167.113 57.4884 165.633C57.6293 164.154 59.7428 162.956 60.3769 162.745C71.2738 158.715 83.2094 158.467 94.2644 162.04C94.6131 162.113 94.9431 162.258 95.2339 162.464C95.5247 162.67 95.7702 162.933 95.9552 163.238C96.2051 163.591 96.3781 163.994 96.4631 164.418C96.548 164.843 96.543 165.281 96.4484 165.704C96.0738 166.986 95.2147 168.073 94.053 168.733C91.4611 170.109 88.5998 170.903 85.6692 171.058C82.3206 171.373 78.9578 171.514 75.5946 171.481ZM78.4831 161.124C72.516 161.124 66.5977 162.198 61.011 164.295C59.8837 164.717 59.3201 165.21 59.2497 165.704C59.1792 166.197 60.236 167.042 61.2223 167.394C63.1919 168.107 65.219 168.649 67.2812 169.015C73.3789 169.895 79.5715 169.895 85.6692 169.015C88.3283 168.924 90.9313 168.225 93.278 166.972C94.068 166.548 94.6711 165.844 94.9689 164.999C95.106 164.66 95.106 164.281 94.9689 163.942C94.9936 163.826 94.9936 163.706 94.9689 163.59H94.6166C89.4131 161.878 83.9606 161.044 78.4831 161.124Z" fill="#07122B"/>
<path d="M116.741 92.8558C115.997 92.4379 115.172 92.184 114.321 92.1111C113.47 92.0382 112.614 92.148 111.809 92.4331C110.235 92.7277 108.698 93.2004 107.23 93.8422C105.779 94.5089 104.625 95.6881 103.989 97.1534C103.69 97.9913 103.523 98.8708 103.496 99.7601C103.496 101.24 103.496 103.071 104.835 103.705C105.345 103.818 105.874 103.818 106.385 103.705C109.188 103.733 111.935 102.923 114.275 101.381C115.434 100.603 116.385 99.5554 117.048 98.328C117.711 97.1005 118.065 95.7302 118.08 94.3353C118.104 93.9379 118.048 93.5396 117.915 93.1643C117.782 92.789 117.574 92.4445 117.305 92.1513" fill="white"/>
<path d="M106.243 104.833C105.612 104.882 104.979 104.76 104.411 104.481C103.002 103.846 102.439 102.226 102.58 99.7602C102.637 98.7764 102.827 97.8049 103.143 96.8717C103.842 95.1634 105.182 93.7974 106.877 93.0672C108.387 92.391 109.972 91.8945 111.597 91.5878C113.241 91.0241 115.026 91.0241 116.67 91.5878C116.842 91.4563 117.052 91.3852 117.269 91.3852C117.485 91.3852 117.696 91.4563 117.868 91.5878C118.238 91.9705 118.528 92.4229 118.721 92.9188C118.915 93.4147 119.008 93.9441 118.995 94.4763C118.975 96.0243 118.579 97.5444 117.843 98.9063C117.107 100.268 116.052 101.431 114.768 102.296C112.285 103.935 109.358 104.772 106.384 104.692L106.243 104.833ZM114.345 92.9968C113.558 93.0106 112.776 93.1291 112.02 93.3491C110.517 93.5887 109.05 94.0147 107.652 94.6172C106.384 95.2166 105.363 96.2375 104.764 97.5057C104.515 98.2814 104.373 99.0872 104.341 99.9011C104.341 101.592 104.341 102.578 105.186 102.931C105.558 103.008 105.942 103.008 106.314 102.931C108.956 102.975 111.554 102.24 113.781 100.817C114.823 100.131 115.681 99.2012 116.283 98.1087C116.884 97.0162 117.211 95.7936 117.234 94.5467C117.268 94.1953 117.268 93.8414 117.234 93.49C117.097 93.5779 116.938 93.6247 116.776 93.6247C116.613 93.6247 116.454 93.5779 116.318 93.49C115.734 93.1085 115.039 92.9347 114.345 92.9968Z" fill="#07122B"/>
<path d="M117.232 94.265C117.232 94.265 98.6328 102.015 98.6328 131.605C98.6328 161.195 115.33 170.565 131.041 162.392C146.752 154.22 167.817 137.17 165.492 120.121C164.083 109.835 148.654 96.3785 135.127 91.9401C129.074 90.6029 122.743 91.4254 117.232 94.265Z" fill="white"/>
<path d="M120.121 166.056C116.618 166.083 113.178 165.131 110.187 163.308C101.873 158.165 97.435 146.893 97.6463 131.605C97.2896 120.687 100.725 109.982 107.369 101.31C109.904 98.0424 113.127 95.3725 116.809 93.4901C122.555 90.7347 129.081 90.0622 135.268 91.5879C148.301 95.6741 164.646 109.13 166.196 120.332C168.733 138.579 145.483 155.911 131.322 163.308C127.856 165.092 124.019 166.033 120.121 166.056ZM129.209 92.3629C125.192 92.4549 121.237 93.3659 117.584 95.04C117.584 95.04 99.9008 102.931 99.4781 131.534C99.4781 146.188 103.423 156.967 111.173 161.688C114.114 163.402 117.457 164.305 120.86 164.305C124.264 164.305 127.607 163.402 130.547 161.688C159.785 146.47 165.774 128.646 164.505 120.473C163.237 111.033 148.513 97.5059 134.775 93.2083C132.972 92.6489 131.096 92.3639 129.209 92.3629Z" fill="#07122B"/>
<path d="M62.7031 167.113C65.2295 166.232 67.8205 165.549 70.4529 165.07C75.2406 164.448 80.0766 164.283 84.8956 164.576" fill="white"/>
<path d="M62.7018 167.958C62.5188 167.968 62.3375 167.919 62.185 167.817C62.0325 167.716 61.9172 167.567 61.8564 167.394C61.8125 167.284 61.7925 167.165 61.7977 167.046C61.8028 166.928 61.8329 166.811 61.8861 166.705C61.9393 166.598 62.0144 166.504 62.1064 166.429C62.1984 166.354 62.3052 166.298 62.42 166.267C65.0439 165.374 67.7278 164.668 70.4515 164.154C75.2861 163.522 80.1721 163.381 85.0351 163.731C85.278 163.731 85.511 163.827 85.6827 163.999C85.8545 164.171 85.951 164.404 85.951 164.647C85.919 164.872 85.8104 165.078 85.6435 165.232C85.4767 165.387 85.2618 165.478 85.0351 165.492C80.3361 165.154 75.615 165.296 70.9447 165.915C68.2619 166.374 65.6223 167.057 63.0541 167.958H62.7018Z" fill="#07122B"/>
<path d="M167.819 125.687C165.585 124.79 163.149 124.522 160.774 124.912C158.452 125.354 156.387 126.664 154.997 128.575C154.081 129.966 153.594 131.595 153.594 133.26C153.594 134.925 154.081 136.554 154.997 137.945C155.974 139.277 157.279 140.334 158.785 141.013C160.291 141.692 161.947 141.97 163.592 141.82C164.522 141.765 165.432 141.525 166.269 141.116C167.313 140.476 168.195 139.601 168.843 138.562C169.491 137.523 169.888 136.347 170.003 135.127C170.428 132.244 169.83 129.302 168.312 126.814" fill="white"/>
<path d="M167.324 132.027C166.62 131.464 164.999 131.041 164.365 132.027C164.027 132.308 163.761 132.665 163.589 133.07C163.418 133.474 163.346 133.914 163.379 134.352C166.831 157.108 175.779 160.772 179.372 164.647C179.704 164.938 180.11 165.131 180.545 165.206C180.98 165.28 181.427 165.233 181.838 165.069C182.401 165.069 182.472 164.153 182.542 163.519C182.427 158.977 181.422 154.501 179.583 150.345C178.425 146.832 176.939 143.435 175.145 140.2C173.278 136.945 170.579 134.246 167.324 132.38" fill="white"/>
<path d="M180.99 165.774C180.128 165.77 179.299 165.443 178.665 164.858C178.007 164.174 177.301 163.538 176.552 162.956C172.395 159.363 165.42 153.374 162.461 134.141C162.399 133.549 162.482 132.951 162.703 132.399C162.924 131.847 163.277 131.356 163.729 130.971C164.786 129.984 166.829 130.618 167.745 131.323C171.26 133.162 174.171 135.975 176.129 139.425C177.985 142.697 179.519 146.142 180.708 149.711C182.429 154.009 183.268 158.609 183.174 163.238C183.206 163.68 183.119 164.123 182.92 164.52C182.722 164.917 182.42 165.253 182.047 165.492C181.721 165.666 181.359 165.763 180.99 165.774ZM165.279 132.239C165.041 132.421 164.847 132.655 164.713 132.924C164.578 133.193 164.507 133.488 164.504 133.789C167.393 152.388 173.804 157.883 178.031 161.547C178.829 162.174 179.583 162.857 180.286 163.59C180.507 163.691 180.747 163.744 180.99 163.744C181.233 163.744 181.474 163.691 181.695 163.59C181.695 163.59 181.695 163.59 181.695 162.815C181.618 158.388 180.635 154.025 178.806 149.993C177.672 146.527 176.209 143.177 174.438 139.988C172.667 136.854 170.088 134.251 166.97 132.45C166.452 132.175 165.85 132.1 165.279 132.239Z" fill="#07122B"/>
<path d="M166.832 138.579C168.616 145.601 172.045 152.097 176.836 157.531L166.832 138.579Z" fill="white"/>
<path d="M176.834 158.376C176.734 158.421 176.626 158.444 176.516 158.444C176.407 158.444 176.299 158.421 176.199 158.376C171.323 152.835 167.823 146.221 165.984 139.072C165.965 138.854 166.025 138.636 166.153 138.458C166.282 138.28 166.469 138.154 166.683 138.103C166.896 138.052 167.12 138.079 167.315 138.179C167.51 138.28 167.663 138.447 167.745 138.65C169.457 145.529 172.818 151.889 177.538 157.179C177.687 157.356 177.769 157.581 177.769 157.813C177.769 158.045 177.687 158.269 177.538 158.447L176.834 158.376Z" fill="#07122B"/>
<path d="M125.333 159.504C125.162 159.499 124.996 159.443 124.857 159.342C124.719 159.242 124.615 159.101 124.558 158.94C124.5 158.836 124.467 158.72 124.462 158.601C124.456 158.482 124.478 158.364 124.526 158.255C124.574 158.146 124.646 158.049 124.737 157.972C124.828 157.896 124.935 157.841 125.051 157.813C132.155 154.922 138.745 150.901 144.566 145.906C144.647 145.798 144.752 145.709 144.871 145.646C144.991 145.583 145.124 145.547 145.259 145.541C145.395 145.535 145.53 145.559 145.654 145.612C145.779 145.665 145.891 145.744 145.981 145.845C146.072 145.946 146.138 146.066 146.177 146.196C146.215 146.326 146.225 146.463 146.204 146.597C146.183 146.73 146.133 146.858 146.057 146.97C145.98 147.082 145.88 147.176 145.764 147.245C139.769 152.36 132.989 156.476 125.685 159.433L125.333 159.504Z" fill="#07122B"/>
<path d="M108.355 128.505L110.469 124.63L111.526 122.587C111.526 122.587 111.878 122.587 112.23 122.587L113.498 123.432C113.498 123.432 113.498 123.855 113.921 124.137C114.593 124.261 115.212 124.582 115.701 125.059C116.19 125.535 116.527 126.146 116.669 126.814C117.417 126.678 118.189 126.774 118.882 127.089C119.574 127.403 120.154 127.922 120.544 128.575C120.899 129.068 121.09 129.659 121.09 130.266C121.09 130.873 120.899 131.465 120.544 131.957L118.853 135.127C118.853 135.55 118.853 135.691 118.078 135.127C117.602 134.719 117.082 134.365 116.528 134.071C116.528 133.507 117.092 133.084 117.303 132.591L118.36 130.689C118.552 130.368 118.615 129.985 118.537 129.619C118.458 129.253 118.244 128.931 117.937 128.716C117.373 128.294 116.669 128.716 116.246 129.28L114.485 132.591L112.371 131.182L113.287 129.421C113.639 128.857 113.921 128.294 114.203 127.73C114.293 127.587 114.353 127.428 114.38 127.261C114.407 127.095 114.401 126.925 114.362 126.76C114.322 126.596 114.251 126.442 114.151 126.306C114.051 126.17 113.925 126.055 113.78 125.969C113.533 125.964 113.292 126.046 113.099 126.2C112.906 126.354 112.773 126.572 112.724 126.814L111.033 129.984L108.355 128.505Z" fill="#0099F6"/>
<path d="M125.475 131.675C126.25 131.691 126.991 131.996 127.551 132.531C128.112 133.066 128.452 133.791 128.505 134.564C128.667 135.502 128.513 136.469 128.067 137.31C127.621 138.152 126.907 138.821 126.039 139.214C124.559 139.848 123.15 139.214 122.164 137.382L120.826 139.848L118.994 138.58C118.924 138.374 118.924 138.151 118.994 137.945L122.446 131.534C122.661 131.197 122.849 130.844 123.01 130.478C123.01 129.914 123.503 129.914 123.855 130.478L124.912 131.182L125.475 131.675ZM123.503 134.423C123.259 134.808 123.174 135.273 123.266 135.72C123.358 136.167 123.619 136.561 123.996 136.818C124.18 136.938 124.389 137.015 124.607 137.044C124.825 137.073 125.046 137.053 125.255 136.985C125.464 136.918 125.656 136.804 125.816 136.654C125.976 136.503 126.1 136.318 126.18 136.114C126.392 135.72 126.459 135.264 126.369 134.826C126.279 134.388 126.037 133.996 125.687 133.718C125.502 133.599 125.294 133.522 125.076 133.493C124.858 133.464 124.636 133.484 124.427 133.551C124.218 133.619 124.027 133.732 123.867 133.883C123.707 134.034 123.582 134.218 123.503 134.423Z" fill="#0099F6"/>
<path d="M128.928 132.52C128.565 132.254 128.234 131.947 127.941 131.605L128.294 131.182C128.294 131.182 128.294 131.182 128.294 130.759C128.294 130.336 128.787 129.773 128.857 129.843H129.28L130.478 130.689C130.319 130.874 130.199 131.09 130.125 131.323C130.087 131.556 130.087 131.794 130.125 132.027V132.38L128.928 132.52Z" fill="#07122B"/>
<path d="M129.138 139.707C130.195 140.411 130.195 140.129 129.49 141.468C128.786 142.807 128.997 142.313 128.222 141.82C126.813 140.904 126.813 140.904 127.799 139.214C127.876 139.176 127.961 139.157 128.046 139.157C128.131 139.157 128.216 139.176 128.293 139.214C128.604 139.32 128.892 139.487 129.138 139.707Z" fill="#07122B"/>
<path d="M92.0404 126.661C97.4005 108.852 87.1873 90.0326 69.2286 84.6276C51.2699 79.2227 32.3662 89.2787 27.0061 107.088C21.646 124.898 31.8592 143.717 49.8179 149.122C67.7767 154.527 86.6803 144.471 92.0404 126.661Z" fill="white"/>
<path d="M59.6021 151.402C56.1174 151.446 52.647 150.947 49.3161 149.922C40.8825 147.384 33.7215 141.749 29.2714 134.149C24.8213 126.548 23.4118 117.546 25.3258 108.949C27.2398 100.352 32.3356 92.7981 39.5898 87.8036C46.844 82.8092 55.7193 80.7445 64.4331 82.0241C73.1469 83.3038 81.0538 87.833 86.5658 94.7022C92.0778 101.571 94.7866 110.272 94.1482 119.056C93.5097 127.84 89.5714 136.057 83.124 142.057C76.6767 148.057 68.198 151.395 59.3907 151.402H59.6021ZM59.6021 84.0494C54.1719 84.0364 48.8228 85.3676 44.0322 87.9243C40.2326 89.9349 36.8731 92.6845 34.1509 96.0116C31.4288 99.3387 29.3989 103.176 28.1804 107.299C26.2432 113.549 26.2056 120.234 28.0724 126.506C29.9392 132.778 33.6264 138.355 38.6664 142.529C43.7064 146.703 49.8724 149.286 56.3824 149.951C62.8925 150.616 69.4534 149.334 75.2335 146.265C81.0136 143.197 85.7525 138.482 88.8493 132.717C91.9462 126.952 93.2615 120.398 92.6286 113.884C91.9956 107.371 89.4429 101.193 85.2941 96.1318C81.1453 91.0712 75.5872 87.3564 69.3245 85.4584C66.0842 84.4675 62.7082 83.992 59.3203 84.0494H59.6021Z" fill="#07122B"/>
<path d="M65.9345 122.986C76.2314 112.375 78.2633 97.6449 70.4727 90.0848C62.6822 82.5247 48.0193 84.9977 37.7224 95.6085C27.4254 106.219 25.3936 120.95 33.1842 128.51C40.9747 136.07 55.6375 133.597 65.9345 122.986Z" fill="#EF457E"/>
<path d="M45.7929 136.959C43.0937 136.967 40.4092 136.563 37.8318 135.761H36.9864C36.3027 135.486 35.5952 135.273 34.8728 135.127C32.8167 134.228 30.964 132.921 29.4263 131.287C27.8886 129.652 26.6977 127.723 25.9254 125.616C25.8441 125.508 25.7878 125.383 25.7607 125.25C25.7336 125.117 25.7363 124.98 25.7686 124.848C25.8009 124.717 25.8619 124.594 25.9474 124.489C26.0329 124.384 26.1407 124.299 26.2629 124.24C26.3851 124.182 26.5188 124.151 26.6543 124.151C26.7899 124.15 26.9238 124.18 27.0465 124.237C27.1692 124.295 27.2777 124.379 27.364 124.483C27.4503 124.588 27.5124 124.71 27.5458 124.841C28.9379 128.482 31.6919 131.438 35.225 133.084L37.6204 133.789H38.4658C40.8924 134.606 43.4446 134.988 46.0042 134.916C48.6169 134.887 51.2174 134.556 53.754 133.93C56.2765 133.349 58.6667 132.297 60.7992 130.83L65.0968 128.012C65.2673 127.848 65.4945 127.757 65.7308 127.757C65.9672 127.757 66.1944 127.848 66.3649 128.012C66.4437 128.09 66.5062 128.183 66.5489 128.286C66.5916 128.389 66.6136 128.499 66.6136 128.61C66.6136 128.722 66.5916 128.832 66.5489 128.935C66.5062 129.037 66.4437 129.131 66.3649 129.209L62.0673 132.027C59.9158 133.509 57.5358 134.628 55.0221 135.339C52.3512 136.023 49.6067 136.378 46.8497 136.395L45.7929 136.959Z" fill="#07122B"/>
<path d="M59.883 114.767C53.097 112.464 46.4816 109.686 40.0859 106.453L40.5791 105.678C46.9359 108.87 53.5032 111.624 60.2353 113.921L59.883 114.767Z" fill="#07122B"/>
<path d="M43.8221 120.332L42.9062 119.769C46.3701 114.896 49.3213 109.678 51.7128 104.199V103.353C52.6937 100.758 54.1513 98.3682 56.0103 96.3081L56.7853 97.0831C54.9689 99.1368 53.5798 101.532 52.6991 104.128V104.974C50.2332 110.363 47.2609 115.505 43.8221 120.332Z" fill="#07122B"/>
<path d="M83.8398 122.587C83.6129 122.673 83.3621 122.673 83.1353 122.587C82.6017 121.883 82.0127 121.224 81.374 120.614C79.3308 118.571 77.4286 116.598 81.374 112.864L83.6989 110.68C86.9685 108.37 89.4322 105.093 90.7441 101.31C90.8813 100.779 90.8813 100.221 90.7441 99.6898C90.3193 97.91 89.7539 96.1667 89.0532 94.4763C88.9385 94.2216 88.8792 93.9455 88.8792 93.6661C88.8792 93.3868 88.9385 93.1106 89.0532 92.8559C89.2223 92.4228 89.5497 92.0702 89.9691 91.8696L92.294 90.4606C92.4604 90.3168 92.673 90.2377 92.8929 90.2377C93.1128 90.2377 93.3253 90.3168 93.4917 90.4606C93.6553 90.6311 93.7467 90.8583 93.7467 91.0946C93.7467 91.331 93.6553 91.5582 93.4917 91.7287L91.1668 93.0673C91.9244 94.8709 92.537 96.732 92.9986 98.633C93.1413 99.3777 93.1413 100.143 92.9986 100.887C91.4553 105.319 88.481 109.112 84.5443 111.667C83.7443 112.318 82.991 113.024 82.2898 113.78C79.824 116.246 80.5285 116.951 82.2898 118.994C82.9239 119.628 83.6284 120.332 84.2625 121.107C84.4116 121.285 84.4933 121.509 84.4933 121.741C84.4933 121.973 84.4116 122.198 84.2625 122.375C84.147 122.488 83.9992 122.562 83.8398 122.587Z" fill="#07122B"/>
<path d="M82.3582 109.483C82.1549 109.565 81.9275 109.565 81.7241 109.483C81.3493 108.953 81.1916 108.3 81.2833 107.658C81.375 107.016 81.7093 106.434 82.2173 106.03C82.4156 105.782 82.6537 105.567 82.9218 105.396C83.3013 105.122 83.6343 104.789 83.9082 104.41C83.9635 103.989 83.9635 103.563 83.9082 103.142C83.9635 102.453 84.1551 101.783 84.4718 101.169C84.6423 101.006 84.8695 100.914 85.1059 100.914C85.3422 100.914 85.5694 101.006 85.7399 101.169C85.8713 101.341 85.9425 101.552 85.9425 101.768C85.9425 101.984 85.8713 102.195 85.7399 102.367C85.5401 102.787 85.4206 103.241 85.3877 103.705C85.3129 104.359 85.1469 105 84.8945 105.608C84.5171 106.161 84.0392 106.639 83.4855 107.017L82.8514 107.58C82.4991 107.933 82.3582 108.426 82.4991 108.637C82.5779 108.716 82.6405 108.809 82.6831 108.912C82.7258 109.014 82.7478 109.125 82.7478 109.236C82.7478 109.347 82.7258 109.457 82.6831 109.56C82.6405 109.663 82.5779 109.756 82.4991 109.835L82.3582 109.483Z" fill="#07122B"/>
<path d="M90.6732 119.769C89.5629 119.731 88.5071 119.279 87.7142 118.5L86.8688 117.655C86.4113 117.192 85.9165 116.768 85.3893 116.387C85.3105 116.308 85.2479 116.215 85.2053 116.112C85.1626 116.009 85.1406 115.899 85.1406 115.788C85.1406 115.677 85.1626 115.567 85.2053 115.464C85.2479 115.361 85.3105 115.268 85.3893 115.189C85.4678 115.11 85.5612 115.048 85.6639 115.005C85.7667 114.962 85.8769 114.94 85.9881 114.94C86.0994 114.94 86.2096 114.962 86.3123 115.005C86.4151 115.048 86.5084 115.11 86.587 115.189C87.2814 115.627 87.9202 116.147 88.4892 116.739L89.1937 117.444C89.1937 117.444 90.5323 118.5 91.3777 118.219C92.2231 117.937 92.2936 117.514 92.7163 117.021L96.3094 112.512C96.471 112.369 96.6778 112.288 96.8933 112.283C97.1088 112.278 97.3193 112.349 97.4876 112.483C97.656 112.618 97.7714 112.808 97.8136 113.019C97.8558 113.231 97.8221 113.45 97.7184 113.639L94.0549 118.148C93.4207 118.931 92.559 119.497 91.5891 119.769H90.6732Z" fill="#07122B"/>
<path d="M154.009 111.314C152.822 111.202 151.672 110.836 150.639 110.24C149.606 109.645 148.713 108.834 148.021 107.862L147.95 107.439C147.583 106.944 147.157 106.495 146.682 106.101C145.265 105.129 143.607 104.568 141.891 104.48L134.846 103.565C134.181 103.508 133.546 103.264 133.014 102.86C132.62 102.423 132.352 101.888 132.239 101.31C131.896 99.8239 132.044 98.2664 132.662 96.8717C132.766 96.6739 132.935 96.5174 133.139 96.4278C133.344 96.3382 133.573 96.3208 133.789 96.3785C133.907 96.4159 134.015 96.4786 134.106 96.5622C134.197 96.6458 134.268 96.7482 134.315 96.8624C134.362 96.9765 134.384 97.0996 134.378 97.2229C134.372 97.3462 134.34 97.4668 134.282 97.5762C133.854 98.6245 133.732 99.7726 133.93 100.887C133.898 101.121 133.898 101.358 133.93 101.592C133.93 101.592 134.494 101.592 134.776 101.592L141.821 102.578C143.877 102.654 145.863 103.341 147.527 104.551C148.075 105.013 148.571 105.533 149.007 106.101L149.359 106.524C150.768 108.214 153.093 109.976 155.136 109.13C155.352 109.073 155.581 109.09 155.786 109.18C155.991 109.269 156.159 109.426 156.264 109.623C156.309 109.73 156.332 109.844 156.331 109.959C156.33 110.074 156.306 110.188 156.26 110.294C156.214 110.399 156.147 110.494 156.062 110.573C155.978 110.651 155.879 110.712 155.77 110.751C155.236 111.075 154.633 111.269 154.009 111.314Z" fill="#07122B"/>
<path d="M141.399 100.042C141.217 100.113 141.016 100.113 140.835 100.042C140.486 99.8226 140.106 99.6564 139.708 99.5488C138.859 99.3393 138.096 98.8716 137.524 98.2102C137.245 97.6648 137.1 97.0613 137.1 96.4489C137.1 95.8366 137.245 95.233 137.524 94.6876C137.556 94.3126 137.556 93.9355 137.524 93.5604C137.634 92.4945 137.439 91.4192 136.96 90.4605C136.552 89.4991 136.313 88.4741 136.256 87.4311C136.132 87.0415 136.132 86.623 136.256 86.2334C136.378 86.0754 136.52 85.9334 136.678 85.8107L134.706 83.4857C134.556 83.3082 134.483 83.0786 134.503 82.8474C134.523 82.6162 134.634 82.4023 134.811 82.2528C134.989 82.1033 135.219 82.0305 135.45 82.0503C135.681 82.0701 135.895 82.181 136.044 82.3585L138.228 84.8948C138.422 85.0679 138.564 85.2911 138.638 85.5398C138.713 85.7884 138.717 86.0528 138.651 86.3038C138.593 86.5316 138.478 86.7411 138.318 86.9134C138.158 87.0857 137.958 87.2152 137.735 87.2902C137.786 88.1905 138.001 89.0739 138.369 89.8969C138.898 91.1409 139.116 92.4951 139.003 93.8422C139.035 94.3113 139.035 94.7821 139.003 95.2513C138.651 96.1671 138.51 96.8012 139.003 97.2239C139.352 97.5191 139.761 97.7354 140.201 97.858C140.854 98.0379 141.472 98.3235 142.033 98.7034C142.182 98.8811 142.264 99.1056 142.264 99.3375C142.264 99.5694 142.182 99.7939 142.033 99.9716C141.837 100.07 141.612 100.095 141.399 100.042Z" fill="#07122B"/>
<path d="M154.995 97.1535C154.814 97.2242 154.612 97.2242 154.431 97.1535L150.556 93.6309L148.372 95.8149C148.202 95.9785 147.975 96.0699 147.738 96.0699C147.502 96.0699 147.275 95.9785 147.104 95.8149C147.025 95.7364 146.963 95.643 146.92 95.5403C146.877 95.4375 146.855 95.3273 146.855 95.2161C146.855 95.1048 146.877 94.9946 146.92 94.8919C146.963 94.7891 147.025 94.6958 147.104 94.6172L149.359 92.3628C149.631 92.04 150.003 91.8169 150.415 91.7287C150.717 91.6917 151.023 91.7303 151.306 91.841C151.589 91.9517 151.839 92.131 152.036 92.3628L155.981 95.8149C156.13 95.9926 156.212 96.2171 156.212 96.449C156.212 96.6809 156.13 96.9054 155.981 97.083C155.841 97.1879 155.673 97.2503 155.498 97.2628C155.323 97.2753 155.149 97.2374 154.995 97.1535Z" fill="#07122B"/>
<path d="M164.155 105.678C163.948 105.672 163.748 105.601 163.583 105.474C163.419 105.348 163.298 105.172 163.239 104.974C163.239 104.34 162.182 103.987 161.337 103.846H160.632C159.572 103.858 158.528 103.59 157.603 103.071C157.465 102.92 157.381 102.727 157.366 102.523C157.35 102.319 157.404 102.116 157.517 101.946C157.631 101.775 157.798 101.648 157.992 101.584C158.187 101.52 158.397 101.523 158.589 101.592C159.271 101.919 160.017 102.088 160.773 102.085H161.548C162.306 102.097 163.042 102.34 163.659 102.78C164.275 103.221 164.743 103.838 165 104.551C165.042 104.784 164.992 105.024 164.861 105.221C164.73 105.418 164.527 105.557 164.296 105.608L164.155 105.678Z" fill="#07122B"/>
<path d="M93.6301 163.026C93.4706 163.013 93.3167 162.961 93.1817 162.875C93.0466 162.789 92.9346 162.672 92.8551 162.533C92.7964 162.428 92.7607 162.312 92.7504 162.192C92.7401 162.072 92.7555 161.952 92.7955 161.839C92.8355 161.725 92.8992 161.622 92.9824 161.535C93.0655 161.448 93.1662 161.38 93.2778 161.335C93.771 161.335 93.8414 160.208 93.2778 159.574C92.7606 158.766 92.0608 158.09 91.2347 157.601L87.5007 154.995C86.3367 154.291 85.3295 153.356 84.5417 152.247C83.4792 150.049 83.3026 147.526 84.0486 145.202C84.1142 144.984 84.2589 144.798 84.4544 144.68C84.6498 144.563 84.8819 144.523 85.1053 144.568C85.2182 144.592 85.3248 144.64 85.4187 144.707C85.5125 144.774 85.5916 144.86 85.651 144.959C85.7104 145.058 85.7489 145.168 85.7641 145.283C85.7793 145.397 85.7709 145.513 85.7394 145.625C84.9948 147.478 84.9948 149.548 85.7394 151.402C86.4032 152.31 87.2415 153.076 88.2052 153.656L92.221 156.474C93.3109 157.114 94.2296 158.008 94.8982 159.081C95.2643 159.778 95.3515 160.588 95.1421 161.347C94.9328 162.106 94.4426 162.756 93.771 163.167L93.6301 163.026Z" fill="#07122B"/>
<path d="M95.3225 165.351C95.1452 165.346 94.9733 165.29 94.8275 165.189C94.6817 165.088 94.5684 164.947 94.5012 164.782C94.4341 164.618 94.4161 164.438 94.4493 164.264C94.4825 164.09 94.5656 163.929 94.6884 163.801C95.1661 163.361 95.7137 163.004 96.3088 162.744C97.0838 162.251 97.7178 161.899 97.9292 161.335C98.1406 160.772 97.9292 159.785 97.3656 158.517C96.542 157.044 95.5489 155.673 94.4066 154.431C94.2575 154.253 94.1758 154.029 94.1758 153.797C94.1758 153.565 94.2575 153.341 94.4066 153.163C94.5771 152.999 94.8043 152.908 95.0407 152.908C95.277 152.908 95.5042 152.999 95.6747 153.163C96.8716 154.512 97.9334 155.975 98.8451 157.531C99.2838 158.173 99.5692 158.907 99.6791 159.676C99.7891 160.446 99.7206 161.231 99.4791 161.969C98.9587 162.954 98.1118 163.726 97.0838 164.153L95.8156 164.999C95.7004 165.173 95.5247 165.299 95.3225 165.351Z" fill="#07122B"/>
<path d="M114.132 69.3953C113.924 69.3817 113.727 69.2975 113.573 69.1566C113.419 69.0156 113.318 68.8265 113.287 68.6204C112.956 66.2836 112.956 63.9119 113.287 61.5751C109.882 63.4443 106.036 64.3591 102.154 64.2227C98.2728 64.0863 94.5002 62.9038 91.2352 60.8002C89.0535 59.5411 87.2491 57.7202 86.01 55.5271C84.771 53.3339 84.1425 50.8487 84.19 48.3301C84.5195 45.9227 85.4661 43.6413 86.9376 41.7076C87.0616 41.1247 87.2507 40.5575 87.5013 40.0168C88.1869 38.6957 89.3064 37.6509 90.6716 37.0578C93.1195 33.9152 96.1592 31.2823 99.619 29.3081C103.526 27.6093 107.76 26.7914 112.019 26.9127C116.192 26.4435 120.411 27.2284 124.136 29.1672C126.319 30.5662 127.863 32.768 128.434 35.2965C128.654 36.2006 128.692 37.1392 128.547 38.0582C128.402 38.9773 128.076 39.8584 127.589 40.6509C126.968 41.6149 126.122 42.413 125.123 42.9758C127.166 45.5825 128.364 49.3165 125.898 51.43C124.982 52.1335 123.879 52.5502 122.727 52.6277C119.701 53.1651 116.64 53.4947 113.569 53.6141L113.075 54.3186C111.198 57.1246 108.657 59.4236 105.678 61.0115C104.272 61.6424 102.81 62.1378 101.31 62.491C105.908 62.9479 110.521 61.776 114.344 59.1798C114.493 59.0932 114.664 59.0476 114.837 59.0476C115.01 59.0476 115.18 59.0932 115.33 59.1798C115.501 59.2703 115.633 59.4218 115.698 59.6044C115.763 59.787 115.757 59.9874 115.682 60.1661C115.118 62.8848 115.118 65.6903 115.682 68.409C115.702 68.5255 115.697 68.6449 115.668 68.7595C115.639 68.8741 115.587 68.9813 115.514 69.0742C115.441 69.1672 115.349 69.2438 115.244 69.2991C115.14 69.3544 115.025 69.3872 114.907 69.3953H114.132ZM94.5465 51.7119C93.8251 52.4413 93.2936 53.3366 92.9988 54.3193C92.704 55.3019 92.6549 56.3419 92.8556 57.348C93.2385 58.3621 93.9091 59.2423 94.7852 59.8806C95.6613 60.5189 96.7047 60.8875 97.7873 60.9411C100.233 61.0717 102.668 60.536 104.832 59.3911C107.566 58.1804 109.979 56.3468 111.878 54.0368C107.429 54.0342 102.992 53.5858 98.6327 52.6982C97.0828 52.4164 95.8146 52.1346 94.5465 51.7119ZM87.5013 44.6666C86.8613 45.8208 86.4544 47.0895 86.3036 48.4006C86.1792 50.5005 86.6005 52.5969 87.5264 54.4858C88.4524 56.3747 89.8514 57.9918 91.5875 59.1798C91.3405 58.7609 91.1509 58.3106 91.0239 57.8412C90.7042 56.6184 90.6912 55.3356 90.9862 54.1066C91.2812 52.8777 91.8749 51.7405 92.7147 50.796C91.713 50.4319 90.7651 49.9343 89.8966 49.3165C88.6069 48.1568 87.6982 46.6341 87.2899 44.9484L87.5013 44.6666ZM96.026 49.9505L98.8441 50.6551C103.483 51.5823 108.204 52.0308 112.934 51.9937C113.822 50.3064 114.189 48.3943 113.991 46.4984C111.85 46.914 109.686 47.1964 107.51 47.3438C104.841 47.6795 102.131 47.4637 99.5486 46.7097L96.3782 49.4574C96.2298 49.7422 96.0399 50.0034 95.8146 50.2324L96.026 49.9505ZM115.823 46.1461C116.089 48.1065 115.822 50.1024 115.048 51.9232C117.692 51.7847 120.326 51.5025 122.939 51.0778C123.798 51.0133 124.625 50.7215 125.334 50.2324C126.954 48.8233 125.334 45.8643 124.277 44.2439L123.855 43.6803C123.176 44.0222 122.468 44.3051 121.741 44.5257C119.768 45.4416 117.584 46.0052 115.612 46.4279L115.823 46.1461ZM88.7694 42.2713C88.7529 43.261 88.9452 44.243 89.3336 45.1534C89.7221 46.0639 90.298 46.8822 91.0239 47.5552C91.9052 48.321 92.9044 48.9395 93.9829 49.3869L95.1101 48.2597L97.6464 46.0052C96.1837 45.3474 94.9448 44.2771 94.0813 42.9256C93.2178 41.5741 92.7674 40.0001 92.7852 38.3964H91.8693L91.5875 39.2418C90.3898 40.3691 89.5444 41.4258 88.7694 42.2713ZM101.38 45.5121C103.345 45.7574 105.333 45.7574 107.298 45.5121C109.353 45.3579 111.399 45.0992 113.428 44.7371C112.87 43.533 112.078 42.452 111.098 41.557C110.118 40.6619 108.97 39.9707 107.721 39.5236C105.09 38.5777 102.339 38.0084 99.5486 37.8328C97.9091 37.6631 96.2564 37.6631 94.6169 37.8328C94.5827 38.0428 94.5827 38.2569 94.6169 38.4668C94.6719 39.8013 95.1051 41.0927 95.866 42.1904C96.6269 43.2881 97.6842 44.1469 98.9145 44.6666H99.2668C101.39 43.1362 103.779 42.0134 106.312 41.3554C106.423 41.3643 106.531 41.395 106.631 41.446C106.73 41.4969 106.818 41.5669 106.89 41.652C106.962 41.7372 107.017 41.8357 107.05 41.942C107.084 42.0483 107.097 42.1602 107.087 42.2713C107.118 42.3824 107.127 42.4987 107.112 42.6132C107.096 42.7277 107.058 42.8378 106.999 42.9368C106.939 43.0358 106.86 43.1216 106.766 43.1889C106.672 43.2562 106.566 43.3036 106.453 43.328C104.648 43.8581 102.936 44.6663 101.38 45.7234V45.5121ZM96.3078 36.001H99.6895C102.667 36.2447 105.601 36.86 108.426 37.8328C109.9 38.365 111.252 39.1881 112.402 40.2531C113.551 41.3182 114.475 42.6034 115.119 44.0326C117.073 43.6 119.001 43.059 120.896 42.4122L122.375 41.919C118.476 37.8992 113.631 34.92 108.285 33.2534C105.517 32.1313 102.489 31.8138 99.5486 32.3375C97.7336 32.8609 96.1462 33.977 95.0396 35.5079L96.3078 36.001ZM102.437 30.7876C104.841 30.8066 107.223 31.2355 109.482 32.0557C115.174 33.9359 120.307 37.2047 124.418 41.5667C125.5 41.0387 126.369 40.1573 126.881 39.0684C127.393 37.9794 127.519 36.7482 127.236 35.5783C126.723 33.5124 125.437 31.7221 123.643 30.5762C120.21 28.8308 116.336 28.1442 112.512 28.6035C108.524 28.4722 104.556 29.2177 100.887 30.7876C101.408 30.8248 101.926 30.8954 102.437 30.9989V30.7876Z" fill="#07122B"/>
<path d="M160.632 102.015C160.441 101.96 160.273 101.844 160.153 101.685C160.033 101.527 159.968 101.333 159.968 101.134C159.968 100.935 160.033 100.741 160.153 100.582C160.273 100.423 160.441 100.308 160.632 100.253C163.226 99.3414 165.452 97.6116 166.977 95.3244C168.502 93.0371 169.242 90.3164 169.087 87.5719C168.632 81.8941 166.607 76.4545 163.239 71.8611C162.605 70.8043 161.9 69.818 161.196 68.7612C158.365 64.9465 156 60.8075 154.151 56.432C152.961 53.5887 152.506 50.4921 152.826 47.4268C153.146 44.3615 154.231 41.4257 155.983 38.8895C156.047 38.7723 156.136 38.6707 156.244 38.5916C156.351 38.5126 156.475 38.4581 156.606 38.4319C156.737 38.4058 156.872 38.4086 157.002 38.4402C157.132 38.4718 157.253 38.5314 157.358 38.6149C157.462 38.6983 157.547 38.8036 157.606 38.9233C157.665 39.0431 157.698 39.1743 157.701 39.3079C157.704 39.4414 157.678 39.5741 157.625 39.6966C157.571 39.819 157.492 39.9283 157.392 40.0167C155.845 42.3258 154.894 44.9818 154.624 47.7477C154.353 50.5136 154.772 53.3035 155.842 55.8684C157.537 60.087 159.737 64.0848 162.394 67.7748C163.098 68.8316 163.803 69.818 164.437 70.8747C167.994 75.7617 170.117 81.5443 170.566 87.5719C170.717 90.6622 169.847 93.7163 168.09 96.2629C166.333 98.8095 163.786 100.707 160.844 101.662L160.632 102.015Z" fill="#07122B"/>
<path d="M125.968 93.0673C125.868 93.112 125.76 93.1352 125.651 93.1352C125.541 93.1352 125.433 93.112 125.334 93.0673C125.255 92.9888 125.192 92.8955 125.15 92.7927C125.107 92.6899 125.085 92.5798 125.085 92.4685C125.085 92.3572 125.107 92.247 125.15 92.1443C125.192 92.0415 125.255 91.9482 125.334 91.8697C125.781 91.446 126.132 90.931 126.363 90.3597C126.594 89.7883 126.7 89.174 126.672 88.5584C126.388 85.8147 125.049 83.2887 122.938 81.5132C122.093 80.7382 121.107 79.9632 120.191 79.2587C117.114 77.4461 114.657 74.7444 113.145 71.509C113.102 71.3984 113.082 71.2798 113.087 71.161C113.092 71.0422 113.122 70.9257 113.175 70.8193C113.228 70.713 113.303 70.619 113.395 70.5436C113.487 70.4682 113.594 70.413 113.709 70.3818C113.933 70.3136 114.175 70.334 114.385 70.4389C114.595 70.5437 114.756 70.725 114.836 70.9454C116.155 73.8586 118.314 76.3117 121.036 77.9906C122.022 78.7656 123.009 79.4701 123.925 80.3155C125.178 81.3741 126.204 82.6748 126.943 84.1396C127.681 85.6044 128.116 87.2032 128.222 88.8402C128.251 89.6951 128.095 90.5461 127.767 91.3361C127.439 92.126 126.946 92.8364 126.32 93.4196C126.178 93.3299 126.057 93.2096 125.968 93.0673Z" fill="#07122B"/>
</svg>
