<svg width="34" height="34" viewBox="0 0 34 34" fill="none" xmlns="http://www.w3.org/2000/svg">
<path d="M17.0007 33.864C13.6653 33.864 10.4049 32.8749 7.63159 31.0219C4.85832 29.1689 2.69682 26.5351 1.42042 23.4536C0.144026 20.3721 -0.189938 16.9813 0.460763 13.71C1.11146 10.4387 2.7176 7.43382 5.07608 5.07535C7.43455 2.71687 10.4394 1.11073 13.7107 0.460031C16.982 -0.19067 20.3728 0.143293 23.4543 1.41969C26.5358 2.69609 29.1696 4.85759 31.0226 7.63086C32.8757 10.4041 33.8647 13.6646 33.8647 17C33.8602 21.4712 32.082 25.758 28.9204 28.9197C25.7588 32.0813 21.472 33.8595 17.0007 33.864ZM17.0007 2.34599C14.1024 2.34599 11.2692 3.20544 8.8594 4.81564C6.44956 6.42584 4.57132 8.71448 3.4622 11.3921C2.35307 14.0698 2.06287 17.0163 2.6283 19.8588C3.19373 22.7014 4.58938 25.3125 6.63878 27.3619C8.68818 29.4113 11.2993 30.807 14.1419 31.3724C16.9845 31.9378 19.9309 31.6476 22.6086 30.5385C25.2862 29.4294 27.5749 27.5512 29.1851 25.1413C30.7953 22.7315 31.6547 19.8983 31.6547 17C31.6502 13.1149 30.1049 9.3902 27.3577 6.64302C24.6105 3.89584 20.8858 2.35049 17.0007 2.34599Z" fill="#28A94A"/>
<path d="M16.7793 24.31C15.3022 24.3137 13.864 23.8363 12.6823 22.95C12.4596 22.7589 12.3207 22.4882 12.2952 22.1958C12.2698 21.9034 12.36 21.6127 12.5463 21.386C12.7345 21.1645 13.0023 21.0259 13.2919 21.0005C13.5815 20.975 13.8694 21.0647 14.0933 21.25C14.9373 21.8283 15.9399 22.1306 16.9628 22.1154C17.9858 22.1001 18.9789 21.7681 19.8053 21.165C19.93 21.088 20.0688 21.0365 20.2136 21.0136C20.3584 20.9907 20.5063 20.9968 20.6487 21.0316C20.791 21.0664 20.9251 21.1292 21.043 21.2163C21.1609 21.3034 21.2602 21.4131 21.3353 21.539C21.4812 21.7906 21.5237 22.0888 21.4539 22.3711C21.3841 22.6533 21.2075 22.8974 20.9613 23.052C19.709 23.8467 18.2623 24.2819 16.7793 24.31Z" fill="#28A94A"/>
<path d="M13.1416 16.847C12.8486 16.847 12.5675 16.7306 12.3603 16.5233C12.1531 16.3161 12.0366 16.0351 12.0366 15.742C11.9962 15.3531 11.813 14.9931 11.5226 14.7313C11.2322 14.4696 10.8551 14.3247 10.4641 14.3247C10.0732 14.3247 9.69608 14.4696 9.40567 14.7313C9.11526 14.9931 8.93213 15.3531 8.89164 15.742C8.89164 16.0351 8.77522 16.3161 8.56799 16.5233C8.36077 16.7306 8.0797 16.847 7.78664 16.847C7.49358 16.847 7.21251 16.7306 7.00529 16.5233C6.79806 16.3161 6.68164 16.0351 6.68164 15.742C6.74599 14.7826 7.17248 13.8836 7.87476 13.2268C8.57703 12.5701 9.50263 12.2047 10.4641 12.2047C11.4257 12.2047 12.3512 12.5701 13.0535 13.2268C13.7558 13.8836 14.1823 14.7826 14.2466 15.742C14.2466 16.0351 14.1302 16.3161 13.923 16.5233C13.7158 16.7306 13.4347 16.847 13.1416 16.847Z" fill="#28A94A"/>
<path d="M26.027 16.847C25.7339 16.847 25.4529 16.7306 25.2456 16.5234C25.0384 16.3161 24.922 16.0351 24.922 15.742C24.922 15.3272 24.7572 14.9294 24.4639 14.6361C24.1706 14.3428 23.7728 14.178 23.358 14.178C22.9432 14.178 22.5454 14.3428 22.2521 14.6361C21.9588 14.9294 21.794 15.3272 21.794 15.742C21.794 16.0351 21.6776 16.3161 21.4703 16.5234C21.2631 16.7306 20.982 16.847 20.689 16.847C20.3959 16.847 20.1149 16.7306 19.9076 16.5234C19.7004 16.3161 19.584 16.0351 19.584 15.742C19.584 14.7411 19.9816 13.7812 20.6894 13.0734C21.3971 12.3656 22.3571 11.968 23.358 11.968C24.3589 11.968 25.3188 12.3656 26.0266 13.0734C26.7344 13.7812 27.132 14.7411 27.132 15.742C27.132 16.0351 27.0156 16.3161 26.8083 16.5234C26.6011 16.7306 26.32 16.847 26.027 16.847Z" fill="#28A94A"/>
</svg>
