<svg width="24" height="24" viewBox="0 0 24 24" fill="none" xmlns="http://www.w3.org/2000/svg">
  <path d="M21.6986 22.3506C21.5986 22.3506 21.4886 22.3206 21.3986 22.2706L16.4886 19.4206H7.21859C4.09859 19.4206 1.55859 16.8806 1.55859 13.7606V9.05062C1.55859 5.93062 4.09859 3.39062 7.21859 3.39062H16.6486C19.7686 3.39062 22.3086 5.93062 22.3086 9.05062V21.7506C22.3086 21.9606 22.1986 22.1606 22.0086 22.2706C21.9186 22.3206 21.8086 22.3506 21.7086 22.3506H21.6986ZM7.21859 4.59063C4.75859 4.59063 2.75859 6.59062 2.75859 9.05062V13.7606C2.75859 16.2206 4.75859 18.2206 7.21859 18.2206H16.6586C16.7686 18.2206 16.8686 18.2506 16.9586 18.3006L21.1086 20.7106V9.06063C21.1086 6.60063 19.1086 4.60062 16.6486 4.60062H7.21859V4.59063Z" fill="white"/>
  <path d="M11.6889 13.1487C11.3589 13.1487 11.0889 12.8787 11.0889 12.5487C11.0889 11.6687 11.5289 10.8687 12.2789 10.3987C12.6889 10.1387 12.8789 9.64873 12.7489 9.16873C12.6589 8.80873 12.3489 8.49873 11.9889 8.40873C11.6289 8.31873 11.2889 8.38873 11.0089 8.59873C10.7389 8.80873 10.5789 9.12873 10.5789 9.46873C10.5789 9.80873 10.3089 10.0687 9.97891 10.0687C9.64891 10.0687 9.37891 9.79873 9.37891 9.46873C9.37891 8.74873 9.70891 8.08873 10.2689 7.64873C10.8389 7.20873 11.5689 7.05873 12.2789 7.24873C13.0589 7.44873 13.6989 8.08873 13.8989 8.86873C14.1489 9.85873 13.7589 10.8787 12.9089 11.4187C12.5089 11.6687 12.2789 12.0987 12.2789 12.5587C12.2789 12.8887 12.0089 13.1587 11.6789 13.1587L11.6889 13.1487Z" fill="white"/>
  <path d="M11.7406 15.4311C11.5806 15.4311 11.4306 15.3711 11.3206 15.2611C11.2606 15.2011 11.2206 15.1411 11.1906 15.0611C11.1606 14.9911 11.1406 14.9111 11.1406 14.8311C11.1406 14.6711 11.2006 14.5211 11.3206 14.4111C11.5406 14.1911 11.9406 14.1911 12.1606 14.4111C12.2806 14.5211 12.3406 14.6811 12.3406 14.8311C12.3406 14.9911 12.2806 15.1411 12.1606 15.2611C12.0506 15.3711 11.9006 15.4311 11.7406 15.4311Z" fill="white"/>
</svg>
