<svg width="163" height="161" viewBox="0 0 163 161" fill="none" xmlns="http://www.w3.org/2000/svg">
<path d="M43.8783 101.577C35.6987 108.103 29.9992 117.174 27.7097 127.31C27.7097 128.269 27.3669 129.511 28.1668 130.132C28.9667 130.752 30.4521 130.132 31.4234 129.455C32.9903 128.293 34.4439 126.989 35.7655 125.561C39.523 121.353 42.6584 116.642 45.0781 111.566C46.3857 109.398 47.1861 106.968 47.4206 104.455C47.501 103.416 47.1737 102.385 46.5064 101.577C46.145 101.236 45.664 101.045 45.1638 101.045C44.6636 101.045 44.1827 101.236 43.8212 101.577" fill="white"/>
<path d="M29.138 130.922C28.6264 130.918 28.1281 130.761 27.7096 130.47C27.2781 129.996 26.9861 129.414 26.8653 128.787C26.7445 128.16 26.7994 127.513 27.024 126.915C29.3115 116.731 35.0077 107.606 43.1926 101.013C43.4017 100.787 43.6585 100.609 43.9448 100.492C44.2311 100.375 44.5399 100.322 44.8495 100.336C45.6215 100.338 46.3613 100.642 46.9063 101.182C47.6863 102.092 48.0759 103.266 47.9918 104.455C47.8052 106.987 47.0226 109.441 45.7065 111.622C43.2704 116.784 40.0956 121.573 36.2796 125.843C34.9192 127.291 33.4275 128.613 31.8232 129.793C31.0726 130.442 30.1319 130.837 29.138 130.922ZM44.5067 101.577C36.3853 108.067 30.7597 117.109 28.5666 127.197C28.5666 128.326 28.5666 129.059 28.5666 129.342C28.5666 129.624 30.5091 128.947 30.9091 128.664C32.442 127.525 33.8754 126.26 35.194 124.884C38.9146 120.713 42.0121 116.038 44.3924 111.001C45.6763 108.954 46.4407 106.631 46.6206 104.229C46.6783 103.42 46.4345 102.617 45.935 101.972C45.8093 101.844 45.6582 101.743 45.4911 101.675C45.324 101.607 45.1444 101.573 44.9638 101.577H44.5067Z" fill="#07122B"/>
<path d="M49.934 88.5981C49.0942 88.6104 48.2658 88.7919 47.4995 89.1316C46.7333 89.4712 46.0453 89.9617 45.4777 90.5732C44.2664 91.5347 43.1734 92.6333 42.2211 93.8462C41.2626 95.0669 40.7947 96.5943 40.907 98.135C41.0601 98.9943 41.3291 99.8294 41.7069 100.618C42.2782 101.916 43.1923 103.383 44.6207 103.327C45.1536 103.295 45.6674 103.119 46.1061 102.819C48.5565 101.568 50.5529 99.596 51.8194 97.1757C52.4549 95.9839 52.787 94.6571 52.787 93.3101C52.787 91.9631 52.4549 90.6364 51.8194 89.4446C51.4739 88.7333 50.8578 88.1856 50.1054 87.9209" fill="white"/>
<path d="M44.5636 104.06C43.1352 104.06 41.9926 102.988 41.0213 100.9C40.5456 100.072 40.1989 99.1779 39.9929 98.2479C39.8171 96.5087 40.3289 94.7697 41.4212 93.3947C42.3963 92.1306 43.5289 90.993 44.7921 90.0088C45.9729 88.8261 47.5226 88.0707 49.1913 87.8644C49.202 87.7695 49.2348 87.6783 49.2871 87.5979C49.3393 87.5175 49.4096 87.4501 49.4926 87.401C49.5755 87.3518 49.6688 87.3222 49.7652 87.3145C49.8616 87.3068 49.9585 87.3212 50.0483 87.3565C50.5251 87.4931 50.9662 87.7304 51.3411 88.0519C51.7159 88.3735 52.0156 88.7716 52.2194 89.2188C52.9099 90.5152 53.2708 91.958 53.2708 93.4229C53.2708 94.8878 52.9099 96.3307 52.2194 97.6271C50.824 100.069 48.7127 102.037 46.1633 103.27C45.6259 103.602 45.0213 103.814 44.3922 103.891L44.5636 104.06ZM49.477 89.2752C48.1455 89.4812 46.9203 90.1161 45.9919 91.081C44.8008 92.0037 43.7266 93.0648 42.7924 94.2412C41.9296 95.3317 41.5026 96.6974 41.5926 98.0786C41.7441 98.8586 41.9936 99.6169 42.3354 100.336C43.021 101.86 43.7637 102.65 44.5636 102.65C44.9575 102.558 45.3406 102.426 45.7062 102.255C48.1067 101.12 50.0998 99.289 51.4195 97.0064C51.9955 95.9077 52.2962 94.6884 52.2962 93.4511C52.2962 92.2139 51.9955 90.9946 51.4195 89.8959C51.2367 89.5482 50.984 89.2409 50.6768 88.993C50.583 89.0967 50.4687 89.1802 50.341 89.2384C50.2132 89.2966 50.0747 89.3284 49.934 89.3316L49.477 89.2752Z" fill="#07122B"/>
<path d="M51.0186 89.6701C51.0186 89.6701 38.7921 104.568 52.047 129.793C65.3018 155.018 84.3841 155.47 94.211 141.079C104.038 126.689 114.265 103.27 104.552 89.8958C94.8394 76.5215 51.0186 89.6701 51.0186 89.6701Z" fill="white"/>
<path d="M77.8722 151.576H76.7296C67.2455 151.012 58.2757 143.45 51.4197 130.358C46.0643 121.26 44.0466 110.618 45.7064 100.223C46.3771 96.2808 47.9394 92.5386 50.2771 89.2753C50.2771 89.2753 50.2771 89.2753 50.6199 89.2753C52.4481 88.711 94.955 76.1831 104.953 89.7832C114.951 103.383 103.411 129.285 94.6121 142.152C92.8021 144.943 90.3332 147.259 87.4175 148.901C84.5018 150.542 81.2263 151.46 77.8722 151.576ZM51.4197 90.2911C49.3182 93.3685 47.8971 96.8488 47.249 100.505C45.7188 110.571 47.7357 120.851 52.9623 129.624C59.5897 142.321 68.1596 149.601 77.1295 150.165C80.4349 150.193 83.6907 149.37 86.576 147.777C89.4613 146.184 91.8765 143.875 93.5838 141.08C102.211 128.721 114.037 104.06 103.925 90.2911C94.8978 78.0454 54.7906 89.2753 51.4197 90.2911Z" fill="#07122B"/>
<path d="M31.4805 127.366C32.0819 124.935 32.8845 122.557 33.88 120.256C35.7708 116.285 38.0477 112.505 40.6789 108.97" fill="white"/>
<path d="M31.4804 128.044C31.3101 127.981 31.1664 127.863 31.073 127.71C30.9795 127.556 30.9419 127.375 30.9662 127.197C31.6269 124.733 32.4671 122.319 33.48 119.974C35.357 115.984 37.655 112.201 40.336 108.688C40.4585 108.577 40.615 108.51 40.7804 108.498C40.9459 108.485 41.1108 108.528 41.2489 108.619C41.387 108.71 41.4903 108.844 41.5423 108.999C41.5942 109.155 41.592 109.323 41.5358 109.478C38.9211 112.913 36.6625 116.6 34.7941 120.482C33.8208 122.753 33.0188 125.092 32.3945 127.479C32.3745 127.577 32.3345 127.67 32.277 127.751C32.2195 127.833 32.1458 127.903 32.0603 127.956C31.9747 128.008 31.8792 128.043 31.7795 128.059C31.6798 128.074 31.578 128.069 31.4804 128.044Z" fill="#07122B"/>
<path d="M109.123 93.3945C106.836 93.6693 104.665 94.5464 102.839 95.934C101.057 97.3377 99.8738 99.3521 99.5252 101.577C99.4036 103.173 99.7616 104.768 100.554 106.164C101.347 107.559 102.539 108.692 103.982 109.421C105.441 110.128 107.062 110.448 108.685 110.349C110.308 110.25 111.876 109.736 113.237 108.857C114.672 107.988 115.722 106.616 116.177 105.015C116.633 103.414 116.46 101.703 115.694 100.223C114.635 97.4695 112.606 95.1855 109.98 93.7896" fill="white"/>
<path d="M107.98 111.171C106.478 111.175 104.995 110.847 103.638 110.211C102.052 109.411 100.744 108.162 99.8788 106.625C99.0139 105.087 98.6321 103.33 98.7818 101.577C98.9234 100.354 99.3095 99.17 99.9175 98.0948C100.526 97.0196 101.343 96.0742 102.324 95.3134C104.26 93.8341 106.574 92.9158 109.009 92.6611C109.095 92.6359 109.186 92.6294 109.275 92.642C109.365 92.6547 109.45 92.6862 109.526 92.7343C109.602 92.7825 109.666 92.8463 109.715 92.9213C109.764 92.9963 109.796 93.0807 109.808 93.169H110.323C113.083 94.6653 115.211 97.0872 116.322 99.9972C116.809 101.19 117.011 102.477 116.912 103.76C116.813 105.042 116.415 106.284 115.75 107.39C115.187 108.216 114.445 108.91 113.579 109.421C111.932 110.545 109.982 111.154 107.98 111.171ZM109.294 94.2412C107.113 94.4745 105.038 95.2943 103.295 96.6113C101.619 97.917 100.531 99.823 100.267 101.916C100.158 103.372 100.484 104.827 101.205 106.101C101.927 107.375 103.011 108.412 104.324 109.083C105.666 109.743 107.161 110.038 108.657 109.939C110.153 109.84 111.596 109.349 112.836 108.518C113.559 108.111 114.183 107.552 114.665 106.882C115.192 105.96 115.498 104.931 115.557 103.874C115.617 102.817 115.429 101.761 115.007 100.787C114.054 98.1802 112.163 96.0108 109.694 94.6926C109.626 94.6794 109.561 94.6525 109.503 94.6137C109.446 94.5749 109.397 94.525 109.359 94.4669C109.322 94.4089 109.297 94.3439 109.286 94.276C109.275 94.2081 109.277 94.1386 109.294 94.0719V94.2412Z" fill="#07122B"/>
<path d="M114.266 110.55C113.809 109.873 112.323 109.139 111.581 109.534C111.198 109.731 110.866 110.011 110.608 110.353C110.351 110.696 110.176 111.091 110.095 111.509C108.267 133.743 115.808 139.161 118.436 143.563C118.694 143.915 119.041 144.194 119.442 144.372C119.843 144.55 120.284 144.621 120.722 144.578C121.293 144.578 121.522 143.788 121.693 143.28C122.579 138.979 122.579 134.546 121.693 130.245C121.44 126.684 120.867 123.152 119.979 119.692C118.966 116.182 116.989 113.017 114.266 110.55Z" fill="white"/>
<path d="M120.379 145.312C119.867 145.297 119.367 145.161 118.92 144.916C118.472 144.67 118.091 144.322 117.808 143.901C117.408 143.224 116.837 142.49 116.208 141.587C113.066 137.355 107.81 130.301 109.409 111.453C109.481 110.914 109.686 110.401 110.004 109.959C110.323 109.516 110.746 109.157 111.238 108.913C112.38 108.293 114.151 109.252 114.78 110.098C117.525 112.639 119.502 115.882 120.493 119.466C121.517 122.947 122.187 126.52 122.493 130.132C123.404 134.525 123.404 139.056 122.493 143.45C122.418 143.85 122.243 144.224 121.984 144.54C121.724 144.855 121.388 145.102 121.007 145.256L120.379 145.312ZM112.095 110.098C111.809 110.226 111.561 110.422 111.371 110.668C111.182 110.914 111.057 111.204 111.009 111.509C109.295 129.793 114.266 136.396 117.351 141.08C117.985 141.843 118.558 142.655 119.065 143.506C119.235 143.73 119.462 143.906 119.723 144.015C119.984 144.124 120.269 144.163 120.55 144.127C120.55 144.127 120.55 144.127 121.007 143.337C121.893 139.131 121.893 134.789 121.007 130.583C120.698 127.05 120.048 123.554 119.065 120.143C118.098 116.793 116.221 113.768 113.637 111.396C113.31 110.785 112.758 110.321 112.095 110.098Z" fill="#07122B"/>
<path d="M112.381 116.588C112.458 123.6 114.242 130.49 117.58 136.678L112.381 116.588Z" fill="white"/>
<path d="M117.579 137.355C117.453 137.355 117.33 137.325 117.22 137.265C117.11 137.206 117.017 137.121 116.95 137.016C113.579 130.734 111.759 123.754 111.637 116.644C111.637 116.45 111.715 116.263 111.854 116.126C111.994 115.988 112.182 115.911 112.379 115.911C112.561 115.911 112.736 115.982 112.864 116.109C112.993 116.236 113.065 116.408 113.065 116.588C113.177 123.48 114.939 130.248 118.207 136.339C118.291 136.505 118.308 136.696 118.255 136.874C118.202 137.052 118.083 137.204 117.921 137.299L117.579 137.355Z" fill="#07122B"/>
<path d="M77.8719 103.327C96.0783 103.327 110.838 88.6475 110.838 70.5398C110.838 52.4321 96.0783 37.7529 77.8719 37.7529C59.6655 37.7529 44.9062 52.4321 44.9062 70.5398C44.9062 88.6475 59.6655 103.327 77.8719 103.327Z" fill="white"/>
<path d="M77.873 104.06C71.149 104.116 64.5598 102.198 58.9414 98.5486C53.3231 94.8994 48.9289 89.684 46.3164 83.5641C43.704 77.4441 42.991 70.6956 44.268 64.1748C45.5451 57.6539 48.7545 51.6548 53.4891 46.9386C58.2237 42.2224 64.27 39.0017 70.8608 37.6853C77.4516 36.3689 84.2897 37.016 90.5076 39.5446C96.7254 42.0732 102.043 46.3692 105.784 51.8876C109.526 57.406 111.524 63.8979 111.524 70.5396C111.555 79.3901 108.028 87.8909 101.719 94.1756C95.4096 100.46 86.8334 104.015 77.873 104.06ZM77.873 38.4299C71.4315 38.374 65.1185 40.2095 59.735 43.7036C54.3515 47.1977 50.1404 52.1928 47.6361 58.055C45.1317 63.9171 44.447 70.382 45.6689 76.6291C46.8908 82.8763 49.9642 88.624 54.4991 93.1429C59.0339 97.6618 64.8257 100.748 71.1394 102.01C77.4531 103.272 84.0041 102.653 89.9609 100.231C95.9178 97.8093 101.012 93.6941 104.597 88.4078C108.182 83.1214 110.096 76.9023 110.096 70.5396C110.126 62.0632 106.75 53.9213 100.709 47.9012C94.6675 41.881 86.4546 38.4747 77.873 38.4299Z" fill="#07122B"/>
<path d="M96.2414 91.7481C101.119 82.4501 94.6481 69.5776 81.7886 62.9965C68.9291 56.4153 54.5505 58.6178 49.6731 67.9157C44.7957 77.2137 51.2665 90.0863 64.126 96.6674C76.9854 103.249 91.364 101.046 96.2414 91.7481Z" fill="#EF457E"/>
<path d="M94.6696 99.3201C94.5023 99.3721 94.3228 99.3721 94.1554 99.3201C94.0228 99.1835 93.9487 99.0015 93.9487 98.8122C93.9487 98.6229 94.0228 98.4409 94.1554 98.3043C97.2431 95.9556 99.2906 92.5176 99.8687 88.7109C99.7845 87.923 99.7845 87.1286 99.8687 86.3407V85.4943C99.8922 83.0082 99.526 80.5336 98.7832 78.1581C98.0029 75.7352 96.9489 73.4068 95.6409 71.217C94.3735 69.0665 92.7292 67.1557 90.7846 65.5738L86.9567 62.3572C86.8358 62.2149 86.7695 62.0351 86.7695 61.8493C86.7695 61.6636 86.8358 61.4837 86.9567 61.3414C87.095 61.2104 87.2793 61.1372 87.4709 61.1372C87.6626 61.1372 87.8468 61.2104 87.9851 61.3414L91.813 64.5581C93.8635 66.111 95.6066 68.0241 96.9549 70.2012C98.3533 72.4667 99.4662 74.8924 100.269 77.4245C101.063 79.9445 101.449 82.5729 101.411 85.2121C101.44 85.4936 101.44 85.7771 101.411 86.0586C101.354 86.7911 101.354 87.5269 101.411 88.2594C100.8 92.5447 98.5 96.4183 95.0124 99.0379C94.937 99.1702 94.815 99.2706 94.6696 99.3201Z" fill="#07122B"/>
<path d="M87.6424 141.531H87.1853C87.0526 141.394 86.9785 141.212 86.9785 141.023C86.9785 140.834 87.0526 140.652 87.1853 140.515C92.0145 134.81 95.8736 128.368 98.6119 121.441C98.6433 121.354 98.6924 121.275 98.7562 121.207C98.82 121.14 98.897 121.086 98.9826 121.049C99.0682 121.012 99.1606 120.993 99.254 120.992C99.3475 120.992 99.44 121.01 99.526 121.046C99.6197 121.069 99.7068 121.113 99.7806 121.174C99.8544 121.236 99.9129 121.313 99.9516 121.4C99.9902 121.488 100.008 121.583 100.004 121.678C99.9991 121.773 99.9726 121.866 99.9259 121.949C97.2036 129.004 93.345 135.579 88.4993 141.418C88.3913 141.531 88.2472 141.604 88.0911 141.625C87.9351 141.645 87.7766 141.612 87.6424 141.531Z" fill="#07122B"/>
<path d="M78.844 91.6453C76.5587 88.598 73.1308 84.3092 69.6457 80.359C66.1605 76.4087 62.7326 71.8942 60.4473 69.0726L61.1329 68.5647C63.4182 71.612 66.8461 75.9008 70.3313 79.8511C73.8164 83.8013 77.2443 88.2594 79.5296 91.1374L78.844 91.6453Z" fill="#07122B"/>
<path d="M57.1328 85.2684V84.6477C61.6074 83.1609 65.8701 81.1126 69.8163 78.5531L71.416 77.6501C73.1871 76.5779 75.0154 75.7315 76.8436 74.8286L80.6715 72.9663L81.0715 73.7564L77.0722 75.675C75.2439 76.5215 73.4157 77.4244 71.6446 78.4402L70.102 79.3431C66.0529 81.8572 61.6943 83.8485 57.1328 85.2684Z" fill="#07122B"/>
<path d="M84.8421 31.1503H84.4993C84.3277 31.0652 84.1961 30.9177 84.1322 30.7388C84.0683 30.56 84.077 30.3636 84.1565 30.1909C85.419 27.6175 87.2786 25.3746 89.5841 23.6449C90.8262 22.5897 92.3571 21.922 93.9833 21.7262C94.6421 21.584 95.3242 21.584 95.983 21.7262L96.6686 21.2183C98.3989 20.2039 100.37 19.6588 102.382 19.6382C104.664 19.5145 106.952 19.7044 109.181 20.2025C109.363 20.2399 109.522 20.3472 109.624 20.5006C109.725 20.6541 109.761 20.8412 109.723 21.0208C109.686 21.2004 109.577 21.3578 109.422 21.4583C109.266 21.5588 109.077 21.5943 108.895 21.5569C106.794 21.1079 104.642 20.9371 102.496 21.049C100.746 21.0499 99.0286 21.5178 97.5256 22.4034C97.9923 22.7388 98.3657 23.1853 98.6111 23.7013C98.8381 24.1579 98.9561 24.6598 98.9561 25.1685C98.9561 25.6772 98.8381 26.1791 98.6111 26.6357C98.4216 27.0321 98.143 27.3806 97.7964 27.6544C97.4499 27.9282 97.0446 28.1203 96.6114 28.2158C96.339 28.2925 96.0525 28.3076 95.7733 28.2599C95.4941 28.2122 95.2294 28.103 94.9988 27.9403C94.7682 27.7776 94.5777 27.5657 94.4415 27.3203C94.3053 27.0749 94.2268 26.8024 94.2119 26.5229C94.0113 25.2369 94.318 23.9239 95.0689 22.8548H94.269C92.9168 23.0438 91.6478 23.6117 90.6125 24.4913C88.4832 26.1535 86.7967 28.3036 85.6991 30.7553C85.6349 30.9172 85.5101 31.0485 85.3506 31.1221C85.191 31.1956 85.009 31.2057 84.8421 31.1503ZM96.2687 23.5884C95.917 23.9872 95.6539 24.4544 95.4965 24.9599C95.339 25.4653 95.2907 25.9978 95.3545 26.5229C95.3134 26.6897 95.3134 26.8639 95.3545 27.0308C95.5205 27.0912 95.7028 27.0912 95.8687 27.0308C96.133 27.0327 96.3923 26.9592 96.6153 26.8191C96.8383 26.6789 97.0155 26.4781 97.1256 26.2407C97.2527 25.9762 97.3186 25.687 97.3186 25.3942C97.3186 25.1014 97.2527 24.8123 97.1256 24.5478C96.9362 24.1722 96.6627 23.8441 96.3258 23.5884H96.2687Z" fill="#07122B"/>
<path d="M50.4482 31.4324C50.3095 31.4288 50.1752 31.3837 50.0629 31.3031C49.9507 31.2225 49.8659 31.1102 49.8197 30.981C48.6787 28.3626 47.302 25.8507 45.7062 23.4755C45.5896 23.3422 45.5254 23.172 45.5254 22.9959C45.5254 22.8197 45.5896 22.6495 45.7062 22.5162C45.8502 22.3968 46.0323 22.3313 46.2203 22.3313C46.4084 22.3313 46.5905 22.3968 46.7345 22.5162C48.5231 25.0118 50.0905 27.6551 51.4194 30.4166C51.4812 30.5973 51.4747 30.7939 51.4012 30.9702C51.3277 31.1466 51.1922 31.2907 51.0195 31.376L50.4482 31.4324Z" fill="#07122B"/>
<path d="M115.465 55.4159C115.298 55.4718 115.118 55.4718 114.951 55.4159C114.818 55.2793 114.744 55.0973 114.744 54.908C114.744 54.7187 114.818 54.5367 114.951 54.4001C117.941 51.4282 121.632 49.237 125.692 48.0233C125.873 47.9875 126.061 48.0197 126.22 48.1136C126.378 48.2075 126.496 48.3564 126.549 48.5312C126.575 48.6164 126.584 48.7059 126.576 48.7947C126.567 48.8834 126.541 48.9695 126.498 49.0482C126.456 49.1268 126.398 49.1964 126.328 49.2529C126.259 49.3095 126.178 49.3519 126.092 49.3777C122.369 50.4459 118.959 52.3811 116.151 55.0209L115.465 55.4159Z" fill="#07122B"/>
<path d="M59.1328 122.852V116.419C59.1328 116.024 59.1328 115.911 59.647 115.968C60.1417 115.937 60.6378 115.937 61.1325 115.968C61.1325 115.968 61.5324 115.968 61.8752 116.306C62.5096 116.105 63.1901 116.094 63.8307 116.275C64.4714 116.456 65.0434 116.82 65.4746 117.322C66.0839 116.922 66.7995 116.708 67.5313 116.708C68.2632 116.708 68.9788 116.922 69.5881 117.322C70.1428 117.537 70.6137 117.921 70.9322 118.418C71.2507 118.915 71.4003 119.5 71.3592 120.087V123.586C71.3592 124.037 71.3592 124.207 70.845 124.15H69.0168V120.2C69.0231 119.84 68.9003 119.49 68.6703 119.211C68.4403 118.932 68.1178 118.743 67.7599 118.676C67.595 118.667 67.43 118.694 67.2765 118.754C67.1229 118.814 66.9843 118.906 66.8703 119.024C66.7562 119.142 66.6695 119.283 66.6159 119.437C66.5624 119.592 66.5433 119.755 66.5601 119.918C66.5601 121.159 66.5601 122.344 66.5601 123.586H64.1034V119.805C64.0906 119.474 63.9556 119.16 63.7241 118.921C63.4925 118.681 63.1803 118.534 62.8464 118.507C62.6888 118.471 62.5247 118.472 62.3676 118.51C62.2105 118.549 62.0648 118.623 61.9423 118.728C61.8199 118.832 61.7241 118.964 61.6628 119.112C61.6015 119.26 61.5764 119.42 61.5895 119.579V123.021C61.6163 123.133 61.6163 123.249 61.5895 123.36L59.1328 122.852Z" fill="#0099F6"/>
<path d="M75.3586 117.773C76.041 117.43 76.8284 117.349 77.5676 117.547C78.3068 117.745 78.9449 118.208 79.3579 118.845C79.9189 119.587 80.222 120.487 80.222 121.413C80.222 122.338 79.9189 123.239 79.3579 123.981C78.7827 124.529 78.0147 124.835 77.2154 124.835C76.4161 124.835 75.648 124.529 75.0729 123.981V126.689H72.959C72.959 126.689 72.959 126.294 72.959 126.125V119.071C72.9875 118.658 72.9875 118.243 72.959 117.829C72.959 117.322 72.959 117.209 73.5874 117.265C74.2159 117.322 74.3873 117.265 74.7872 117.265L75.3586 117.773ZM74.9015 120.99C74.8963 121.438 75.0552 121.874 75.3491 122.216C75.6431 122.558 76.0522 122.784 76.5012 122.852C77.3582 122.852 77.9867 122.231 77.9867 121.215C78.0046 120.778 77.8562 120.351 77.5707 120.016C77.2851 119.682 76.8832 119.466 76.4441 119.41C76.2343 119.401 76.025 119.436 75.83 119.514C75.6351 119.591 75.4589 119.708 75.3132 119.857C75.1674 120.006 75.0553 120.185 74.9844 120.38C74.9134 120.575 74.8852 120.783 74.9015 120.99Z" fill="#0099F6"/>
<path d="M78.7293 116.927L77.4724 116.588C77.4724 116.588 77.4724 116.25 77.4724 116.08C77.4724 115.911 77.4724 115.798 77.4724 115.629C77.4415 115.291 77.4415 114.951 77.4724 114.613H78.5579H79.9862C79.9579 114.857 79.9579 115.103 79.9862 115.347V116.419C79.9585 116.549 79.9585 116.684 79.9862 116.814L78.7293 116.927Z" fill="#07122B"/>
<path d="M82.2712 122.965C83.5282 122.965 83.2996 122.965 83.2996 124.319C83.2996 125.674 83.2996 125.222 82.3855 125.109C80.7287 125.109 80.6715 125.109 80.9001 123.191C80.9001 123.191 80.9001 122.852 81.3 122.852L82.2712 122.965Z" fill="#07122B"/>
</svg>
