<svg xmlns="http://www.w3.org/2000/svg" width="569.19" height="94.35" viewBox="0 0 569.19 94.35">
  <g id="Layer_2" data-name="Layer 2">
    <g id="Layer_1-2" data-name="Layer 1">
      <g>
        <g>
          <path d="M350.76.18h20V17.41h-20Z" style="fill: #4490cd"/>
          <path d="M378.45,59h20V76.25h-20Z" style="fill: #4490cd"/>
          <path d="M154.34,46V76.11H135.73V72.45a20.2,20.2,0,0,1-13.38,4.84c-11.17,0-19.82-6.72-19.82-16.3,0-10,9.65-17,22.23-17a30.34,30.34,0,0,1,11,2.27V46c0-4.44-3.93-7-10.67-7a27.51,27.51,0,0,0-12.37,2.86l-6.14-11.95c7.24-3.56,15-6,23.74-6C143.47,23.84,154.34,32,154.34,46ZM135.73,57.43a18.49,18.49,0,0,0-8.25-1.87c-3.72,0-6.54,2.07-6.54,4.94,0,2.66,2.61,4.54,6.14,4.54C135.53,65,135.73,57.43,135.73,57.43Z" style="fill: #0c152b"/>
          <path d="M215.5,43.59V76.08H197V48c0-4.94-3.22-8.4-7.85-8.4-4.32,0-7.44,3.26-7.44,7.81V76.08H162.28V23.87H181.7v6.29c3.22-3.95,8.45-6.32,14.69-6.32C207.55,23.84,215.5,32,215.5,43.59Z" style="fill: #0c152b"/>
          <path d="M222.11,90.13,226,77.65c2.92,1.71,5.94,2.92,7.35,2.92a7.42,7.42,0,0,0,5.93-2.92l.3-.7-21-52.72h19.82l10.66,32.09,10.06-32.09h19.52L259,76.65c-4.22,11.16-11.87,17.7-20.72,17.7A35.27,35.27,0,0,1,222.11,90.13Z" style="fill: #0c152b"/>
          <path d="M351,24.07H370.4v52H351Z" style="fill: #0c152b"/>
          <path d="M413.76,76.08l-35.92-52h20.53l7.44,10.76,7.45-10.76h20L415.77,49.22l18.52,26.86Z" style="fill: #0c152b"/>
          <path d="M473.46,59l10.39,10.5c-4.51,4.61-13.14,7.84-20.89,7.84-16.18,0-28-11.08-28-26.68s11.57-26.38,27.27-26.38c16.28,0,26.38,11.47,26.38,31h-35.9c1.28,4.81,4.71,8,9.52,8A18.73,18.73,0,0,0,473.46,59ZM453,45.32h17.46c-1.18-4.22-4.12-7-8.24-7C457.66,38.35,454.43,41.1,453,45.32Z" style="fill: #0c152b"/>
          <path d="M496.06,0h19.42V76.08H496.06Z" style="fill: #0c152b"/>
          <path d="M523,69.64l7.06-11.48c4.91,3.44,12.17,6,17.56,6,3.53,0,4.81-.88,4.81-2.55s-2.94-2.75-7.65-3.73c-9.22-2-19.52-4.22-19.52-16.18,0-9.81,7.94-17.46,21.19-17.46a39.25,39.25,0,0,1,21.18,6.67l-6.37,11.57c-4.22-2.75-10-5.39-14.81-5.39-2.65,0-4.42,1.37-4.42,2.84,0,1.67,2.26,2,7.36,3.14,9.22,2.06,19.81,5.1,19.81,17.07,0,10.49-8.34,17.16-22.07,17.16C538.29,77.29,529.17,74.45,523,69.64Z" style="fill: #0c152b"/>
          <path d="M69,24.23c-18.07,0-19.22,8.46-19.22,8.54,0-.11-3.47-8.54-18.85-8.54-9.62,0-11.54,3.82-11.51,3.84V23.86H0V76H19.42s0-29.46,0-29.18c0-5.66,5.08-8.55,9.8-8.55,4.88,0,9.68,3.27,9.68,8.24C39,46.74,38.72,76,38.72,76h18.9s.23-27.33.23-27.92a9.68,9.68,0,0,1,9.61-10,10,10,0,0,1,10,10c0,.59-.15,27.92-.15,27.92H95.82V43.83C95.82,32.36,85.15,24.23,69,24.23Z" style="fill: #0c152b"/>
        </g>
        <path d="M344.32,50.41c0,16.68-11.74,27.9-25.69,27.9-6.82,0-10.26-1.93-14.35-5.6l0,21.64H285.49V24.09h18.85v4.2c4.09-3.68,7.47-5.77,14.29-5.77C332.58,22.52,344.32,33.84,344.32,50.41Zm-17.09,0c0-7.67-5.09-13-12.06-13-6.48,0-12.27,5.29-12.27,13s5.79,13,12.27,13C322.14,63.37,327.23,58.19,327.23,50.41Z" style="fill: #0c152b"/>
      </g>
    </g>
  </g>
</svg>
