<svg viewBox="0 0 215 100" fill="none" xmlns="http://www.w3.org/2000/svg">
<path d="M91.26 4.56999L98.14 11.45C98.3749 11.6841 98.5613 11.9623 98.6885 12.2686C98.8157 12.5749 98.8812 12.9033 98.8812 13.235C98.8812 13.5667 98.8157 13.8951 98.6885 14.2014C98.5613 14.5077 98.3749 14.7859 98.14 15.02L14 99.12C13.7659 99.3549 13.4877 99.5413 13.1814 99.6685C12.8751 99.7957 12.5467 99.8612 12.215 99.8612C11.8833 99.8612 11.5549 99.7957 11.2486 99.6685C10.9423 99.5413 10.6641 99.3549 10.43 99.12L3.59001 92.24C1.29334 89.9411 0.00326538 86.8245 0.00326538 83.575C0.00326538 80.3255 1.29334 77.2089 3.59001 74.91L73.93 4.56999C76.2289 2.27332 79.3455 0.983246 82.595 0.983246C85.8445 0.983246 88.9612 2.27332 91.26 4.56999Z" fill="url(#paint0_linear)"/>
<path d="M148.67 4.40999L155.54 11.28C156.011 11.7524 156.276 12.3926 156.276 13.06C156.276 13.7274 156.011 14.3676 155.54 14.84L71.54 98.84C71.0676 99.3114 70.4274 99.5762 69.76 99.5762C69.0926 99.5762 68.4525 99.3114 67.98 98.84L61.1 92C59.9634 90.8634 59.0618 89.5141 58.4467 88.029C57.8316 86.544 57.515 84.9524 57.515 83.345C57.515 81.7376 57.8316 80.146 58.4467 78.6609C59.0618 77.1759 59.9634 75.8266 61.1 74.69L131.36 4.40999C132.497 3.2734 133.846 2.3718 135.331 1.75668C136.816 1.14156 138.408 0.824966 140.015 0.824966C141.622 0.824966 143.214 1.14156 144.699 1.75668C146.184 2.3718 147.533 3.2734 148.67 4.40999V4.40999Z" fill="url(#paint1_linear)"/>
<path d="M207.06 4.40999L213.93 11.28C214.401 11.7524 214.666 12.3926 214.666 13.06C214.666 13.7274 214.401 14.3676 213.93 14.84L129.93 98.84C129.458 99.3114 128.817 99.5762 128.15 99.5762C127.483 99.5762 126.842 99.3114 126.37 98.84L119.49 92C118.353 90.8634 117.452 89.5141 116.837 88.029C116.222 86.544 115.905 84.9524 115.905 83.345C115.905 81.7376 116.222 80.146 116.837 78.6609C117.452 77.1759 118.353 75.8266 119.49 74.69L189.75 4.40999C190.887 3.2734 192.236 2.3718 193.721 1.75668C195.206 1.14156 196.798 0.824966 198.405 0.824966C200.012 0.824966 201.604 1.14156 203.089 1.75668C204.574 2.3718 205.923 3.2734 207.06 4.40999V4.40999Z" fill="url(#paint2_linear)"/>
<defs>
<linearGradient id="paint0_linear" x1="98.88" y1="50.42" x2="6.16079e-06" y2="50.42" gradientUnits="userSpaceOnUse">
<stop stop-color="#34C2EB"/>
<stop offset="1" stop-color="#1A7FC3"/>
</linearGradient>
<linearGradient id="paint1_linear" x1="15491.9" y1="4959.12" x2="5738.26" y2="4959.12" gradientUnits="userSpaceOnUse">
<stop stop-color="#34C2EB"/>
<stop offset="1" stop-color="#1A7FC3"/>
</linearGradient>
<linearGradient id="paint2_linear" x1="21317" y1="4959.12" x2="11563.3" y2="4959.12" gradientUnits="userSpaceOnUse">
<stop stop-color="#34C2EB"/>
<stop offset="1" stop-color="#1A7FC3"/>
</linearGradient>
</defs>
</svg>
