<svg width="569" height="94" viewBox="0 0 569 94" fill="none" xmlns="http://www.w3.org/2000/svg">
<g clip-path="url(#clip0)">
<path d="M350.643 0.179993H370.636V17.3461H350.643V0.179993Z" fill="#4490CD"/>
<path d="M378.324 58.7811H398.317V75.9671H378.324V58.7811Z" fill="#4490CD"/>
<path d="M154.288 45.8294V75.8277H135.685V72.1812C131.961 75.3521 127.207 77.0659 122.309 77.0033C111.143 77.0033 102.496 70.3082 102.496 60.7638C102.496 50.8009 112.143 43.8268 124.718 43.8268C128.493 43.892 132.222 44.659 135.715 46.0884V45.8294C135.715 41.4058 131.786 38.8553 125.048 38.8553C120.76 38.8312 116.525 39.807 112.682 41.7047L106.544 29.799C113.782 26.2523 121.539 23.8213 130.277 23.8213C143.422 23.7516 154.288 31.8813 154.288 45.8294ZM135.685 57.217C133.117 55.9691 130.294 55.3314 127.437 55.3539C123.719 55.3539 120.9 57.4162 120.9 60.2756C120.9 62.9257 123.509 64.7987 127.038 64.7987C135.485 64.7589 135.685 57.217 135.685 57.217Z" fill="#07122B"/>
<path d="M215.428 43.4283V75.7978H196.934V47.822C196.934 42.9003 193.715 39.4531 189.087 39.4531C184.768 39.4531 181.649 42.701 181.649 47.2342V75.7978H162.226V23.7815H181.639V30.0481C184.858 26.1128 190.087 23.7516 196.324 23.7516C207.481 23.7516 215.428 31.8813 215.428 43.4283Z" fill="#07122B"/>
<path d="M222.036 89.7957L225.925 77.362C228.844 79.0656 231.863 80.2711 233.272 80.2711C234.419 80.2758 235.551 80.0155 236.579 79.5108C237.608 79.006 238.505 78.2705 239.2 77.362L239.5 76.6646L218.507 24.1401H238.32L248.977 56.1111L259.033 24.1401H278.547L258.914 76.3657C254.695 87.4843 247.047 94 238.2 94C232.552 93.9094 227.008 92.4675 222.036 89.7957Z" fill="#07122B"/>
<path d="M350.883 23.9807H370.276V75.7878H350.883V23.9807Z" fill="#07122B"/>
<path d="M413.622 75.7978L377.714 23.9907H398.237L405.675 34.7107L413.122 23.9907H433.115L415.631 49.0374L434.145 75.7978H413.622Z" fill="#07122B"/>
<path d="M473.302 58.7811L483.689 69.2422C479.18 73.8351 470.553 77.0531 462.805 77.0531C446.631 77.0531 434.815 66.0142 434.815 50.4721C434.815 34.9299 446.381 24.1899 462.076 24.1899C478.35 24.1899 488.447 35.6174 488.447 55.0749H452.559C453.838 59.8671 457.267 63.0453 462.076 63.0453C466.186 62.8914 470.131 61.3929 473.302 58.7811ZM452.849 45.1519H470.303C469.123 40.9475 466.184 38.1779 462.066 38.1779C457.507 38.2077 454.278 40.9475 452.849 45.1519Z" fill="#07122B"/>
<path d="M495.894 0H515.308V75.7978H495.894V0Z" fill="#07122B"/>
<path d="M522.825 69.3817L529.883 57.9443C534.791 61.3715 542.049 63.922 547.437 63.922C550.966 63.922 552.246 63.0453 552.246 61.3815C552.246 59.7177 549.307 58.6417 544.598 57.6653C535.381 55.6727 525.085 53.4609 525.085 41.5453C525.085 31.7717 533.022 24.1501 546.268 24.1501C553.82 24.2878 561.172 26.5953 567.44 30.7953L561.073 42.3224C556.854 39.5826 551.076 36.9524 546.268 36.9524C543.618 36.9524 541.849 38.3173 541.849 39.7819C541.849 41.4457 544.108 41.7745 549.207 42.9102C558.424 44.9626 569.01 47.9913 569.01 59.9169C569.01 70.368 560.673 77.0133 546.947 77.0133C538.11 77.0033 528.993 74.1738 522.825 69.3817Z" fill="#07122B"/>
<path d="M68.977 24.1401C50.913 24.1401 49.7634 32.5687 49.7634 32.6484C49.7634 32.5388 46.2945 24.1401 30.9197 24.1401C21.3029 24.1401 19.3835 27.9459 19.4135 27.9659V23.7715H0V75.7181H19.4135C19.4135 75.7181 19.4135 46.3673 19.4135 46.6463C19.4135 41.0073 24.4918 38.128 29.2102 38.128C34.0886 38.128 38.887 41.3859 38.887 46.3375C38.987 46.5666 38.7071 75.7181 38.7071 75.7181H57.6008C57.6008 75.7181 57.8307 48.4895 57.8307 47.9016C57.7879 46.6144 58.0043 45.3317 58.4671 44.1292C58.9298 42.9267 59.6295 41.8288 60.5249 40.9002C61.4204 39.9715 62.4934 39.2311 63.6806 38.7224C64.8678 38.2138 66.1452 37.9473 67.4375 37.9387C70.0888 37.9387 72.6314 38.9884 74.5062 40.8568C76.3809 42.7252 77.4341 45.2593 77.4341 47.9016C77.4341 48.4895 77.2842 75.7181 77.2842 75.7181H95.788V43.6674C95.788 32.24 85.1216 24.1401 68.977 24.1401Z" fill="#07122B"/>
<path d="M344.205 50.223C344.205 66.8411 332.469 78.0195 318.524 78.0195C311.706 78.0195 308.267 76.0967 304.178 72.4403V94H285.395V24.0006H304.238V28.1851C308.327 24.5187 311.706 22.4365 318.524 22.4365C332.469 22.4365 344.205 33.7145 344.205 50.223ZM327.121 50.223C327.121 42.5815 322.032 37.2712 315.065 37.2712C308.587 37.2712 302.799 42.5416 302.799 50.223C302.799 57.9044 308.587 63.1748 315.065 63.1748C322.032 63.1349 327.121 57.9741 327.121 50.223Z" fill="#07122B"/>
</g>
<defs>
<clipPath id="clip0">
<rect width="569" height="94" fill="white"/>
</clipPath>
</defs>
</svg>
