<svg width="34" height="34" viewBox="0 0 34 34" fill="none" xmlns="http://www.w3.org/2000/svg">
<path d="M17.0007 33.864C13.6653 33.864 10.4049 32.8749 7.63159 31.0219C4.85832 29.1689 2.69682 26.5351 1.42042 23.4536C0.144026 20.3721 -0.189938 16.9813 0.460763 13.71C1.11146 10.4387 2.7176 7.43382 5.07608 5.07535C7.43455 2.71687 10.4394 1.11073 13.7107 0.460031C16.982 -0.19067 20.3728 0.143293 23.4543 1.41969C26.5358 2.69609 29.1696 4.85759 31.0226 7.63086C32.8757 10.4041 33.8647 13.6646 33.8647 17C33.8602 21.4712 32.082 25.758 28.9204 28.9197C25.7588 32.0813 21.472 33.8595 17.0007 33.864ZM17.0007 2.34599C14.1024 2.34599 11.2692 3.20544 8.8594 4.81564C6.44956 6.42584 4.57132 8.71448 3.4622 11.3921C2.35307 14.0698 2.06287 17.0163 2.6283 19.8588C3.19373 22.7014 4.58938 25.3125 6.63878 27.3619C8.68818 29.4113 11.2993 30.807 14.1419 31.3724C16.9845 31.9378 19.9309 31.6476 22.6086 30.5385C25.2862 29.4294 27.5749 27.5512 29.1851 25.1413C30.7953 22.7315 31.6547 19.8983 31.6547 17C31.6502 13.1149 30.1049 9.3902 27.3577 6.64302C24.6105 3.89584 20.8858 2.35049 17.0007 2.34599Z" fill="#FFBF1B"/>
<path d="M20.4 24.31H13.396C13.103 24.31 12.8219 24.1936 12.6147 23.9863C12.4074 23.7791 12.291 23.498 12.291 23.205C12.291 22.9119 12.4074 22.6309 12.6147 22.4236C12.8219 22.2164 13.103 22.1 13.396 22.1H20.4C20.6931 22.1 20.9741 22.2164 21.1814 22.4236C21.3886 22.6309 21.505 22.9119 21.505 23.205C21.505 23.498 21.3886 23.7791 21.1814 23.9863C20.9741 24.1936 20.6931 24.31 20.4 24.31Z" fill="#FFBF1B"/>
<path d="M10.6089 15.062C11.4727 15.062 12.1729 14.3617 12.1729 13.498C12.1729 12.6342 11.4727 11.934 10.6089 11.934C9.74515 11.934 9.04492 12.6342 9.04492 13.498C9.04492 14.3617 9.74515 15.062 10.6089 15.062Z" fill="#FFBF1B"/>
<path d="M23.3921 15.062C24.2559 15.062 24.9561 14.3617 24.9561 13.498C24.9561 12.6342 24.2559 11.934 23.3921 11.934C22.5284 11.934 21.8281 12.6342 21.8281 13.498C21.8281 14.3617 22.5284 15.062 23.3921 15.062Z" fill="#FFBF1B"/>
</svg>
