<svg width="161" height="161" viewBox="0 0 161 161" fill="none" xmlns="http://www.w3.org/2000/svg">
<path d="M15.8574 137.581H106.713L126.012 53.8359L40.4617 51.6351L33.5206 42.1545H15.8574V137.581Z" fill="#EF457E"/>
<path d="M127.141 136.791H20.6543L49.6038 73.3614H156.091L127.141 136.791Z" fill="white"/>
<path d="M127.424 137.242H20.2031V136.621L49.3219 72.9663H156.542L156.26 73.5306L127.424 137.242ZM21.3318 136.339H126.859L155.414 73.8128H49.8863L21.3318 136.339Z" fill="#07122B"/>
<path d="M65.8556 73.3614C65.7105 73.4181 65.5493 73.4181 65.4042 73.3614C65.2731 73.2248 65.1999 73.0428 65.1999 72.8535C65.1999 72.6642 65.2731 72.4822 65.4042 72.3456C65.966 71.7306 66.368 70.9869 66.5747 70.1799C66.7813 69.373 66.7863 68.5276 66.5893 67.7182C64.6706 60.0999 46.5559 52.9331 46.3866 52.8767C46.2997 52.8456 46.2201 52.7971 46.1526 52.7341C46.0852 52.6711 46.0313 52.595 45.9943 52.5104C45.9573 52.4259 45.938 52.3347 45.9375 52.2424C45.9371 52.1501 45.9555 52.0587 45.9916 51.9737C46.0662 51.8075 46.2 51.6751 46.3669 51.602C46.5338 51.529 46.7219 51.5207 46.8945 51.5787C47.6846 51.8609 65.8556 59.0277 67.9436 67.3796C68.2096 68.4288 68.2041 69.5285 67.9276 70.575C67.6512 71.6215 67.1129 72.5804 66.3635 73.3614C66.2006 73.4273 66.0185 73.4273 65.8556 73.3614Z" fill="#07122B"/>
<path d="M70.9918 66.3075C69.2814 66.3346 67.592 65.9268 66.0823 65.1224C65.9267 65.0385 65.8101 64.8971 65.7574 64.7284C65.7047 64.5597 65.72 64.3771 65.8001 64.2195C65.836 64.1302 65.8905 64.0495 65.96 63.9829C66.0295 63.9162 66.1124 63.8652 66.2032 63.8332C66.294 63.8011 66.3905 63.7888 66.4865 63.797C66.5824 63.8053 66.6754 63.8339 66.7594 63.8809C67.9373 64.4846 69.228 64.8365 70.5493 64.9142C71.8706 64.992 73.1936 64.7938 74.4342 64.3324C76.6221 63.6934 78.5807 62.4399 80.0773 60.7207C80.1024 60.6288 80.1466 60.5432 80.207 60.4695C80.2674 60.3958 80.3426 60.3357 80.4279 60.2931C80.5131 60.2505 80.6063 60.2264 80.7015 60.2222C80.7967 60.2181 80.8917 60.2342 80.9803 60.2693C81.0656 60.2951 81.1449 60.3375 81.2138 60.394C81.2827 60.4506 81.3398 60.5201 81.3817 60.5988C81.4237 60.6774 81.4497 60.7636 81.4583 60.8523C81.4668 60.941 81.4578 61.0305 81.4317 61.1158C80.197 62.9831 78.3977 64.4067 76.2964 65.1788C74.6296 65.931 72.8205 66.3159 70.9918 66.3075Z" fill="#07122B"/>
<path d="M90.8554 73.3613H90.2911C86.3249 70.7503 82.9587 67.3264 80.4155 63.3165C79.2167 60.3093 78.8276 57.0404 79.2869 53.8359C79.2865 53.742 79.3057 53.6491 79.3432 53.563C79.3807 53.477 79.4357 53.3996 79.5047 53.336C79.5737 53.2723 79.6552 53.2236 79.744 53.1931C79.8328 53.1626 79.9269 53.1509 80.0205 53.1587C80.2099 53.1861 80.383 53.2812 80.5075 53.4265C80.6321 53.5718 80.6996 53.7574 80.6977 53.9488C80.2793 56.8987 80.6092 59.9065 81.657 62.6957C84.0912 66.469 87.2808 69.697 91.0247 72.1762C91.0878 72.2392 91.1379 72.3139 91.1721 72.3962C91.2063 72.4785 91.2238 72.5668 91.2238 72.6559C91.2238 72.745 91.2063 72.8333 91.1721 72.9156C91.1379 72.9979 91.0878 73.0727 91.0247 73.1356C90.9863 73.2228 90.9284 73.3001 90.8554 73.3613Z" fill="#07122B"/>
<path d="M71.3295 73.3614C71.1666 73.4272 70.9845 73.4272 70.8216 73.3614C70.7022 73.2191 70.6367 73.0392 70.6367 72.8535C70.6367 72.6677 70.7022 72.4879 70.8216 72.3456C75.339 68.004 80.9933 65.0301 87.1304 63.7679C101.859 62.1878 113.258 64.953 120.99 71.8377C121.121 71.9743 121.194 72.1563 121.194 72.3456C121.194 72.5349 121.121 72.7169 120.99 72.8535C120.847 72.9729 120.667 73.0384 120.482 73.0384C120.296 73.0384 120.116 72.9729 119.974 72.8535C112.863 65.9123 101.577 63.3165 87.2997 64.8401C81.4317 66.13 76.0619 69.0892 71.8374 73.3614C71.6727 73.4173 71.4942 73.4173 71.3295 73.3614Z" fill="#07122B"/>
<path d="M101.577 73.3614H101.182C99.8358 72.1026 98.7271 70.6116 97.9092 68.9597C97.4051 68.0746 96.8394 67.226 96.2163 66.4203C95.143 65.2369 94.2147 63.9297 93.4511 62.5265C92.329 59.7307 91.7912 56.7347 91.871 53.7231C91.8632 53.6296 91.8749 53.5354 91.9054 53.4466C91.9359 53.3578 91.9846 53.2764 92.0482 53.2074C92.1119 53.1384 92.1893 53.0834 92.2753 53.0459C92.3614 53.0084 92.4543 52.9892 92.5482 52.9895C92.7297 53.0007 92.9019 53.0742 93.0355 53.1975C93.1692 53.3209 93.2562 53.4866 93.2818 53.6667C93.0967 56.5211 93.5001 59.383 94.4669 62.075C95.1354 63.3776 95.991 64.5754 97.0063 65.6302C97.5142 66.3074 98.135 67.3232 98.8121 68.3954C99.5707 69.8643 100.54 71.2142 101.69 72.4021C101.753 72.465 101.803 72.5397 101.838 72.622C101.872 72.7043 101.889 72.7926 101.889 72.8817C101.889 72.9708 101.872 73.0591 101.838 73.1414C101.803 73.2237 101.753 73.2985 101.69 73.3614C101.653 73.3645 101.615 73.3645 101.577 73.3614Z" fill="#07122B"/>
<path d="M85.3248 59.3098C83.653 59.4341 81.9742 59.4341 80.3024 59.3098C80.2079 59.3033 80.1159 59.277 80.0322 59.2327C79.9485 59.1884 79.8751 59.1271 79.8166 59.0526C79.7581 58.9782 79.7158 58.8923 79.6926 58.8005C79.6694 58.7087 79.6656 58.6131 79.6816 58.5198C79.7096 58.3352 79.8069 58.1682 79.9537 58.0529C80.1005 57.9376 80.2857 57.8825 80.4717 57.899C92.3129 58.3974 104.155 56.929 115.516 53.5537C115.695 53.4991 115.889 53.5155 116.057 53.5995C116.225 53.6835 116.355 53.8287 116.419 54.0052C116.454 54.0938 116.47 54.1888 116.466 54.284C116.462 54.3791 116.437 54.4724 116.395 54.5576C116.352 54.6428 116.292 54.7181 116.218 54.7785C116.145 54.8389 116.059 54.8831 115.967 54.9081C105.977 57.648 95.6826 59.1268 85.3248 59.3098Z" fill="#07122B"/>
<path d="M110.099 73.3614H109.817C107.586 71.8662 105.669 69.9491 104.174 67.7182C102.837 65.5883 101.978 63.1936 101.656 60.6994C101.335 58.2052 101.558 55.671 102.312 53.2716C102.337 53.1797 102.381 53.0941 102.441 53.0204C102.502 52.9467 102.577 52.8866 102.662 52.844C102.747 52.8014 102.841 52.7773 102.936 52.7732C103.031 52.769 103.126 52.7851 103.214 52.8202C103.3 52.846 103.379 52.8884 103.448 52.9449C103.517 53.0015 103.574 53.0711 103.616 53.1497C103.658 53.2283 103.684 53.3145 103.692 53.4032C103.701 53.4919 103.692 53.5814 103.666 53.6667C102.972 55.8775 102.764 58.2121 103.056 60.5107C103.349 62.8093 104.134 65.0177 105.359 66.9846C106.679 69.0373 108.339 70.8502 110.268 72.3456C110.438 72.4307 110.568 72.5782 110.631 72.757C110.694 72.9359 110.686 73.1323 110.607 73.3049C110.448 73.3756 110.27 73.3953 110.099 73.3614Z" fill="#07122B"/>
<path d="M119.579 73.7563H119.241C117.014 72.1415 115.102 70.1334 113.598 67.831C112.261 65.7011 111.402 63.3064 111.08 60.8122C110.759 58.318 110.982 55.7838 111.735 53.3844C111.735 53.2534 111.772 53.1251 111.843 53.0149C111.914 52.9047 112.015 52.8175 112.135 52.7637C112.254 52.71 112.387 52.692 112.516 52.7121C112.645 52.7321 112.766 52.7892 112.864 52.8765C112.949 52.9023 113.029 52.9447 113.098 53.0013C113.166 53.0578 113.224 53.1274 113.265 53.2061C113.307 53.2847 113.333 53.3708 113.342 53.4596C113.351 53.5483 113.342 53.6378 113.315 53.723C112.618 55.9333 112.408 58.2686 112.7 60.5678C112.993 62.867 113.78 65.0755 115.008 67.0409C116.329 69.0937 117.989 70.9066 119.918 72.402C120.007 72.4378 120.088 72.4923 120.155 72.5618C120.221 72.6313 120.272 72.7142 120.304 72.805C120.336 72.8958 120.349 72.9924 120.34 73.0883C120.332 73.1842 120.304 73.2773 120.257 73.3613C120.188 73.4804 120.089 73.5795 119.97 73.6487C119.852 73.718 119.717 73.7551 119.579 73.7563Z" fill="#07122B"/>
<path d="M68.5088 58.6326C65.3302 58.6234 62.1583 58.3402 59.0283 57.7861C58.9388 57.7725 58.853 57.741 58.7758 57.6936C58.6987 57.6463 58.6319 57.5839 58.5793 57.5102C58.5267 57.4366 58.4893 57.3531 58.4695 57.2648C58.4497 57.1765 58.4478 57.0851 58.4639 56.996C58.5043 56.8219 58.6068 56.6684 58.7523 56.5645C58.8977 56.4606 59.0762 56.4134 59.254 56.4317C66.1247 57.8244 73.2303 57.5339 79.9645 55.5852C80.0494 55.5491 80.1408 55.5307 80.2331 55.5311C80.3254 55.5316 80.4166 55.5509 80.5012 55.5879C80.5857 55.6249 80.6618 55.6788 80.7248 55.7463C80.7878 55.8137 80.8363 55.8934 80.8674 55.9803C80.922 56.16 80.9056 56.3537 80.8216 56.5217C80.7377 56.6897 80.5924 56.8191 80.4159 56.8832C76.5754 58.1398 72.5485 58.7315 68.5088 58.6326Z" fill="#07122B"/>
<path d="M54.2881 73.8692C54.1541 73.8344 54.0292 73.771 53.9221 73.6833C53.8149 73.5956 53.728 73.4858 53.6673 73.3614C53.5479 73.2191 53.4824 73.0392 53.4824 72.8535C53.4824 72.6677 53.5479 72.4879 53.6673 72.3456C55.677 71.146 57.4237 69.5529 58.8026 67.6617C59.2963 66.2238 59.5813 64.7225 59.6491 63.2036C59.8367 59.3492 58.7018 55.5464 56.4325 52.4252C56.3014 52.2885 56.2282 52.1066 56.2282 51.9173C56.2282 51.728 56.3014 51.546 56.4325 51.4094C56.4954 51.3462 56.5701 51.2962 56.6524 51.262C56.7348 51.2278 56.823 51.2102 56.9121 51.2102C57.0013 51.2102 57.0895 51.2278 57.1718 51.262C57.2541 51.2962 57.3289 51.3462 57.3918 51.4094C59.9494 54.8805 61.2437 59.1216 61.0599 63.4294C60.9701 65.0842 60.6471 66.718 60.1005 68.2825C58.6508 70.5504 56.7252 72.4759 54.4573 73.9257L54.2881 73.8692Z" fill="#07122B"/>
<path d="M98.4734 38.9379C97.7301 38.9508 97.0009 38.7341 96.3854 38.3172C95.5433 37.5217 94.9914 36.4675 94.8176 35.3222C94.6437 34.1769 94.8579 33.0063 95.4261 31.9968C96.3823 29.8293 97.8087 27.9017 99.602 26.3536C94.6611 26.0584 89.7718 27.4953 85.7762 30.4167C83.1047 32.332 80.8091 34.7233 79.0044 37.4707C78.9298 37.6369 78.7961 37.7694 78.6292 37.8424C78.4623 37.9154 78.2742 37.9237 78.1015 37.8657C78.0146 37.8347 77.935 37.7861 77.8675 37.7232C77.8 37.6602 77.7461 37.5841 77.7091 37.4995C77.6721 37.415 77.6528 37.3237 77.6524 37.2314C77.6519 37.1392 77.6703 37.0477 77.7065 36.9628C79.5607 33.9887 81.9529 31.386 84.7604 29.2881C89.4548 25.8451 95.2979 24.349 101.069 25.1121C104.171 23.0933 107.643 21.7121 111.283 21.049C114.161 20.4847 116.927 20.2026 119.974 19.9204C123.565 19.6747 127.131 19.1464 130.64 18.3403C130.817 18.3163 130.998 18.3535 131.152 18.4458C131.306 18.5381 131.424 18.68 131.486 18.8482C131.538 19.0353 131.514 19.2354 131.419 19.4046C131.323 19.5739 131.165 19.6985 130.978 19.7511C127.394 20.5573 123.752 21.0856 120.087 21.3312C117.265 21.6134 114.444 21.8391 111.566 22.4034C108.615 22.9834 105.777 24.0312 103.157 25.5072C104.439 25.6219 105.628 26.2246 106.479 27.1907C107.33 28.1568 107.777 29.4126 107.728 30.6989C107.728 33.9155 104.794 36.3421 102.424 37.5271C101.237 38.3029 99.8831 38.7864 98.4734 38.9379ZM101.577 26.5794C99.4536 28.1035 97.7777 30.1691 96.724 32.5611C96.0468 34.1412 95.9339 36.2856 97.1754 37.1321C98.4169 37.9786 99.7149 37.5836 101.972 36.2856C104.229 34.9877 106.712 33.2383 106.6 30.6425C106.487 28.0466 105.697 27.4258 103.101 26.8051L101.577 26.5794Z" fill="#07122B"/>
<path d="M83.1364 97.5547L79.0859 101.484L96.2962 119.225L100.347 115.296L83.1364 97.5547Z" fill="#0099F6"/>
<path d="M98.7719 98.5187L77.6055 113.351L80.8439 117.972L102.01 103.14L98.7719 98.5187Z" fill="#0099F6"/>
</svg>
