<svg width="24" height="24" viewBox="0 0 24 24" fill="none" xmlns="http://www.w3.org/2000/svg">
  <path d="M20.9614 18.7886H3.04141C2.71141 18.7886 2.44141 18.5186 2.44141 18.1886V17.9986C2.44141 16.5086 3.20141 15.0786 4.51141 14.0786C4.59141 14.0186 4.67141 13.9486 4.74141 13.8786C5.19141 13.4186 5.44141 12.8186 5.44141 12.1786V11.6086C5.44141 7.93859 8.44141 4.81859 11.9914 4.80859H12.1114C13.8314 4.83859 15.4214 5.51859 16.6214 6.72859C17.8614 7.96859 18.5414 9.61859 18.5414 11.3586V12.1786C18.5414 12.9286 18.8914 13.6286 19.4914 14.0886C20.8014 15.0886 21.5514 16.5186 21.5514 18.0086V18.1986C21.5514 18.5286 21.2814 18.7986 20.9514 18.7986L20.9614 18.7886ZM3.67141 17.5886H20.3414C20.2214 16.6286 19.6614 15.7186 18.7714 15.0386C17.8714 14.3486 17.3514 13.2986 17.3514 12.1686V11.3486C17.3514 9.91859 16.7914 8.57859 15.7814 7.55859C14.8114 6.57859 13.5014 6.01859 12.1114 5.99859H12.0014C9.10141 5.99859 6.65141 8.56859 6.65141 11.5986V12.1686C6.65141 13.1186 6.28141 14.0286 5.60141 14.7186C5.48141 14.8386 5.37141 14.9386 5.25141 15.0286C4.36141 15.7086 3.80141 16.6286 3.67141 17.5886Z" fill="white"/>
  <path d="M13.7894 6.04172H10.2094C9.87938 6.04172 9.60938 5.77172 9.60938 5.44172V3.40172C9.60938 2.08172 10.6794 1.01172 11.9994 1.01172C13.3194 1.01172 14.3894 2.08172 14.3894 3.40172V5.44172C14.3894 5.77172 14.1194 6.04172 13.7894 6.04172ZM10.8094 4.84172H13.1894V3.40172C13.1894 2.74172 12.6594 2.21172 11.9994 2.21172C11.3394 2.21172 10.8094 2.74172 10.8094 3.40172V4.84172Z" fill="white"/>
  <path d="M11.9994 23.0808C10.5494 23.0808 9.35938 21.9008 9.35938 20.4408C9.35938 18.9808 10.5394 17.8008 11.9994 17.8008C13.4594 17.8008 14.6394 18.9808 14.6394 20.4408C14.6394 21.9008 13.4594 23.0808 11.9994 23.0808ZM11.9994 19.0108C11.2094 19.0108 10.5594 19.6508 10.5594 20.4508C10.5594 21.2508 11.1994 21.8908 11.9994 21.8908C12.7994 21.8908 13.4394 21.2508 13.4394 20.4508C13.4394 19.6508 12.7994 19.0108 11.9994 19.0108Z" fill="white"/>
  <path d="M20.9614 18.7886H3.04141C2.71141 18.7886 2.44141 18.5186 2.44141 18.1886V17.9986C2.44141 16.5086 3.20141 15.0786 4.51141 14.0786C4.59141 14.0186 4.67141 13.9486 4.74141 13.8786C5.19141 13.4186 5.44141 12.8186 5.44141 12.1786V11.6086C5.44141 7.93859 8.44141 4.81859 11.9914 4.80859H12.1114C13.8314 4.83859 15.4214 5.51859 16.6214 6.72859C17.8614 7.96859 18.5414 9.61859 18.5414 11.3586V12.1786C18.5414 12.9286 18.8914 13.6286 19.4914 14.0886C20.8014 15.0886 21.5514 16.5186 21.5514 18.0086V18.1986C21.5514 18.5286 21.2814 18.7986 20.9514 18.7986L20.9614 18.7886ZM3.67141 17.5886H20.3414C20.2214 16.6286 19.6614 15.7186 18.7714 15.0386C17.8714 14.3486 17.3514 13.2986 17.3514 12.1686V11.3486C17.3514 9.91859 16.7914 8.57859 15.7814 7.55859C14.8114 6.57859 13.5014 6.01859 12.1114 5.99859H12.0014C9.10141 5.99859 6.65141 8.56859 6.65141 11.5986V12.1686C6.65141 13.1186 6.28141 14.0286 5.60141 14.7186C5.48141 14.8386 5.37141 14.9386 5.25141 15.0286C4.36141 15.7086 3.80141 16.6286 3.67141 17.5886Z" fill="white"/>
  <path d="M13.7894 6.04172H10.2094C9.87938 6.04172 9.60938 5.77172 9.60938 5.44172V3.40172C9.60938 2.08172 10.6794 1.01172 11.9994 1.01172C13.3194 1.01172 14.3894 2.08172 14.3894 3.40172V5.44172C14.3894 5.77172 14.1194 6.04172 13.7894 6.04172ZM10.8094 4.84172H13.1894V3.40172C13.1894 2.74172 12.6594 2.21172 11.9994 2.21172C11.3394 2.21172 10.8094 2.74172 10.8094 3.40172V4.84172Z" fill="white"/>
  <path d="M11.9994 23.0808C10.5494 23.0808 9.35938 21.9008 9.35938 20.4408C9.35938 18.9808 10.5394 17.8008 11.9994 17.8008C13.4594 17.8008 14.6394 18.9808 14.6394 20.4408C14.6394 21.9008 13.4594 23.0808 11.9994 23.0808ZM11.9994 19.0108C11.2094 19.0108 10.5594 19.6508 10.5594 20.4508C10.5594 21.2508 11.1994 21.8908 11.9994 21.8908C12.7994 21.8908 13.4394 21.2508 13.4394 20.4508C13.4394 19.6508 12.7994 19.0108 11.9994 19.0108Z" fill="white"/>
</svg>
