<svg width="20" height="20" viewBox="0 0 20 20" fill="none" xmlns="http://www.w3.org/2000/svg">
<path d="M18.1694 16.6731H5.62881C5.07761 16.6731 4.63086 16.2449 4.63086 15.7167C4.63086 15.1885 5.07761 14.7603 5.62881 14.7603H18.1691C18.7203 14.7603 19.167 15.1885 19.167 15.7167C19.167 16.2449 18.7206 16.6731 18.1694 16.6731Z" fill="#07122B"/>
<path d="M18.1694 10.67H5.62881C5.07761 10.67 4.63086 10.2418 4.63086 9.7136C4.63086 9.18536 5.07761 8.75723 5.62881 8.75723H18.1691C18.7203 8.75723 19.167 9.18536 19.167 9.7136C19.1674 10.2418 18.7206 10.67 18.1694 10.67Z" fill="#07122B"/>
<path d="M18.1694 4.66703H5.62881C5.07761 4.66703 4.63086 4.23889 4.63086 3.71065C4.63086 3.18242 5.07761 2.75428 5.62881 2.75428H18.1691C18.7203 2.75428 19.167 3.18242 19.167 3.71065C19.167 4.23889 18.7206 4.66703 18.1694 4.66703Z" fill="#07122B"/>
<path d="M2.5316 1.74967H1.71494L0.833984 2.08333V2.91666L1.54577 2.72384V5.83301H2.5316V1.74967Z" fill="#07122B"/>
<path d="M3.65732 17.4925V16.6233H2.05315C2.24565 16.0808 3.61648 15.6317 3.61648 14.5933C3.61648 13.8 3.02732 13.3333 2.22815 13.3333C1.30648 13.3333 0.938984 13.9517 0.833984 14.395L1.69732 14.6517C1.76732 14.43 1.91898 14.2492 2.18732 14.2492C2.43815 14.2492 2.60148 14.3892 2.60148 14.6342C2.60148 15.2467 0.863151 15.9583 0.863151 17.1367V17.4925H3.65732Z" fill="#07122B"/>
</svg>
