<svg width="20" height="20" viewBox="0 0 20 20" fill="none" xmlns="http://www.w3.org/2000/svg">
<path d="M18.1689 16.6725H5.62833C5.07712 16.6725 4.63037 16.2444 4.63037 15.7161C4.63037 15.1879 5.07712 14.7598 5.62833 14.7598H18.1686C18.7198 14.7598 19.1665 15.1879 19.1665 15.7161C19.1665 16.2444 18.7201 16.6725 18.1689 16.6725Z" fill="#B8B8B8"/>
<path d="M18.1689 10.6706H5.62833C5.07712 10.6706 4.63037 10.2424 4.63037 9.71419C4.63037 9.18595 5.07712 8.75781 5.62833 8.75781H18.1686C18.7198 8.75781 19.1665 9.18595 19.1665 9.71419C19.1669 10.2424 18.7201 10.6706 18.1689 10.6706Z" fill="#B8B8B8"/>
<path d="M18.1689 4.66665H5.62833C5.07712 4.66665 4.63037 4.23852 4.63037 3.71028C4.63037 3.18204 5.07712 2.75391 5.62833 2.75391H18.1686C18.7198 2.75391 19.1665 3.18204 19.1665 3.71028C19.1665 4.23852 18.7201 4.66665 18.1689 4.66665Z" fill="#B8B8B8"/>
<path d="M2.53112 1.75H1.71445L0.833496 2.08366V2.91699L1.54528 2.72417V5.83333H2.53112V1.75Z" fill="#B8B8B8"/>
<path d="M3.65683 17.4932V16.624H2.05266C2.24516 16.0815 3.616 15.6323 3.616 14.594C3.616 13.8007 3.02683 13.334 2.22766 13.334C1.306 13.334 0.938496 13.9523 0.833496 14.3957L1.69683 14.6523C1.76683 14.4307 1.9185 14.2498 2.18683 14.2498C2.43766 14.2498 2.601 14.3898 2.601 14.6348C2.601 15.2473 0.862663 15.959 0.862663 17.1373V17.4932H3.65683Z" fill="#B8B8B8"/>
</svg>
