<svg width="20" height="20" viewBox="0 0 20 20" fill="none" xmlns="http://www.w3.org/2000/svg">
<path d="M18.1689 16.673H5.62833C5.07712 16.673 4.63037 16.2449 4.63037 15.7166C4.63037 15.1884 5.07712 14.7603 5.62833 14.7603H18.1686C18.7198 14.7603 19.1665 15.1884 19.1665 15.7166C19.1665 16.2449 18.7201 16.673 18.1689 16.673Z" fill="#009DFF"/>
<path d="M18.1689 10.6701H5.62833C5.07712 10.6701 4.63037 10.2419 4.63037 9.7137C4.63037 9.18546 5.07712 8.75732 5.62833 8.75732H18.1686C18.7198 8.75732 19.1665 9.18546 19.1665 9.7137C19.1669 10.2419 18.7201 10.6701 18.1689 10.6701Z" fill="#009DFF"/>
<path d="M18.1689 4.66714H5.62833C5.07712 4.66714 4.63037 4.239 4.63037 3.71077C4.63037 3.18253 5.07712 2.75439 5.62833 2.75439H18.1686C18.7198 2.75439 19.1665 3.18253 19.1665 3.71077C19.1665 4.239 18.7201 4.66714 18.1689 4.66714Z" fill="#009DFF"/>
<path d="M2.53112 1.74951H1.71445L0.833496 2.08317V2.9165L1.54528 2.72368V5.83285H2.53112V1.74951Z" fill="#009DFF"/>
<path d="M3.65683 17.4927V16.6235H2.05266C2.24516 16.081 3.616 15.6318 3.616 14.5935C3.616 13.8002 3.02683 13.3335 2.22766 13.3335C1.306 13.3335 0.938496 13.9518 0.833496 14.3952L1.69683 14.6518C1.76683 14.4302 1.9185 14.2493 2.18683 14.2493C2.43766 14.2493 2.601 14.3893 2.601 14.6343C2.601 15.2468 0.862663 15.9585 0.862663 17.1368V17.4927H3.65683Z" fill="#009DFF"/>
</svg>
