<svg width="201" height="201" viewBox="0 0 201 201" fill="none" xmlns="http://www.w3.org/2000/svg">
<path d="M52.4856 103.212C46.4789 90.694 36.4262 80.5669 23.9525 74.4679C22.6844 73.8339 21.1344 73.3407 20.0776 74.4679C19.0209 75.5952 19.3027 77.3565 20.0776 78.836C21.1301 81.2813 22.3788 83.6374 23.8116 85.8812C28.1681 92.0216 33.3613 97.5231 39.2406 102.226C41.6484 104.574 44.5657 106.334 47.7653 107.369C48.3896 107.633 49.0604 107.768 49.738 107.768C50.4156 107.768 51.0864 107.633 51.7107 107.369C51.9999 107.214 52.2553 107.003 52.462 106.749C52.6687 106.494 52.8225 106.2 52.9143 105.885C53.0062 105.571 53.0343 105.24 52.997 104.915C52.9596 104.589 52.8577 104.273 52.697 103.987" fill="white"/>
<path d="M49.318 108.003C48.6406 108.102 47.9523 108.102 47.2749 108.003C43.9173 106.983 40.8665 105.143 38.3979 102.649C32.4582 97.9132 27.2166 92.3632 22.828 86.1629C21.3365 83.9421 20.0624 81.5828 19.0236 79.1176C17.9668 76.6518 18.1077 74.7496 19.4463 73.6928C20.7849 72.636 23.3916 73.6928 24.1666 73.6928C36.7296 79.8308 46.8743 90.0003 52.9815 102.578C53.1367 102.934 53.2168 103.318 53.2168 103.705C53.2168 104.093 53.1367 104.477 52.9815 104.833C52.8759 105.325 52.6716 105.792 52.381 106.203C52.0904 106.615 51.7195 106.964 51.2907 107.228C50.696 107.624 50.0234 107.889 49.318 108.003ZM21.1371 74.6087C20.866 74.499 20.5628 74.499 20.2917 74.6087C19.3758 75.3132 20.2917 77.2859 20.2917 77.92C21.2829 80.381 22.5097 82.7404 23.9552 84.9652C28.2496 91.0497 33.3986 96.4834 39.2433 101.099C41.4986 103.398 44.2791 105.115 47.3453 106.101C48.3842 106.524 49.5473 106.524 50.5861 106.101C51.038 105.839 51.3674 105.408 51.502 104.903C51.5378 104.67 51.5378 104.432 51.502 104.199C45.5368 91.9089 35.6109 81.983 23.3211 76.0177C22.8289 75.4115 22.2016 74.929 21.4894 74.6087H21.1371Z" fill="#07122B"/>
<path d="M58.8977 100.888C57.862 100.858 56.8325 101.058 55.8826 101.472C54.9328 101.886 54.0859 102.504 53.4025 103.283C51.9255 104.502 50.5796 105.871 49.3867 107.369C48.2048 108.893 47.6278 110.8 47.7663 112.724C47.9454 113.799 48.2775 114.843 48.7526 115.823C49.4572 117.444 50.5844 119.276 52.3457 119.205C52.9909 119.158 53.6171 118.965 54.1775 118.641C57.1776 117.05 59.6316 114.596 61.2227 111.596C62.0063 110.108 62.4158 108.452 62.4158 106.77C62.4158 105.089 62.0063 103.432 61.2227 101.944C60.7966 101.056 60.0369 100.373 59.1091 100.042" fill="white"/>
<path d="M52.2751 120.121C50.5138 120.121 49.1047 118.782 47.9071 116.175C47.4394 115.069 47.1081 113.91 46.9207 112.723C46.6923 110.573 47.3257 108.419 48.682 106.735C49.8647 105.119 51.2633 103.673 52.8387 102.437C54.2948 100.961 56.2058 100.018 58.2635 99.7601C58.288 99.6473 58.3354 99.5406 58.4026 99.4468C58.4699 99.3529 58.5557 99.2739 58.6547 99.2145C58.7538 99.1551 58.8639 99.1166 58.9784 99.1014C59.0928 99.0862 59.2092 99.0945 59.3203 99.126C59.9024 99.3088 60.4405 99.6095 60.9011 100.01C61.3618 100.41 61.735 100.9 61.9975 101.451C62.849 103.069 63.294 104.871 63.294 106.7C63.294 108.528 62.849 110.33 61.9975 111.948C60.253 114.978 57.656 117.428 54.5296 118.994C53.8481 119.354 53.109 119.592 52.3455 119.698L52.2751 120.121ZM58.334 101.662C56.67 101.9 55.1457 102.724 54.0364 103.987C52.5529 105.095 51.2258 106.399 50.0911 107.862C49.0104 109.242 48.4829 110.975 48.6116 112.723C48.7983 113.697 49.106 114.644 49.5275 115.541C50.3729 117.444 51.2888 118.43 52.2751 118.43C52.7703 118.35 53.2474 118.183 53.6841 117.937C56.6442 116.52 59.102 114.234 60.7293 111.385C61.4397 110.013 61.8104 108.491 61.8104 106.946C61.8104 105.402 61.4397 103.879 60.7293 102.508C60.5093 102.07 60.1968 101.685 59.8135 101.381C59.713 101.527 59.5749 101.643 59.4137 101.718C59.2525 101.792 59.0742 101.822 58.8976 101.803L58.334 101.662Z" fill="#07122B"/>
<path d="M60.2348 102.156C60.2348 102.156 45.158 120.755 61.5029 152.458C77.8478 184.162 101.379 184.514 113.497 166.549C125.614 148.583 138.296 118.853 126.248 102.226C114.201 85.5993 60.2348 102.156 60.2348 102.156Z" fill="white"/>
<path d="M93.3506 179.442H91.9415C80.2465 178.667 69.1855 169.085 60.7312 152.881C54.1273 141.524 51.6393 128.237 53.686 115.26C54.513 110.338 56.4395 105.666 59.3222 101.592H59.7449C61.9994 100.887 114.416 85.2471 126.745 102.226C139.074 119.205 124.843 151.543 113.993 167.606C111.778 171.112 108.739 174.024 105.141 176.087C101.543 178.15 97.4956 179.301 93.3506 179.442ZM60.7312 102.931C58.1398 106.773 56.3873 111.118 55.5882 115.682C53.7012 128.25 56.1884 141.083 62.6334 152.036C70.8059 167.887 81.3737 176.976 92.4347 177.68H93.7028C97.5566 177.478 101.303 176.339 104.617 174.363C107.932 172.386 110.715 169.632 112.725 166.338C123.363 150.909 137.947 120.121 125.477 102.931C114.345 87.6425 64.8879 101.662 60.7312 102.931Z" fill="#07122B"/>
<path d="M22.4023 79.1881C25.375 80.7552 28.2247 82.5451 30.9271 84.5425C35.4351 88.2054 39.5868 92.2863 43.3266 96.7307" fill="white"/>
<path d="M43.3279 97.6466C43.1232 97.7221 42.8984 97.7221 42.6938 97.6466C39.0102 93.1106 34.8797 88.9565 30.3647 85.2471C27.6945 83.2957 24.8933 81.5302 21.9809 79.9632C21.8435 79.9311 21.7153 79.8676 21.6065 79.7778C21.4977 79.6881 21.411 79.5743 21.3534 79.4456C21.2957 79.3168 21.2686 79.1764 21.2741 79.0354C21.2797 78.8944 21.3177 78.7566 21.3853 78.6328C21.4528 78.5089 21.5481 78.4023 21.6636 78.3213C21.7792 78.2403 21.9119 78.1872 22.0514 78.1659C22.1909 78.1447 22.3334 78.1559 22.4678 78.1988C22.6022 78.2417 22.7249 78.3151 22.8263 78.4132C25.8243 80.0017 28.6976 81.8152 31.4214 83.838C36.0095 87.5111 40.2114 91.6422 43.9619 96.1672C44.1255 96.3377 44.2169 96.5649 44.2169 96.8012C44.2169 97.0376 44.1255 97.2648 43.9619 97.4353C43.8787 97.5156 43.7786 97.5763 43.6688 97.6128C43.5591 97.6494 43.4426 97.661 43.3279 97.6466Z" fill="#07122B"/>
<path d="M131.885 106.805C129.032 107.108 126.322 108.206 124.064 109.976C121.839 111.704 120.374 114.231 119.978 117.021C119.851 119.019 120.301 121.012 121.275 122.761C122.25 124.51 123.707 125.941 125.474 126.884C127.285 127.737 129.284 128.113 131.281 127.977C133.278 127.842 135.207 127.199 136.887 126.109C137.854 125.504 138.692 124.714 139.353 123.784C140.088 122.513 140.522 121.089 140.62 119.623C140.717 118.157 140.477 116.688 139.916 115.33C138.61 111.893 136.109 109.041 132.871 107.299" fill="white"/>
<path d="M130.478 129.068C128.617 129.083 126.78 128.648 125.124 127.8C123.18 126.805 121.574 125.258 120.509 123.352C119.443 121.447 118.965 119.268 119.135 117.091C119.319 115.558 119.806 114.077 120.568 112.735C121.33 111.392 122.352 110.215 123.574 109.271C125.895 107.312 128.733 106.064 131.746 105.678C131.853 105.647 131.965 105.639 132.075 105.654C132.185 105.67 132.291 105.709 132.384 105.77C132.478 105.83 132.557 105.909 132.618 106.003C132.678 106.097 132.717 106.202 132.732 106.312H133.367C136.888 108.24 139.573 111.402 140.905 115.189C141.522 116.674 141.78 118.284 141.658 119.888C141.536 121.492 141.036 123.044 140.2 124.418C139.506 125.451 138.591 126.317 137.523 126.955C135.443 128.356 132.986 129.093 130.478 129.068ZM132.098 107.933C129.538 108.264 127.109 109.26 125.053 110.821C122.986 112.451 121.644 114.831 121.319 117.444C121.194 119.26 121.6 121.073 122.488 122.662C123.377 124.251 124.709 125.547 126.321 126.391C127.974 127.211 129.813 127.584 131.655 127.473C133.496 127.361 135.277 126.77 136.819 125.757C137.698 125.202 138.463 124.485 139.073 123.643C139.724 122.493 140.101 121.208 140.174 119.888C140.247 118.569 140.015 117.25 139.496 116.035C138.354 112.778 136.01 110.081 132.944 108.496C132.83 108.507 132.715 108.493 132.608 108.454C132.5 108.416 132.403 108.354 132.322 108.273C132.241 108.192 132.179 108.094 132.141 107.987C132.102 107.879 132.088 107.765 132.098 107.651V107.933Z" fill="#07122B"/>
<path d="M132.096 111.878C131.462 112.653 130.969 114.626 131.673 115.401C132.011 115.809 132.446 116.127 132.938 116.324C133.431 116.52 133.965 116.591 134.491 116.528C161.967 112.089 166.265 101.24 170.844 96.9422C171.176 96.5203 171.396 96.021 171.482 95.4912C171.568 94.9613 171.519 94.4182 171.338 93.9128C171.123 93.635 170.844 93.4131 170.525 93.2659C170.206 93.1187 169.857 93.0506 169.506 93.0674C164.022 93.2163 158.628 94.4871 153.654 96.8013C149.426 98.2426 145.345 100.083 141.466 102.297C137.544 104.598 134.309 107.906 132.096 111.878Z" fill="white"/>
<path d="M133.86 117.444C133.27 117.419 132.691 117.276 132.158 117.021C131.625 116.767 131.15 116.407 130.76 115.964C130.283 115.296 130.027 114.495 130.027 113.675C130.027 112.854 130.283 112.053 130.76 111.385C133.106 107.195 136.635 103.789 140.905 101.592C144.835 99.3433 148.962 97.4568 153.234 95.9558C158.363 93.6609 163.892 92.3923 169.508 92.2218C170.006 92.1902 170.502 92.2909 170.948 92.5137C171.393 92.7364 171.772 93.0733 172.045 93.49C172.327 94.1631 172.418 94.9014 172.306 95.6228C172.194 96.3442 171.884 97.0204 171.411 97.5762C170.563 98.3985 169.763 99.2689 169.015 100.183C164.788 105.185 157.743 113.639 134.564 117.444H133.86ZM168.381 93.9831C163.299 94.299 158.313 95.5156 153.657 97.5762C149.498 99.0759 145.468 100.914 141.609 103.071C137.821 105.24 134.701 108.408 132.591 112.23C132.591 112.23 131.817 114.273 132.098 114.555C132.342 114.858 132.655 115.099 133.01 115.258C133.365 115.418 133.753 115.49 134.141 115.471C156.686 111.808 163.238 103.987 167.536 98.8443C168.31 97.8639 169.133 96.9233 170.002 96.0262C170.225 95.7697 170.376 95.4578 170.438 95.1233C170.5 94.7887 170.471 94.4436 170.354 94.124C170.354 94.124 170.354 93.7718 169.227 93.7718L168.381 93.9831Z" fill="#07122B"/>
<path d="M139.988 112.301C148.454 110.079 156.26 105.85 162.744 99.9716L139.988 112.301Z" fill="white"/>
<path d="M139.99 113.146C139.766 113.146 139.551 113.057 139.392 112.899C139.234 112.74 139.145 112.525 139.145 112.301C139.145 112.077 139.234 111.862 139.392 111.703C139.551 111.544 139.766 111.455 139.99 111.455C148.203 109.235 155.764 105.08 162.041 99.3376C162.219 99.1886 162.444 99.1068 162.676 99.1068C162.907 99.1068 163.132 99.1886 163.31 99.3376C163.473 99.5082 163.565 99.7354 163.565 99.9717C163.565 100.208 163.473 100.435 163.31 100.606C156.713 106.548 148.789 110.824 140.201 113.076L139.99 113.146Z" fill="#07122B"/>
<path d="M93.3501 119.205C115.801 119.205 134.001 100.879 134.001 78.2723C134.001 55.6658 115.801 37.3396 93.3501 37.3396C70.8992 37.3396 52.6992 55.6658 52.6992 78.2723C52.6992 100.879 70.8992 119.205 93.3501 119.205Z" fill="white"/>
<path d="M93.3493 120.121C85.0578 120.191 76.9324 117.796 70.0043 113.24C63.0761 108.684 57.6575 102.173 54.436 94.5328C51.2145 86.8924 50.3353 78.4672 51.9101 70.3263C53.4848 62.1854 57.4425 54.6958 63.2808 48.8078C69.1192 42.9199 76.5751 38.8991 84.7024 37.2556C92.8297 35.6121 101.262 36.42 108.929 39.5768C116.597 42.7336 123.154 48.097 127.768 54.9864C132.382 61.8758 134.845 69.9806 134.846 78.2724C134.883 89.3219 130.534 99.9346 122.754 107.781C114.974 115.627 104.399 120.065 93.3493 120.121ZM93.3493 38.1852C85.4062 38.1154 77.6213 40.407 70.9828 44.7692C64.3443 49.1314 59.1515 55.3675 56.0633 62.686C52.9751 70.0046 52.1308 78.0757 53.6376 85.8749C55.1443 93.6741 58.9342 100.85 64.5262 106.492C70.1183 112.133 77.2603 115.986 85.0459 117.562C92.8316 119.137 100.91 118.364 108.255 115.341C115.601 112.317 121.883 107.18 126.303 100.58C130.724 93.9802 133.084 86.2159 133.084 78.2724C133.103 67.6958 128.934 57.5418 121.488 50.03C114.043 42.5182 103.926 38.2596 93.3493 38.1852Z" fill="#07122B"/>
<path d="M116.006 104.735C122.021 93.1273 114.041 77.0566 98.1841 68.8404C82.3267 60.6242 64.596 63.3739 58.5816 74.9819C52.5671 86.5899 60.5464 102.661 76.4038 110.877C92.2612 119.093 109.992 116.343 116.006 104.735Z" fill="#0099F6"/>
<path d="M114.062 114.203C113.962 114.248 113.854 114.271 113.745 114.271C113.636 114.271 113.528 114.248 113.428 114.203C113.264 114.032 113.173 113.805 113.173 113.569C113.173 113.333 113.264 113.105 113.428 112.935C117.208 109.978 119.726 105.698 120.473 100.958C120.367 99.998 120.367 99.0293 120.473 98.0694V96.9421C120.502 93.8384 120.051 90.7489 119.135 87.7834C118.173 84.7585 116.873 81.8516 115.26 79.1177C113.697 76.433 111.669 74.0475 109.271 72.0725L104.551 68.0567C104.402 67.8791 104.32 67.6546 104.32 67.4227C104.32 67.1908 104.402 66.9663 104.551 66.7886C104.722 66.625 104.949 66.5336 105.185 66.5336C105.422 66.5336 105.649 66.625 105.819 66.7886L110.54 70.8044C113.068 72.7432 115.218 75.1315 116.88 77.8496C118.605 80.6778 119.977 83.7063 120.966 86.8675C121.946 90.0136 122.422 93.295 122.376 96.5899C122.411 96.9648 122.411 97.3422 122.376 97.7171C122.305 98.6081 122.305 99.5033 122.376 100.394C122.048 103.057 121.179 105.625 119.822 107.939C118.465 110.253 116.649 112.265 114.485 113.851C114.392 114.016 114.241 114.141 114.062 114.203Z" fill="#07122B"/>
<path d="M105.678 166.901H105.114C104.951 166.731 104.859 166.503 104.859 166.267C104.859 166.031 104.951 165.804 105.114 165.633C111.087 158.523 115.848 150.478 119.205 141.82C119.2 141.629 119.251 141.441 119.351 141.279C119.451 141.116 119.596 140.986 119.768 140.904C119.884 140.933 119.991 140.987 120.082 141.064C120.173 141.141 120.246 141.237 120.293 141.346C120.341 141.455 120.363 141.574 120.357 141.693C120.352 141.811 120.319 141.927 120.262 142.032C116.894 150.834 112.136 159.04 106.171 166.338C106.138 166.463 106.076 166.579 105.99 166.677C105.905 166.775 105.798 166.851 105.678 166.901Z" fill="#07122B"/>
<path d="M80.5264 99.9715C72.7766 89.4742 72.9175 88.6992 72.988 88.4174L73.5516 89.2628C73.5516 89.2628 73.5516 88.9106 73.5516 88.8401C75.6951 92.4499 78.0475 95.9314 80.5968 99.267C84.2603 97.1535 91.6578 93.1377 94.6872 91.5173C101.732 87.8538 103.916 86.5152 104.903 86.0925C105.396 86.0925 105.466 86.0925 105.607 86.0925V86.5152H105.114V86.8674C104.48 86.8674 86.3739 96.8012 80.4559 100.324L80.5264 99.9715Z" fill="#07122B"/>
<path d="M70.4531 143.582V138.227C70.4531 137.382 70.4531 136.466 70.4531 135.55C70.4531 134.634 70.4531 134.916 71.0872 134.986C71.6972 134.948 72.309 134.948 72.9189 134.986C72.9189 134.986 73.4121 134.986 73.8348 135.409C74.6246 135.176 75.4654 135.178 76.2539 135.416C77.0424 135.653 77.7443 136.116 78.2733 136.748C79.0094 136.209 79.8977 135.919 80.8096 135.919C81.7215 135.919 82.6097 136.209 83.3458 136.748C84.0309 136.993 84.616 137.457 85.0108 138.069C85.4055 138.68 85.588 139.404 85.5299 140.129V144.497C85.5299 145.061 85.5299 145.272 84.8958 145.202C84.1448 145.164 83.3923 145.164 82.6413 145.202V140.552C82.6623 140.107 82.5141 139.671 82.2265 139.331C81.939 138.992 81.5334 138.773 81.0914 138.72C80.246 138.72 79.6119 139.213 79.6119 140.27C79.6119 141.327 79.6119 143.229 79.6119 144.779H76.5825V139.495C76.5713 139.085 76.4174 138.692 76.1473 138.383C75.8772 138.075 75.5079 137.87 75.103 137.804C74.9042 137.772 74.7008 137.785 74.5078 137.843C74.3148 137.9 74.1373 138 73.9883 138.135C73.8393 138.271 73.7228 138.438 73.6475 138.625C73.5721 138.811 73.5398 139.013 73.553 139.213V143.511C73.5767 143.651 73.5767 143.794 73.553 143.934L70.4531 143.582Z" fill="#EF457E"/>
<path d="M90.2488 137.241C91.0933 136.828 92.0592 136.736 92.9665 136.982C93.8738 137.228 94.6607 137.796 95.1804 138.579C95.8722 139.505 96.246 140.629 96.246 141.785C96.246 142.94 95.8722 144.065 95.1804 144.99C94.4712 145.675 93.5241 146.057 92.5384 146.057C91.5528 146.057 90.6057 145.675 89.8965 144.99V148.372H87.2898C87.2898 148.372 86.9375 147.879 86.9375 147.668V138.861C86.9728 138.345 86.9728 137.827 86.9375 137.311C86.9375 136.677 86.9375 136.536 87.7125 136.607C88.4874 136.677 88.6988 136.607 89.192 136.607C89.5743 136.763 89.9306 136.977 90.2488 137.241ZM89.6851 141.256C89.6787 141.817 89.8747 142.36 90.2371 142.787C90.5996 143.215 91.1041 143.497 91.6578 143.581C91.9138 143.594 92.1695 143.55 92.4068 143.453C92.6441 143.356 92.8575 143.208 93.0319 143.021C93.2063 142.833 93.3376 142.609 93.4167 142.365C93.4957 142.121 93.5206 141.863 93.4896 141.609C93.5301 141.051 93.3555 140.5 93.0016 140.067C92.6478 139.635 92.1416 139.354 91.5873 139.284C91.3286 139.273 91.0705 139.317 90.8301 139.414C90.5898 139.51 90.3725 139.656 90.1928 139.843C90.013 140.029 89.8748 140.251 89.7873 140.495C89.6998 140.739 89.665 140.998 89.6851 141.256Z" fill="#EF457E"/>
<path d="M94.4067 136.184L92.8567 135.761C92.8567 135.761 92.8567 135.339 92.8567 135.127C92.8567 134.916 92.8567 134.775 92.8567 134.564C92.8186 134.142 92.8186 133.717 92.8567 133.296C92.921 133.258 92.9939 133.239 93.0681 133.239C93.1423 133.239 93.2152 133.258 93.2794 133.296H94.1953H95.9566C95.922 133.576 95.922 133.86 95.9566 134.141V135.48C95.9224 135.642 95.9224 135.81 95.9566 135.973L94.4067 136.184Z" fill="#07122B"/>
<path d="M98.634 143.722C100.184 143.722 99.9021 143.722 99.9021 145.413C99.9021 147.104 99.9021 146.541 98.8453 146.47C96.7317 146.47 96.6613 146.118 96.9431 144.004C96.9431 144.004 96.9431 143.652 97.4363 143.581L98.634 143.722Z" fill="#07122B"/>
<path d="M61.6443 28.8855H61.0103C59.6873 27.7813 58.0514 27.1194 56.3328 26.993C54.6141 26.8667 52.8991 27.2821 51.4288 28.181C51.2486 28.2572 51.0487 28.2737 50.8585 28.228C50.6682 28.1824 50.4976 28.077 50.3716 27.9274C50.2455 27.7777 50.1708 27.5916 50.1582 27.3964C50.1456 27.2012 50.1958 27.007 50.3015 26.8424C51.5995 25.5817 52.6299 24.0721 53.331 22.4039C53.3094 19.8816 52.5233 17.425 51.0765 15.3587C50.988 15.286 50.9167 15.1946 50.8678 15.0911C50.8188 14.9875 50.7934 14.8744 50.7934 14.7599C50.7934 14.6453 50.8188 14.5322 50.8678 14.4287C50.9167 14.3251 50.988 14.2337 51.0765 14.161C51.1551 14.0822 51.2484 14.0197 51.3512 13.977C51.4539 13.9343 51.5641 13.9124 51.6754 13.9124C51.7866 13.9124 51.8968 13.9343 51.9996 13.977C52.1023 14.0197 52.1957 14.0822 52.2742 14.161C52.6743 14.6684 53.028 15.2107 53.331 15.7814C54.6696 16.8382 55.6559 17.5427 56.924 18.3882L57.8399 19.0927C59.0376 19.8677 63.2647 18.4586 65.5897 17.1905C65.6682 17.1117 65.7615 17.0491 65.8643 17.0064C65.9671 16.9638 66.0772 16.9418 66.1885 16.9418C66.2998 16.9418 66.41 16.9638 66.5127 17.0064C66.6155 17.0491 66.7088 17.1117 66.7873 17.1905C66.8662 17.269 66.9287 17.3623 66.9714 17.4651C67.014 17.5679 67.036 17.678 67.036 17.7893C67.036 17.9006 67.014 18.0108 66.9714 18.1135C66.9287 18.2163 66.8662 18.3096 66.7873 18.3882C64.3215 20.0086 61.1512 25.0107 62.2784 27.6174C62.3985 27.7673 62.4639 27.9537 62.4639 28.1458C62.4639 28.3379 62.3985 28.5242 62.2784 28.6742C62.1985 28.7591 62.0987 28.8229 61.988 28.8598C61.8774 28.8967 61.7593 28.9056 61.6443 28.8855ZM55.7968 25.0811C57.4168 25.0607 59.0159 25.4483 60.4467 26.2083C60.6566 24.0244 61.4879 21.9462 62.842 20.2199C61.9629 20.5979 61.0161 20.7928 60.0592 20.7928C59.1023 20.7928 58.1554 20.5979 57.2763 20.2199L56.3604 19.6563L54.6696 18.4586C55.0683 19.9112 55.0683 21.4445 54.6696 22.8971C54.3173 23.7309 53.893 24.5324 53.4014 25.2925C54.1886 25.1266 54.9928 25.0557 55.7968 25.0811Z" fill="#07122B"/>
<path d="M111.878 19.7267C111.671 19.7873 111.451 19.7873 111.244 19.7267C110.46 19.1748 109.525 18.8786 108.567 18.8786C107.608 18.8786 106.673 19.1748 105.889 19.7267C105.734 19.8653 105.534 19.942 105.326 19.942C105.118 19.942 104.917 19.8653 104.762 19.7267C104.624 19.5717 104.547 19.371 104.547 19.1631C104.547 18.9551 104.624 18.7544 104.762 18.5994C105.506 17.8473 106.103 16.9634 106.523 15.9927C106.475 14.5416 106.037 13.1303 105.255 11.9065C105.167 11.8338 105.096 11.7424 105.047 11.6388C104.998 11.5353 104.972 11.4222 104.972 11.3076C104.972 11.1931 104.998 11.08 105.047 10.9765C105.096 10.8729 105.167 10.7815 105.255 10.7088C105.426 10.5452 105.653 10.4538 105.889 10.4538C106.126 10.4538 106.353 10.5452 106.523 10.7088C106.767 10.9902 106.98 11.2973 107.158 11.6247C107.804 12.1856 108.486 12.7033 109.201 13.1746L109.835 13.5973C110.257 13.5973 112.582 13.5973 114.132 12.4701C114.211 12.3913 114.304 12.3288 114.407 12.2861C114.51 12.2434 114.62 12.2215 114.731 12.2215C114.842 12.2215 114.953 12.2434 115.055 12.2861C115.158 12.3288 115.251 12.3913 115.33 12.4701C115.461 12.6421 115.533 12.8525 115.533 13.069C115.533 13.2854 115.461 13.4958 115.33 13.6678C113.78 14.6541 112.16 17.5427 112.723 18.8108C112.832 18.9654 112.891 19.15 112.891 19.3392C112.891 19.5284 112.832 19.713 112.723 19.8676C112.586 19.9403 112.429 19.966 112.277 19.9405C112.124 19.915 111.984 19.8399 111.878 19.7267ZM108.355 16.7677C109.203 16.7535 110.044 16.9217 110.821 17.2609C110.982 16.3594 111.317 15.4979 111.807 14.7246C111.373 14.9087 110.906 15.0035 110.434 15.0035C109.962 15.0035 109.494 14.9087 109.06 14.7246L108.426 14.0905C108.567 14.7405 108.567 15.4132 108.426 16.0632L108.003 16.9086L108.355 16.7677Z" fill="#07122B"/>
<path d="M147.949 50.6551C147.767 50.7258 147.566 50.7258 147.385 50.6551C146.052 49.5626 144.407 48.9197 142.686 48.8185C140.965 48.7173 139.256 49.1628 137.804 50.0915C137.632 50.2229 137.421 50.2941 137.205 50.2941C136.988 50.2941 136.778 50.2229 136.606 50.0915C136.467 49.9365 136.391 49.7358 136.391 49.5279C136.391 49.3199 136.467 49.1192 136.606 48.9642C137.912 47.6681 138.963 46.1387 139.706 44.4553C139.673 41.9239 138.861 39.4641 137.381 37.4101C137.217 37.2395 137.126 37.0123 137.126 36.776C137.126 36.5397 137.217 36.3125 137.381 36.1419C137.559 35.9928 137.783 35.9111 138.015 35.9111C138.247 35.9111 138.471 35.9928 138.649 36.1419C139.057 36.6436 139.411 37.1867 139.706 37.7623C141.044 38.8896 142.031 39.5236 143.228 40.3691L144.285 41.0736C145.412 41.8486 149.64 40.51 152.035 39.1714C152.19 39.0327 152.391 38.9561 152.599 38.9561C152.806 38.9561 153.007 39.0327 153.162 39.1714C153.306 39.3378 153.385 39.5503 153.385 39.7702C153.385 39.9901 153.306 40.2027 153.162 40.3691C150.626 41.9895 147.526 46.9916 148.653 49.5983C148.719 49.7887 148.72 49.9954 148.656 50.1864C148.593 50.3774 148.468 50.5422 148.301 50.6551H147.949ZM142.101 46.8507C143.721 46.8302 145.32 47.2179 146.751 47.9779C147.059 45.9172 147.856 43.9603 149.076 42.2713C148.197 42.6492 147.25 42.8442 146.293 42.8442C145.336 42.8442 144.389 42.6492 143.51 42.2713L142.524 41.5668L140.903 40.2282C141.419 41.6489 141.541 43.1824 141.256 44.6666C140.96 45.5262 140.532 46.3344 139.988 47.062L142.101 46.8507Z" fill="#07122B"/>
</svg>
