<svg xmlns="http://www.w3.org/2000/svg" width="16" height="16" viewBox="0 0 16 16" fill="none">
  <path d="M13.3203 6.60984H2.68027C2.46027 6.60984 2.28027 6.42984 2.28027 6.20984V5.37651C2.28027 4.11651 3.30694 3.08984 4.56694 3.08984H11.4403C12.7003 3.08984 13.7269 4.11651 13.7269 5.37651V6.20984C13.7269 6.42984 13.5469 6.60984 13.3269 6.60984H13.3203ZM3.08027 5.80984H12.9203V5.37651C12.9203 4.55651 12.2536 3.88984 11.4336 3.88984H4.56027C3.74027 3.88984 3.07361 4.55651 3.07361 5.37651V5.80984H3.08027Z" fill="#FC3030"/>
  <path d="M9.9409 15.0807H6.06757C4.60757 15.0807 3.4209 13.894 3.4209 12.434V6.42734C3.4209 6.20734 3.6009 6.02734 3.8209 6.02734H12.1809C12.4009 6.02734 12.5809 6.20734 12.5809 6.42734V12.434C12.5809 13.894 11.3942 15.0807 9.93423 15.0807H9.9409ZM4.2209 6.82734V12.434C4.2209 13.4473 5.04757 14.2807 6.06757 14.2807H9.9409C10.9542 14.2807 11.7876 13.454 11.7876 12.434V6.82734H4.2209Z" fill="#FC3030"/>
  <path d="M6.43418 10.3935C6.21418 10.3935 6.03418 10.2135 6.03418 9.99354V6.44688C6.03418 6.22688 6.21418 6.04688 6.43418 6.04688C6.65418 6.04688 6.83418 6.22688 6.83418 6.44688V9.99354C6.83418 10.2135 6.65418 10.3935 6.43418 10.3935Z" fill="#FC3030"/>
  <path d="M9.29355 10.3935C9.07355 10.3935 8.89355 10.2135 8.89355 9.99354V6.44688C8.89355 6.22688 9.07355 6.04688 9.29355 6.04688C9.51355 6.04688 9.69355 6.22688 9.69355 6.44688V9.99354C9.69355 10.2135 9.51355 10.3935 9.29355 10.3935Z" fill="#FC3030"/>
  <path d="M6.80625 3.55349C6.58625 3.55349 6.40625 3.37349 6.40625 3.15349V1.56016C6.40625 1.34016 6.58625 1.16016 6.80625 1.16016H9.19292C9.41292 1.16016 9.59292 1.34016 9.59292 1.56016V3.00682C9.59292 3.22682 9.41292 3.40682 9.19292 3.40682C8.97292 3.40682 8.79292 3.22682 8.79292 3.00682V1.96016H7.20625V3.15349C7.20625 3.37349 7.02625 3.55349 6.80625 3.55349Z" fill="#FC3030"/>
</svg>