<svg width="20" height="20" viewBox="0 0 20 20" fill="none" xmlns="http://www.w3.org/2000/svg">
                                                    <path d="M16.0159 17.3385H3.98255C2.38255 17.3385 1.07422 16.0302 1.07422 14.4302V5.58021C1.07422 3.98021 2.38255 2.67188 3.98255 2.67188H16.0159C17.6159 2.67188 18.9242 3.98021 18.9242 5.58021V14.4302C18.9242 16.0302 17.6159 17.3385 16.0159 17.3385ZM3.98255 3.67188C2.93255 3.67188 2.07422 4.53021 2.07422 5.58021V14.4302C2.07422 15.4802 2.93255 16.3385 3.98255 16.3385H16.0159C17.0659 16.3385 17.9242 15.4802 17.9242 14.4302V5.58021C17.9242 4.53021 17.0659 3.67188 16.0159 3.67188H3.98255Z" fill="#EF457E"/>
                                                    <path d="M10 12.8729C9.275 12.8729 8.55833 12.5979 8.00833 12.0479L1.675 5.7146C1.48333 5.52293 1.48333 5.20627 1.675 5.00627C1.86667 4.80627 2.18333 4.8146 2.38333 5.00627L8.71667 11.3396C9.4 12.0229 10.6 12.0229 11.2833 11.3396L17.6 5.02293C17.7917 4.83127 18.1083 4.83127 18.3083 5.02293C18.5083 5.2146 18.5 5.53127 18.3083 5.73127L11.9917 12.0479C11.4417 12.5979 10.725 12.8729 10 12.8729Z" fill="#EF457E"/>
                                                    </svg>