<svg width="19" height="30" viewBox="0 0 19 30" fill="none" xmlns="http://www.w3.org/2000/svg">
    <path fill-rule="evenodd" clip-rule="evenodd" d="M9.87319 22.8243C9.66708 23.0586 9.33291 23.0586 9.1268 22.8243L4.90458 18.0243C4.69847 17.7899 4.69847 17.4101 4.90458 17.1757C5.11069 16.9414 5.44486 16.9414 5.65097 17.1757L9.5 21.5515L13.349 17.1757C13.5551 16.9414 13.8893 16.9414 14.0954 17.1757C14.3015 17.4101 14.3015 17.7899 14.0954 18.0243L9.87319 22.8243Z" fill="#07122B"/>
    <path fill-rule="evenodd" clip-rule="evenodd" d="M9.87319 7.17574C9.66708 6.94142 9.33291 6.94142 9.1268 7.17574L4.90458 11.9757C4.69847 12.2101 4.69847 12.5899 4.90458 12.8243C5.11069 13.0586 5.44486 13.0586 5.65097 12.8243L9.5 8.44853L13.349 12.8243C13.5551 13.0586 13.8893 13.0586 14.0954 12.8243C14.3015 12.5899 14.3015 12.2101 14.0954 11.9757L9.87319 7.17574Z" fill="#07122B"/>
</svg>
