<svg width="150" height="24" viewBox="0 0 150 24" fill="none" xmlns="http://www.w3.org/2000/svg">
<g clip-path="url(#clip0_16773_42566)">
<path d="M17.109 9.14062C16.959 9.14062 16.799 9.08062 16.689 8.96062L12.009 4.28063L7.329 8.96062C7.099 9.19062 6.719 9.19062 6.479 8.96062C6.239 8.73062 6.249 8.35062 6.479 8.11062L11.589 3.00062C11.819 2.77062 12.199 2.77062 12.439 3.00062L17.549 8.11062C17.779 8.34062 17.779 8.72062 17.549 8.96062C17.429 9.08062 17.279 9.14062 17.129 9.14062H17.109Z" fill="#0099F6"/>
<path d="M11.9994 16.8481C11.6694 16.8481 11.3994 16.5781 11.3994 16.2481V3.42813C11.3994 3.09813 11.6694 2.82812 11.9994 2.82812C12.3294 2.82812 12.5994 3.09813 12.5994 3.42813V16.2481C12.5994 16.5781 12.3294 16.8481 11.9994 16.8481Z" fill="#0099F6"/>
<path d="M19.5495 21.1725H4.44945C2.64945 21.1725 1.18945 19.7125 1.18945 17.9125V15.9125C1.18945 15.5825 1.45945 15.3125 1.78945 15.3125C2.11945 15.3125 2.38945 15.5825 2.38945 15.9125V17.9125C2.38945 19.0525 3.31945 19.9725 4.44945 19.9725H19.5395C20.6795 19.9725 21.5995 19.0425 21.5995 17.9125V15.9125C21.5995 15.5825 21.8695 15.3125 22.1995 15.3125C22.5295 15.3125 22.7995 15.5825 22.7995 15.9125V17.9125C22.7995 19.7125 21.3395 21.1725 19.5395 21.1725H19.5495Z" fill="#0099F6"/>
<path d="M36.774 16.182C34.324 16.182 32.98 14.67 32.98 12.402V6.2H34.534V12.388C34.534 13.83 35.318 14.74 36.774 14.74C38.216 14.74 39.014 13.816 39.014 12.374V6.2H40.554V12.388C40.554 14.614 39.154 16.182 36.774 16.182ZM42.3833 18.618V8.692H43.8253V9.658C44.0213 9.392 44.7633 8.51 46.1773 8.51C48.2633 8.51 49.7473 10.106 49.7473 12.332C49.7473 14.6 48.3613 16.182 46.2753 16.182C44.8893 16.182 44.1053 15.342 43.9093 15.034V18.618H42.3833ZM43.8533 12.332C43.8533 13.914 44.8193 14.824 46.0373 14.824C47.3113 14.824 48.2073 13.802 48.2073 12.332C48.2073 10.834 47.2693 9.868 46.0233 9.868C44.6793 9.868 43.8533 10.988 43.8533 12.332ZM51.0239 16V5.878H52.5499V16H51.0239ZM55.3562 12.36C55.3562 13.802 56.3222 14.824 57.6802 14.824C59.0382 14.824 60.0322 13.774 60.0322 12.346C60.0322 10.918 59.0382 9.868 57.6802 9.868C56.3082 9.868 55.3562 10.932 55.3562 12.36ZM53.8162 12.36C53.8162 10.148 55.4822 8.51 57.6802 8.51C59.9342 8.51 61.5582 10.148 61.5582 12.346C61.5582 14.544 59.9062 16.182 57.6802 16.182C55.4402 16.182 53.8162 14.572 53.8162 12.36ZM62.3748 13.746C62.3748 12.332 63.5228 11.338 65.2028 11.338C66.0428 11.338 66.6728 11.618 66.9528 11.87V11.184C66.9528 10.344 66.3648 9.84 65.3988 9.84C64.5868 9.84 63.8868 10.12 63.3548 10.414L62.7668 9.35C63.3548 8.972 64.3348 8.51 65.5528 8.51C67.7228 8.51 68.4648 9.686 68.4648 11.282V16H67.1348L67.0088 15.454C66.6308 15.874 66.0428 16.182 65.1328 16.182C63.5928 16.182 62.3748 15.216 62.3748 13.746ZM63.9008 13.704C63.9008 14.432 64.5308 14.964 65.4548 14.964C66.3508 14.964 66.9948 14.46 66.9948 13.704C66.9948 12.934 66.3648 12.444 65.4408 12.444C64.5168 12.444 63.9008 12.976 63.9008 13.704ZM76.9848 5.878V16H75.5428V15.048C75.3468 15.3 74.6048 16.182 73.1908 16.182C71.1048 16.182 69.6208 14.6 69.6208 12.36C69.6208 10.106 71.0068 8.51 73.0928 8.51C74.4788 8.51 75.2628 9.35 75.4588 9.672V5.878H76.9848ZM75.5148 12.374C75.5148 10.778 74.5488 9.868 73.3308 9.868C72.0568 9.868 71.1608 10.904 71.1608 12.374C71.1608 13.872 72.0988 14.838 73.3448 14.838C74.6888 14.838 75.5148 13.718 75.5148 12.374ZM85.7655 8.51C87.6555 8.51 88.3135 10.008 88.3135 11.604V16H86.8015V11.478C86.8015 10.47 86.1715 9.882 85.3315 9.882C84.3655 9.882 83.7355 10.596 83.7355 11.59V16H82.2095V8.692H83.7075V9.644C84.0295 9.07 84.7855 8.51 85.7655 8.51ZM89.5274 12.374C89.5274 10.106 91.0814 8.51 93.0834 8.51C95.2954 8.51 96.5974 10.036 96.5974 12.332C96.5974 12.458 96.5974 12.584 96.5834 12.71H91.0814C91.1094 14.012 92.0474 14.852 93.3494 14.852C94.4554 14.852 95.0854 14.236 95.3654 13.83L96.3734 14.586C96.0234 15.188 95.0574 16.182 93.3214 16.182C91.0394 16.182 89.5274 14.586 89.5274 12.374ZM91.1374 11.66H95.0434C94.9874 10.456 94.1474 9.784 93.0974 9.784C92.0474 9.784 91.2354 10.512 91.1374 11.66ZM104.361 16L102.723 10.764L101.071 16H99.3908L97.0668 8.692H98.7188L100.315 14.292C100.315 14.292 100.329 14.264 101.995 8.692H103.451C105.103 14.264 105.117 14.292 105.117 14.292L106.727 8.692H108.379L106.055 16H104.361ZM112.848 18.618V8.692H114.29V9.658C114.486 9.392 115.228 8.51 116.642 8.51C118.728 8.51 120.212 10.106 120.212 12.332C120.212 14.6 118.826 16.182 116.74 16.182C115.354 16.182 114.57 15.342 114.374 15.034V18.618H112.848ZM114.318 12.332C114.318 13.914 115.284 14.824 116.502 14.824C117.776 14.824 118.672 13.802 118.672 12.332C118.672 10.834 117.734 9.868 116.488 9.868C115.144 9.868 114.318 10.988 114.318 12.332ZM125.059 8.51C126.949 8.51 127.607 10.008 127.607 11.604V16H126.095V11.478C126.095 10.47 125.465 9.882 124.625 9.882C123.659 9.882 123.015 10.596 123.015 11.59V16H121.489V5.878H123.015V9.644C123.337 9.07 124.079 8.51 125.059 8.51ZM130.346 12.36C130.346 13.802 131.312 14.824 132.67 14.824C134.028 14.824 135.022 13.774 135.022 12.346C135.022 10.918 134.028 9.868 132.67 9.868C131.298 9.868 130.346 10.932 130.346 12.36ZM128.806 12.36C128.806 10.148 130.472 8.51 132.67 8.51C134.924 8.51 136.548 10.148 136.548 12.346C136.548 14.544 134.896 16.182 132.67 16.182C130.43 16.182 128.806 14.572 128.806 12.36ZM137.939 8.692V7.166H139.451V8.692H140.935V9.952H139.451V13.354C139.451 14.488 139.885 14.74 140.697 14.74C140.823 14.74 140.991 14.726 140.991 14.726V16.042C140.991 16.042 140.725 16.098 140.249 16.098C138.471 16.098 137.939 14.908 137.939 13.116V9.952H137.127V8.692H137.939ZM143.307 12.36C143.307 13.802 144.273 14.824 145.631 14.824C146.989 14.824 147.983 13.774 147.983 12.346C147.983 10.918 146.989 9.868 145.631 9.868C144.259 9.868 143.307 10.932 143.307 12.36ZM141.767 12.36C141.767 10.148 143.433 8.51 145.631 8.51C147.885 8.51 149.509 10.148 149.509 12.346C149.509 14.544 147.857 16.182 145.631 16.182C143.391 16.182 141.767 14.572 141.767 12.36Z" fill="#0099F6"/>
</g>
<defs>
<clipPath id="clip0_16773_42566">
<rect width="150" height="24" fill="white"/>
</clipPath>
</defs>
</svg>
