<svg width="40" height="25" viewBox="0 0 40 25" fill="none" xmlns="http://www.w3.org/2000/svg">
<path d="M37.8667 0H2.13333C0.955126 0 0 0.950563 0 2.12314V22.8769C0 24.0494 0.955126 25 2.13333 25H37.8667C39.0449 25 40 24.0494 40 22.8769V2.12314C40 0.950563 39.0449 0 37.8667 0Z" fill="#0E4595"/>
<path d="M14.8379 17.7404L16.6171 7.34961H19.463L17.6825 17.7404H14.8379Z" fill="white"/>
<path d="M27.963 7.57362C27.3992 7.36311 26.5158 7.13721 25.4125 7.13721C22.6005 7.13721 20.6197 8.5465 20.6029 10.5663C20.587 12.0593 22.0169 12.8922 23.0964 13.3893C24.2041 13.8986 24.5765 14.2234 24.5712 14.6782C24.5642 15.3747 23.6867 15.6929 22.8687 15.6929C21.7296 15.6929 21.1245 15.5354 20.19 15.1475L19.8232 14.9823L19.4238 17.3084C20.0885 17.5984 21.3176 17.8497 22.5939 17.8627C25.5853 17.8627 27.5272 16.4696 27.5493 14.3127C27.56 13.1307 26.8018 12.2312 25.16 11.4896C24.1653 11.0089 23.5561 10.6882 23.5626 10.2014C23.5626 9.76953 24.0782 9.3077 25.1923 9.3077C26.1229 9.29331 26.797 9.49527 27.3222 9.70578L27.5773 9.82569L27.963 7.57362Z" fill="white"/>
<path d="M35.2867 7.34961H33.0877C32.4065 7.34961 31.8967 7.53464 31.5975 8.21129L27.3711 17.7337H30.3594C30.3594 17.7337 30.8481 16.4534 30.9586 16.1723C31.2851 16.1723 34.1881 16.1767 34.6031 16.1767C34.6883 16.5405 34.9494 17.7337 34.9494 17.7337H37.59L35.2867 7.34961ZM31.7978 14.0591C32.0331 13.4604 32.9316 11.1545 32.9316 11.1545C32.9148 11.1821 33.1652 10.5529 33.3089 10.1628L33.5013 11.0586C33.5013 11.0586 34.0462 13.5389 34.16 14.0591H31.7978V14.0591Z" fill="white"/>
<path d="M2.44651 7.34961L2.41016 7.56586C3.53501 7.83686 4.53971 8.229 5.41932 8.7169L7.94443 17.7239L10.9554 17.7204L15.4356 7.34961H12.4211L9.63495 14.4354L9.33807 12.9954C9.32434 12.9515 9.30947 12.9074 9.29422 12.8632L8.32537 8.22686C8.1531 7.5689 7.65345 7.37254 7.03537 7.34961H2.44651Z" fill="white"/>
</svg>
